<?xml version="1.0" standalone="no"?>
<!DOCTYPE svg PUBLIC "-//W3C//DTD SVG 20010904//EN"
 "http://www.w3.org/TR/2001/REC-SVG-20010904/DTD/svg10.dtd">
<svg version="1.0" xmlns="http://www.w3.org/2000/svg"
 width="2000.000000pt" height="608.000000pt" viewBox="0 0 2000.000000 608.000000"
 preserveAspectRatio="xMidYMid meet">
<metadata>
Created by potrace 1.16, written by Peter Selinger 2001-2019
</metadata>
<g transform="translate(0.000000,608.000000) scale(0.100000,-0.100000)"
fill="#000000" stroke="none">
<path d="M0 3780 c0 -1527 3 -2300 10 -2300 6 0 10 -7 10 -15 0 -9 7 -18 15
-21 8 -4 15 -10 15 -15 0 -14 -38 -11 -43 4 -3 6 -6 -313 -6 -710 l-1 -723
5690 0 c3130 0 5690 4 5690 8 0 10 386 10 396 0 4 -5 1856 -8 4116 -8 l4108 0
0 1875 c0 1646 -2 1875 -15 1875 -11 0 -12 5 -5 25 11 28 13 27 -70 27 -27 0
-306 0 -620 -1 l-569 -1 -119 -115 c-66 -63 -125 -115 -131 -115 -14 0 -14 17
-1 25 6 4 8 15 5 25 -7 22 4 70 16 70 5 0 9 -11 9 -25 0 -14 2 -25 5 -25 3 0
45 39 92 87 47 48 97 93 111 100 19 10 162 13 658 13 l634 0 0 1120 0 1120
-4282 -1 c-2356 0 -4277 -3 -4270 -6 6 -2 12 -13 12 -24 0 -10 5 -19 10 -19 6
0 10 -11 10 -25 0 -16 -6 -25 -15 -25 -10 0 -15 10 -15 28 l0 27 -15 -29 c-18
-34 -18 -37 -2 -34 7 2 12 -8 12 -27 0 -19 -5 -29 -12 -27 -8 1 -13 -8 -13
-23 0 -23 -4 -25 -40 -25 -27 0 -40 4 -40 13 0 18 -28 18 -34 0 -6 -15 -86
-19 -86 -4 0 18 21 23 96 26 l76 2 1 66 c2 63 1 66 -22 69 -38 5 -37 26 1 31
18 2 -2533 5 -5669 5 l-5703 2 0 -2300z m11330 2262 c0 -5 -41 -30 -91 -55
-68 -35 -102 -47 -135 -47 -24 0 -44 -4 -44 -10 0 -5 5 -10 10 -10 6 0 10 -7
10 -15 0 -9 -9 -15 -25 -15 -22 0 -25 4 -25 40 l0 40 65 0 c37 0 65 4 65 10 0
6 9 10 20 10 11 0 20 5 20 10 0 6 9 10 20 10 11 0 20 5 20 10 0 6 9 10 20 10
11 0 20 5 20 10 0 6 11 10 25 10 14 0 25 -4 25 -8z m170 -98 c0 -31 -23 -28
-28 4 -2 15 2 22 12 22 11 0 16 -9 16 -26z m20 -60 c0 -31 -23 -28 -28 4 -2
15 2 22 12 22 11 0 16 -9 16 -26z m-382 -1 c2 -8 -6 -13 -22 -13 -17 0 -26 5
-26 16 0 19 41 16 48 -3z m327 -31 c0 -46 -19 -44 -23 2 -3 28 0 37 10 34 7
-3 13 -19 13 -36z m-45 -12 c0 -11 -5 -20 -11 -20 -5 0 -19 -20 -30 -45 -24
-54 -39 -58 -39 -10 0 19 5 35 10 35 6 0 10 7 10 15 0 8 5 15 10 15 6 0 10 7
10 15 0 8 9 15 20 15 13 0 20 -7 20 -20z m120 -31 c0 -20 -15 -26 -25 -9 -9
15 3 43 15 35 5 -3 10 -15 10 -26z m-100 -60 c0 -22 -4 -38 -9 -34 -13 7 -24
62 -16 75 12 20 25 -1 25 -41z m44 35 c10 -27 7 -44 -9 -44 -10 0 -15 10 -15
30 0 32 14 40 24 14z m76 -29 c0 -26 -14 -33 -25 -15 -9 14 1 40 15 40 5 0 10
-11 10 -25z m-214 -46 c3 -6 1 -16 -5 -22 -6 -6 -11 -19 -11 -29 0 -10 -7 -18
-15 -18 -8 0 -15 9 -15 20 0 11 5 20 10 20 6 0 10 9 10 20 0 22 15 27 26 9z
m114 -59 c0 -27 -4 -50 -10 -50 -11 0 -24 65 -16 85 12 32 26 13 26 -35z m44
34 c10 -27 7 -44 -9 -44 -10 0 -15 10 -15 30 0 32 14 40 24 14z m136 6 c0 -5
8 -10 18 -10 10 0 24 -9 32 -20 8 -11 21 -20 28 -20 7 0 31 -18 52 -40 21 -22
46 -40 54 -40 9 0 16 -4 16 -9 0 -5 52 -61 115 -124 63 -63 115 -119 115 -124
0 -5 9 -15 20 -23 11 -8 20 -20 20 -28 0 -7 23 -35 50 -62 28 -27 50 -55 50
-62 0 -8 9 -20 20 -28 11 -8 20 -21 20 -30 0 -9 9 -22 20 -30 11 -8 20 -22 20
-32 0 -10 5 -18 10 -18 6 0 10 -9 10 -20 0 -11 5 -20 10 -20 6 0 10 -12 10
-26 0 -37 -21 -26 -49 27 -13 24 -58 95 -100 158 -123 185 -260 327 -504 521
-11 8 -25 21 -32 28 -18 16 -25 15 -40 -5 -11 -15 -14 -15 -35 5 -12 11 -19
25 -15 31 8 14 85 15 85 1z m-16 -76 c9 -25 7 -34 -8 -34 -8 0 -16 -5 -18 -12
-6 -17 -28 0 -28 22 0 10 8 24 18 29 24 14 29 13 36 -5z m-314 -4 c0 -6 -4
-18 -9 -28 -5 -9 -16 -34 -25 -55 -9 -21 -21 -35 -26 -32 -13 8 -13 45 0 45 6
0 10 9 10 20 0 11 6 20 14 20 9 0 12 7 9 20 -4 14 0 20 11 20 9 0 16 -5 16
-10z m215 -40 c7 -31 1 -50 -16 -50 -5 0 -9 18 -9 40 0 47 16 53 25 10z m120
-22 c3 -13 11 -33 17 -46 9 -17 9 -25 -1 -35 -15 -15 -33 9 -25 36 3 9 1 17
-5 17 -6 0 -11 -16 -11 -36 0 -51 -24 -39 -28 14 -2 33 0 42 12 42 9 0 16 7
16 15 0 23 18 18 25 -7z m-165 -55 c0 -81 -16 -75 -26 10 -6 49 -4 57 10 57
13 0 16 -12 16 -67z m-230 -23 c0 -12 -39 -92 -49 -100 -3 -3 -6 -9 -6 -15 -1
-17 -28 -65 -37 -65 -4 0 -8 -9 -8 -20 0 -11 -4 -20 -10 -20 -5 0 -10 -7 -10
-15 0 -8 -4 -15 -10 -15 -15 0 -12 23 5 46 8 10 15 27 15 37 0 9 5 17 10 17 6
0 10 9 10 20 0 11 5 20 10 20 6 0 10 14 10 30 0 17 5 30 10 30 6 0 10 7 10 15
0 20 21 44 38 45 6 0 12 -5 12 -10z m296 -35 c7 -28 0 -55 -16 -55 -5 0 -10
18 -10 40 0 44 16 54 26 15z m137 -21 c-3 -8 -9 -14 -14 -14 -14 0 -22 27 -14
48 6 16 7 16 20 -1 8 -11 11 -25 8 -33z m-43 -54 c0 -59 -15 -82 -24 -37 -17
85 -16 97 11 97 9 0 13 -17 13 -60z m-140 -57 c0 -122 -18 -115 -27 10 -5 77
-4 87 11 87 14 0 16 -14 16 -97z m200 42 c0 -18 -4 -23 -15 -19 -8 4 -15 15
-15 25 0 10 7 19 15 19 9 0 15 -9 15 -25z m2410 12 c0 -9 12 -11 40 -9 30 3
40 1 40 -11 0 -10 8 -13 25 -9 16 3 27 -1 31 -11 3 -9 12 -13 20 -10 7 3 16
-1 19 -9 4 -10 15 -13 29 -11 13 3 27 0 30 -6 4 -6 18 -11 32 -11 13 0 24 -4
24 -10 0 -5 8 -10 18 -10 10 0 24 -9 32 -20 8 -11 20 -20 27 -20 17 0 183
-166 183 -183 0 -7 9 -19 20 -27 11 -8 20 -21 20 -30 0 -9 9 -22 20 -30 11 -8
20 -22 20 -32 0 -10 5 -18 10 -18 6 0 10 -9 10 -20 0 -11 5 -20 10 -20 6 0 10
-13 10 -30 0 -16 3 -30 8 -30 12 0 32 -51 32 -81 0 -15 5 -31 10 -34 15 -9 13
-85 -3 -85 -8 0 -22 38 -37 103 -15 63 -39 128 -62 171 -21 38 -38 71 -38 73
0 10 -111 142 -147 175 -74 66 -229 155 -308 176 -178 49 -354 57 -512 24 -95
-20 -103 -19 -103 6 0 10 8 13 24 10 16 -3 27 0 31 9 4 11 18 14 50 11 29 -2
46 1 50 9 7 19 335 19 335 0z m-502 -64 c2 -8 -6 -13 -22 -13 -17 0 -26 5 -26
16 0 19 41 16 48 -3z m-59 -15 c0 -7 -41 -33 -91 -58 -163 -80 -309 -207 -407
-354 -47 -69 -131 -235 -131 -258 0 -10 -7 -18 -15 -18 -9 0 -15 9 -15 25 0
14 5 25 10 25 6 0 10 9 10 20 0 11 5 20 10 20 6 0 10 14 10 30 0 17 5 30 10
30 6 0 10 9 10 20 0 11 5 20 10 20 6 0 10 6 10 13 0 8 9 22 20 32 11 10 20 24
20 31 0 8 9 19 20 26 11 7 20 19 20 26 0 8 13 26 29 41 16 15 30 35 32 45 2
11 13 24 23 30 11 6 55 46 97 89 43 42 85 77 94 77 8 0 15 5 15 10 0 6 9 10
20 10 11 0 20 5 20 10 0 6 9 10 20 10 11 0 20 5 20 10 0 6 8 10 18 10 10 0 24
9 32 20 16 23 81 29 79 8z m-1828 -31 c7 -28 3 -37 -18 -37 -8 0 -13 13 -13
36 0 41 20 43 31 1z m-61 -66 c0 -138 -26 -121 -31 19 -2 64 -1 70 16 70 12 0
15 -17 15 -89z m-94 -66 c7 -140 -2 -305 -17 -305 -5 0 -9 97 -9 227 0 149 3
224 10 217 5 -5 13 -68 16 -139z m-456 84 c0 -17 -20 -49 -30 -49 -14 0 -12
28 3 45 14 17 27 19 27 4z m-36 -58 c6 -9 -106 -188 -128 -206 -7 -5 -18 -20
-25 -32 -6 -13 -16 -23 -21 -23 -17 0 -11 25 10 40 11 8 20 21 20 30 0 9 9 22
20 30 11 8 20 21 20 30 0 9 9 22 20 30 11 8 20 22 20 32 0 10 5 18 10 18 6 0
10 7 10 15 0 16 20 44 32 45 4 0 9 -4 12 -9z m666 -37 c0 -24 -5 -34 -15 -34
-10 0 -15 10 -15 33 0 19 3 37 6 40 13 13 24 -5 24 -39z m2325 6 c155 -40 260
-94 345 -180 77 -76 110 -132 153 -255 31 -88 31 -94 32 -275 0 -159 -3 -199
-23 -285 -42 -179 -136 -401 -202 -479 -14 -17 -44 -59 -65 -93 -32 -50 -44
-62 -60 -57 -16 4 -17 3 -5 -5 13 -9 8 -18 -30 -54 -25 -24 -61 -62 -80 -85
-51 -61 -134 -124 -154 -116 -14 6 -21 -5 -17 -28 0 -5 -11 -8 -25 -8 -14 0
-23 -4 -20 -8 3 -5 -11 -18 -32 -29 -20 -11 -36 -26 -34 -33 2 -8 -3 -10 -13
-7 -13 6 -79 -30 -95 -51 -11 -15 -192 -133 -197 -129 -2 3 7 63 21 134 31
160 62 340 71 415 6 57 7 58 124 175 172 173 249 290 313 476 28 82 32 104 32
207 0 102 -2 120 -23 160 -45 85 -103 120 -202 120 -107 0 -215 -96 -257 -228
-12 -37 -42 -173 -66 -302 -25 -129 -50 -257 -56 -285 -16 -79 -67 -342 -84
-430 -8 -44 -25 -125 -36 -180 -12 -55 -34 -170 -50 -255 -29 -157 -103 -502
-142 -662 -12 -48 -18 -91 -14 -95 4 -5 269 -9 589 -10 319 -2 584 -6 588 -10
4 -5 -8 -82 -27 -173 -55 -268 -66 -311 -78 -315 -19 -7 -2056 -10 -2056 -4 0
4 15 18 33 32 105 81 223 232 293 375 26 52 43 76 62 84 50 19 56 25 63 54 3
16 16 74 28 129 12 55 26 118 31 140 22 96 53 249 105 520 112 577 236 1202
261 1309 44 189 98 327 171 432 139 202 315 314 578 368 42 8 212 5 250 -4z
m-2565 -320 c0 -96 -2 -110 -17 -110 -14 0 -15 11 -10 100 6 93 11 120 23 120
2 0 4 -49 4 -110z m850 80 c0 -11 5 -20 10 -20 6 0 10 -8 10 -17 0 -10 7 -31
15 -47 8 -15 15 -35 15 -42 0 -20 -20 -17 -26 4 -3 9 -10 25 -15 35 -5 10 -7
22 -4 27 4 6 1 10 -4 10 -6 0 -11 9 -11 20 0 11 -4 20 -10 20 -5 0 -10 7 -10
15 0 8 7 15 15 15 8 0 15 -9 15 -20z m-1487 -51 c-10 -17 -27 -39 -38 -48 -11
-9 -25 -26 -31 -36 -13 -24 -44 -32 -44 -13 0 7 9 20 20 28 11 8 20 20 20 28
0 7 7 20 15 28 8 9 15 12 15 8 0 -5 8 2 18 14 27 35 47 28 25 -9z m875 -41
c-4 -74 -28 -77 -28 -4 0 44 3 56 16 56 12 0 14 -10 12 -52z m-78 -138 c0 -82
-3 -100 -15 -100 -17 0 -17 3 -15 80 3 146 30 164 30 20z m-117 40 c-2 -55
-23 -61 -23 -6 0 34 4 46 13 43 7 -2 11 -18 10 -37z m877 20 c0 -11 5 -20 10
-20 6 0 10 -13 10 -30 0 -16 5 -30 10 -30 6 0 10 -16 10 -35 0 -44 -16 -46
-25 -3 -4 18 -16 52 -26 76 -18 42 -18 62 2 62 5 0 9 -9 9 -20z m-698 -32 c7
-19 -6 -61 -20 -66 -8 -2 -12 9 -12 37 0 28 4 41 14 41 8 0 16 -6 18 -12z
m3548 3 c0 -17 -26 -29 -81 -35 -111 -14 -207 -54 -298 -126 -29 -23 -55 -40
-57 -37 -3 2 -7 28 -11 57 -5 47 -4 52 13 48 12 -2 20 -13 22 -31 l3 -28 29
31 c15 16 34 30 42 30 7 0 20 9 28 20 8 11 22 20 32 20 10 0 18 5 18 10 0 6
14 10 30 10 17 0 30 5 30 10 0 6 20 10 44 10 25 0 48 5 51 10 8 12 105 13 105
1z m-3790 -56 c0 -44 -3 -55 -16 -55 -14 0 -16 8 -10 46 11 82 26 87 26 9z
m-776 21 c-3 -9 -10 -16 -15 -16 -5 0 -9 -6 -9 -13 0 -14 -136 -147 -151 -147
-17 0 -9 11 41 60 28 27 54 60 60 74 5 14 16 26 25 26 8 0 15 5 15 10 0 6 7
10 15 10 8 0 15 5 15 12 0 6 2 9 5 6 3 -3 3 -13 -1 -22z m4756 14 c0 -5 9 -10
20 -10 11 0 20 -4 20 -10 0 -5 8 -10 18 -10 10 0 24 -9 32 -20 8 -11 20 -20
27 -20 16 0 103 -85 103 -100 0 -18 -26 -10 -50 15 -59 63 -178 124 -272 140
-62 10 -43 25 32 25 40 0 70 -4 70 -10z m3240 -40 c0 -32 -26 -43 -36 -15 -5
13 -69 15 -488 15 -264 0 -486 -4 -491 -8 -6 -4 -15 -25 -20 -46 -6 -22 -16
-41 -22 -44 -19 -6 -17 58 3 96 l15 32 520 0 519 0 0 -30z m-7175 -40 c8 -13
-4 -50 -16 -50 -5 0 -9 14 -9 30 0 30 13 40 25 20z m1373 -12 c-2 -13 -7 -23
-13 -23 -5 0 -11 10 -13 23 -2 15 2 22 13 22 11 0 15 -7 13 -22z m-1200 -23
c-2 -14 -7 -26 -13 -26 -5 0 -11 12 -13 26 -2 18 1 25 13 25 12 0 15 -7 13
-25z m6982 -20 c0 -24 -5 -35 -15 -35 -15 0 -22 50 -8 63 15 15 23 5 23 -28z
m-17307 13 c15 -7 27 -16 27 -20 0 -5 9 -8 20 -8 11 0 20 -4 20 -10 0 -5 8
-10 18 -10 10 0 24 -9 32 -20 8 -11 22 -20 32 -20 10 0 18 -7 18 -16 0 -8 18
-33 40 -54 22 -21 40 -45 40 -54 0 -8 9 -18 20 -21 11 -3 20 -15 20 -26 0 -10
5 -19 10 -19 6 0 10 -9 10 -20 0 -11 5 -20 10 -20 6 0 10 -9 10 -20 0 -11 5
-20 10 -20 6 0 10 -9 10 -20 0 -11 5 -20 10 -20 6 0 10 -9 10 -20 0 -11 5 -20
10 -20 6 0 10 -9 10 -20 0 -11 5 -20 10 -20 6 0 10 -9 10 -20 0 -11 5 -20 10
-20 6 0 10 -9 10 -20 0 -11 5 -20 10 -20 6 0 10 -7 10 -15 0 -8 -7 -15 -15
-15 -8 0 -15 6 -15 14 0 8 -3 16 -7 18 -8 3 -77 130 -141 258 -20 41 -45 84
-54 94 -10 11 -18 23 -18 26 0 27 -130 116 -204 141 -46 15 -100 18 -371 20
-358 3 -337 8 -350 -76 -3 -25 -11 -45 -17 -45 -11 0 -5 121 7 140 10 16 705
13 738 -2z m2033 -2 c16 -17 19 -46 4 -46 -6 0 -13 7 -16 15 -5 13 -71 15
-504 15 -433 0 -499 -2 -504 -15 -7 -20 -26 -19 -26 0 0 44 -2 44 528 45 423
0 506 -2 518 -14z m9074 -16 l0 -30 -80 0 c-67 0 -80 3 -80 16 0 14 9 16 64
12 57 -5 65 -3 69 13 8 30 27 22 27 -11z m-1029 -68 c-6 -2 -11 -22 -11 -44 0
-27 -4 -38 -12 -35 -14 4 -14 26 0 97 13 70 26 84 30 30 2 -25 -1 -46 -7 -48z
m1309 63 c0 -20 -45 -65 -65 -65 -19 0 -20 19 0 26 21 8 19 21 -5 29 -35 11
-21 25 25 25 34 0 45 -4 45 -15z m118 -7 c-5 -32 -28 -35 -28 -4 0 17 5 26 16
26 10 0 14 -7 12 -22z m-688 -3 c0 -12 -13 -15 -55 -15 -30 0 -55 4 -55 9 0
14 19 19 68 20 31 1 42 -3 42 -14z m-550 -45 c0 -38 -4 -50 -15 -50 -16 0 -21
52 -9 84 12 32 24 15 24 -34z m1010 35 c-7 -8 -21 -15 -31 -15 -11 0 -19 7
-19 15 0 10 10 15 31 15 27 0 30 -2 19 -15z m-580 -10 c0 -10 -11 -15 -35 -15
-24 0 -35 5 -35 15 0 10 11 15 35 15 24 0 35 -5 35 -15z m-560 -9 c0 -22 -11
-46 -21 -46 -5 0 -9 14 -9 30 0 20 5 30 15 30 8 0 15 -6 15 -14z m174 6 c7
-12 -5 -52 -15 -52 -13 0 -22 27 -15 45 6 16 22 20 30 7z m906 -1 c0 -12 -29
-23 -41 -15 -18 10 -9 24 16 24 14 0 25 -4 25 -9z m5054 1 c7 -12 -5 -52 -15
-52 -5 0 -9 14 -9 30 0 28 13 40 24 22z m-5676 -20 c2 -7 -6 -12 -17 -12 -21
0 -27 11 -14 24 9 9 26 2 31 -12z m-9600 -24 c-4 -46 -28 -49 -28 -4 0 26 4
36 16 36 11 0 14 -8 12 -32z m1032 -8 c0 -40 -15 -54 -27 -24 -5 15 11 64 22
64 3 0 5 -18 5 -40z m9120 31 c0 -10 -40 -22 -52 -15 -18 11 -6 24 22 24 17 0
30 -4 30 -9z m338 -18 c-4 -39 -28 -42 -28 -4 0 21 5 31 16 31 11 0 14 -8 12
-27z m2848 13 c17 -17 18 -36 3 -36 -12 0 -38 29 -39 43 0 12 20 8 36 -7z
m2954 -16 c0 -16 -5 -30 -10 -30 -14 0 -24 26 -16 45 10 26 26 16 26 -15z
m-6750 5 c0 -8 -7 -15 -15 -15 -8 0 -15 7 -15 15 0 8 7 15 15 15 8 0 15 -7 15
-15z m757 -19 c-9 -9 -20 -16 -26 -16 -17 0 -13 21 7 36 23 17 39 0 19 -20z
m-233 14 c-18 -18 -135 -43 -146 -32 -18 18 3 34 38 30 19 -2 34 0 34 4 0 4
19 8 42 8 29 0 39 -3 32 -10z m-1736 -17 c3 -10 -14 -13 -62 -13 -61 0 -92 12
-64 24 25 10 121 1 126 -11z m210 11 c42 -12 22 -24 -38 -24 -55 0 -70 6 -53
23 8 9 60 9 91 1z m947 -14 c-3 -5 -10 -10 -16 -10 -5 0 -9 5 -9 10 0 6 7 10
16 10 8 0 12 -4 9 -10z m3512 -6 c67 -22 104 -53 138 -115 27 -48 30 -63 30
-139 0 -76 -4 -93 -33 -152 -36 -74 -87 -124 -167 -166 -41 -21 -67 -27 -147
-30 -87 -4 -102 -2 -151 21 -54 25 -87 59 -123 127 -14 26 -18 57 -18 120 0
73 4 92 27 138 51 98 131 166 230 197 58 19 157 18 214 -1z m-4319 -11 c2 -9
-9 -13 -37 -13 -30 0 -41 4 -41 16 0 11 9 14 37 12 20 -2 38 -9 41 -15z m614
-38 c-2 -19 -8 -35 -13 -35 -15 0 -21 47 -9 70 16 30 27 11 22 -35z m150 40
c0 -5 -5 -11 -11 -13 -6 -2 -11 4 -11 13 0 9 5 15 11 13 6 -2 11 -8 11 -13z
m461 0 c-2 -11 -67 -30 -158 -45 -96 -17 -99 -17 -103 4 -4 17 1 18 37 13 32
-4 41 -2 41 10 0 12 10 14 45 11 30 -2 46 1 50 10 6 16 91 13 88 -3z m-783 -9
c0 -22 -11 -46 -21 -46 -5 0 -9 14 -9 30 0 20 5 30 15 30 8 0 15 -6 15 -14z
m1123 7 c-7 -2 -13 -9 -13 -15 0 -15 -27 -38 -44 -38 -14 0 -107 -91 -115
-112 -5 -15 -71 -81 -76 -76 -7 7 50 88 62 88 6 0 14 9 18 19 3 11 23 34 43
51 20 17 52 45 69 61 18 16 40 29 50 28 11 0 13 -3 6 -6z m3133 -7 c18 -18 19
-66 1 -66 -11 0 -37 51 -37 73 0 12 21 8 36 -7z m-4606 -11 c0 -9 -9 -15 -25
-15 -16 0 -25 6 -25 15 0 9 9 15 25 15 16 0 25 -6 25 -15z m635 5 c3 -5 1 -10
-4 -10 -6 0 -11 -7 -11 -15 0 -8 -9 -15 -20 -15 -11 0 -20 -4 -20 -10 0 -5 -9
-10 -20 -10 -32 0 -23 24 18 48 42 25 48 26 57 12z m5848 -38 c-3 -12 -9 -22
-14 -22 -11 0 -12 54 -2 64 11 11 23 -19 16 -42z m760 18 c-2 -24 -80 -405
-158 -770 -116 -544 -146 -693 -143 -708 3 -16 68 46 621 591 l109 107 304 0
c166 0 305 -4 308 -9 3 -4 -77 -86 -177 -182 -100 -95 -284 -272 -409 -394
-221 -213 -245 -243 -219 -271 4 -5 33 -56 63 -114 30 -58 86 -163 125 -235
39 -71 100 -186 137 -255 36 -69 81 -152 99 -185 73 -131 137 -253 137 -258 0
-4 -111 -5 -247 -4 -248 2 -248 2 -303 29 -35 17 -62 39 -73 59 -9 17 -38 70
-63 117 -26 48 -79 148 -119 222 -40 74 -93 174 -118 221 -26 47 -53 92 -62
99 -13 11 -33 -4 -135 -105 -72 -71 -124 -131 -129 -149 -6 -17 -22 -89 -36
-161 -47 -239 -62 -312 -68 -321 -3 -5 -120 -11 -261 -13 -250 -3 -256 -3
-256 17 0 20 84 444 140 707 28 128 77 375 101 500 10 53 14 74 49 230 23 102
30 137 49 235 6 30 44 222 86 425 42 204 86 417 97 475 12 58 25 111 31 118 7
9 68 12 266 10 l256 -3 -2 -25z m-5541 15 c9 -10 -7 -68 -20 -73 -8 -2 -12 9
-12 37 0 38 14 53 32 36z m-12220 -67 c-6 -24 -14 -58 -17 -75 -10 -50 -25
-50 -25 1 0 25 5 48 10 51 6 3 10 21 10 39 0 37 9 51 23 37 6 -6 6 -25 -1 -53z
m2753 4 c-6 -16 -7 -16 -16 0 -7 12 -6 25 3 40 l13 23 3 -23 c2 -13 1 -31 -3
-40z m7845 48 c0 -6 -7 -13 -15 -16 -20 -8 -48 3 -40 16 8 13 55 13 55 0z
m-8874 -32 c-4 -18 -10 -53 -14 -77 -10 -62 -32 -66 -32 -7 0 31 4 46 13 46 9
0 12 11 9 35 -3 28 -1 35 13 35 14 0 16 -6 11 -32z m8925 22 c28 -16 23 -30
-10 -30 -31 0 -47 13 -36 30 8 13 21 13 46 0z m351 -35 c2 -25 2 -45 1 -45 -1
0 -8 -2 -16 -5 -10 -5 -14 4 -15 36 -1 22 1 45 4 50 12 20 22 6 26 -36z m7018
20 c0 -16 -6 -25 -15 -25 -15 0 -21 31 -8 43 13 14 23 6 23 -18z m-6660 6 c0
-16 -15 -21 -106 -37 -61 -11 -90 -12 -97 -5 -19 19 8 34 52 29 29 -2 41 0 41
9 0 9 17 13 55 13 30 0 55 -4 55 -9z m-560 -31 c0 -28 -2 -30 -40 -30 -28 0
-40 4 -40 14 0 9 -7 12 -20 9 -14 -4 -20 0 -20 11 0 19 32 21 63 5 17 -10 23
-9 32 5 15 25 25 19 25 -14z m50 -7 c0 -32 -43 -63 -87 -63 -32 0 -43 4 -43
15 0 11 12 15 50 15 46 0 50 2 50 23 0 13 3 27 6 30 10 10 24 -2 24 -20z m288
-5 c-6 -17 -79 -29 -95 -16 -22 18 -4 28 48 28 36 0 49 -4 47 -12z m4022 -29
c0 -16 -5 -29 -10 -29 -13 0 -29 41 -23 57 9 22 33 1 33 -28z m-14460 -4 c61
-31 81 -60 199 -295 52 -102 124 -241 161 -310 37 -69 93 -179 125 -245 32
-66 72 -142 88 -170 16 -27 63 -115 103 -195 118 -233 218 -417 229 -421 13
-5 35 93 146 661 22 113 46 232 54 265 8 33 34 166 60 295 38 195 74 365 91
428 3 9 65 12 270 12 l266 0 -5 -22 c-7 -33 -65 -314 -77 -373 -5 -27 -26
-124 -46 -215 -20 -91 -44 -210 -54 -265 -10 -55 -28 -147 -40 -205 -12 -58
-24 -116 -27 -130 -3 -14 -22 -97 -42 -185 -21 -88 -44 -194 -51 -235 -7 -41
-16 -88 -20 -105 -4 -16 -13 -64 -20 -105 -6 -41 -16 -92 -21 -112 -11 -45
-25 -101 -40 -160 -6 -24 -15 -57 -20 -74 -5 -17 -9 -43 -9 -58 0 -25 -2 -27
-17 -15 -15 13 -16 10 -10 -37 4 -38 2 -57 -10 -73 -8 -12 -12 -28 -9 -36 3
-9 0 -15 -8 -15 -9 0 -17 -16 -21 -42 -14 -93 -15 -96 -45 -103 -16 -4 -38 -4
-49 0 -11 3 -22 2 -25 -3 -2 -4 -31 -5 -63 -1 -32 4 -82 8 -112 8 -100 2 -220
79 -242 156 -3 11 -13 19 -23 18 -14 -1 -16 4 -12 22 4 16 -2 36 -19 61 -14
20 -25 45 -25 55 0 10 -4 21 -10 24 -5 3 -10 15 -10 25 0 10 -6 25 -14 33 -8
8 -22 31 -30 52 -22 52 -108 195 -118 195 -4 0 -8 7 -8 16 0 11 -5 14 -16 10
-11 -4 -14 -1 -10 12 7 21 -30 85 -45 76 -6 -3 -13 4 -16 17 -4 13 -19 48 -34
77 -16 30 -25 60 -22 69 4 10 2 14 -5 9 -6 -3 -13 -2 -17 4 -3 5 -1 10 6 10
10 0 10 3 1 12 -7 7 -12 19 -12 29 0 14 -71 133 -100 166 -5 7 -10 19 -10 28
0 8 -4 15 -9 15 -5 0 -15 16 -21 35 -7 20 -25 50 -40 67 -16 17 -50 74 -75
127 -26 53 -61 125 -78 160 -28 56 -50 81 -61 70 -4 -4 -28 -120 -57 -269 -5
-30 -14 -68 -19 -85 -5 -16 -16 -61 -24 -100 -9 -38 -30 -131 -47 -205 -17
-74 -40 -180 -50 -235 -51 -276 -65 -343 -80 -383 -5 -13 -9 -36 -9 -53 0 -20
-4 -28 -11 -23 -8 5 -10 -1 -7 -20 3 -16 0 -51 -7 -79 -7 -29 -19 -80 -26
-114 -7 -34 -15 -60 -18 -58 -2 3 -9 -3 -16 -12 -10 -14 -38 -16 -223 -14
-178 2 -216 0 -234 -13 -12 -9 -26 -16 -30 -16 -19 0 -19 -1 154 840 28 135
54 263 58 285 4 22 22 105 40 185 18 80 34 156 37 170 71 368 74 384 122 610
22 102 52 246 66 320 14 74 28 145 31 158 4 22 5 22 215 22 204 0 211 -1 259
-25z m11501 12 c9 -12 -46 -250 -59 -255 -8 -2 -12 14 -12 52 0 31 5 56 10 56
6 0 10 18 10 40 0 22 5 40 10 40 6 0 10 18 10 40 0 37 14 50 31 27z m4770 -40
c-8 -8 -11 -4 -11 14 0 33 14 47 18 19 2 -12 -1 -27 -7 -33z m-14221 14 c0
-31 -16 -49 -30 -35 -13 13 0 64 16 64 9 0 14 -11 14 -29z m15250 -1 c0 -11
-7 -20 -15 -20 -15 0 -21 21 -8 33 12 13 23 7 23 -13z m-8000 -15 c0 -10 -16
-15 -62 -17 -59 -3 -63 -5 -61 -25 2 -13 0 -23 -3 -23 -14 0 -34 31 -34 54 0
26 1 26 80 26 63 0 80 -3 80 -15z m655 5 c3 -5 -4 -12 -17 -14 -49 -10 -478
-27 -523 -21 -83 13 -33 26 84 23 84 -2 111 0 111 10 0 15 335 18 345 2z
m4525 -91 c0 -52 -2 -60 -17 -57 -13 2 -19 15 -21 47 -4 52 2 71 23 71 12 0
15 -13 15 -61z m1785 51 c8 -12 -5 -60 -16 -60 -5 0 -9 16 -9 35 0 33 12 46
25 25z m-14235 -61 c0 -19 -5 -29 -14 -29 -22 0 -27 15 -16 45 12 33 30 24 30
-16z m15250 6 c0 -24 -5 -35 -15 -35 -15 0 -20 26 -9 54 11 28 24 17 24 -19z
m-18015 15 c8 -12 -5 -60 -16 -60 -5 0 -9 16 -9 35 0 33 12 46 25 25z m1723
-17 c-4 -39 -28 -42 -28 -4 0 21 5 31 16 31 11 0 14 -8 12 -27z m8251 -24 l34
-40 -24 -17 c-29 -20 -41 -21 -46 -4 -3 7 4 12 16 12 28 0 26 7 -9 40 -16 15
-30 33 -30 39 0 22 26 9 59 -30z m1811 13 c0 -5 -9 -18 -20 -30 -11 -12 -20
-24 -20 -27 0 -3 47 -5 105 -5 58 0 105 -4 105 -9 0 -14 -55 -21 -157 -21
-112 0 -125 12 -72 66 31 32 59 44 59 26z m5200 -25 c0 -13 -7 -32 -15 -43
-13 -18 -14 -16 -15 24 0 31 4 42 15 42 9 0 15 -9 15 -23z m-15282 -49 c-4
-46 -28 -49 -28 -4 0 26 4 36 16 36 11 0 14 -8 12 -32z m10392 16 c0 -17 -23
-44 -38 -44 -6 0 -12 7 -16 15 -3 8 -15 15 -26 15 -11 0 -20 7 -20 15 0 11 12
15 50 15 39 0 50 -4 50 -16z m-9350 -19 c0 -16 -6 -25 -15 -25 -9 0 -15 9 -15
25 0 16 6 25 15 25 9 0 15 -9 15 -25z m15250 -10 c0 -24 -5 -35 -15 -35 -15 0
-22 50 -8 63 15 15 23 5 23 -28z m-18015 15 c8 -12 -5 -60 -16 -60 -5 0 -9 16
-9 35 0 33 12 46 25 25z m9923 -22 c-7 -20 -48 -23 -48 -4 0 11 9 16 26 16 16
0 24 -5 22 -12z m5292 -29 c0 -33 -3 -40 -17 -37 -12 3 -17 12 -15 28 6 63 32
70 32 9z m-4752 14 c3 -10 -13 -13 -57 -13 -34 0 -61 4 -61 9 0 21 111 24 118
4z m496 -3 c7 -7 -11 -10 -57 -10 -63 0 -77 6 -59 24 9 11 103 -1 116 -14z
m1094 2 c2 -7 -3 -12 -12 -12 -9 0 -16 7 -16 16 0 17 22 14 28 -4z m-2190 -4
c-3 -7 -13 -13 -23 -13 -10 0 -20 6 -22 13 -3 7 5 12 22 12 17 0 25 -5 23 -12z
m7117 2 c8 -12 -5 -60 -16 -60 -5 0 -9 16 -9 35 0 33 12 46 25 25z m-6710 -15
c0 -5 -21 -11 -47 -13 -46 -3 -67 11 -30 21 28 8 77 3 77 -8z m839 9 c31 -12
16 -24 -29 -24 -33 0 -45 4 -45 15 0 16 43 21 74 9z m904 -12 c2 -7 -6 -12
-17 -12 -21 0 -27 11 -14 24 9 9 26 2 31 -12z m-2210 -4 c-3 -7 -13 -13 -23
-13 -10 0 -20 6 -22 13 -3 7 5 12 22 12 17 0 25 -5 23 -12z m2396 4 c8 -13 -9
-65 -22 -70 -8 -2 -12 10 -12 37 0 29 4 41 14 41 8 0 17 -4 20 -8z m-2066 -19
c2 -9 -11 -13 -47 -13 -48 0 -61 7 -44 24 12 11 86 2 91 -11z m1126 11 c31
-12 16 -24 -29 -24 -42 0 -54 7 -38 23 8 9 46 9 67 1z m694 -12 c2 -7 -6 -12
-17 -12 -21 0 -27 11 -14 24 9 9 26 2 31 -12z m-11968 -4 c0 -25 -12 -58 -21
-58 -5 0 -9 16 -9 35 0 24 5 35 15 35 8 0 15 -6 15 -12z m1718 -20 c-2 -18 -7
-33 -13 -33 -5 0 -11 15 -13 33 -3 24 1 32 13 32 12 0 16 -8 13 -32z m8052 22
c0 -6 -7 -13 -15 -17 -13 -5 -13 -8 5 -20 30 -21 15 -33 -41 -33 -48 0 -49 1
-49 30 0 23 4 30 20 30 11 0 20 5 20 10 0 6 14 10 30 10 17 0 30 -5 30 -10z
m8240 -30 c0 -29 -4 -40 -15 -40 -10 0 -15 10 -15 33 0 19 3 37 7 40 15 16 23
5 23 -33z m-15250 5 c0 -16 -6 -25 -15 -25 -9 0 -15 9 -15 25 0 16 6 25 15 25
9 0 15 -9 15 -25z m7250 10 c0 -11 -12 -15 -44 -15 -76 0 -69 28 7 29 27 1 37
-3 37 -14z m1444 9 c35 -13 13 -24 -49 -24 -51 0 -65 3 -65 15 0 11 12 15 49
15 27 0 56 -3 65 -6z m456 -9 c0 -11 -11 -15 -39 -15 -69 0 -62 28 7 29 22 1
32 -4 32 -14z m-140 -20 c0 -6 -47 -11 -115 -13 -95 -2 -115 0 -115 12 0 8 4
16 10 18 22 7 220 -8 220 -17z m-1880 0 c0 -11 -12 -15 -45 -15 -42 0 -54 7
-38 23 3 4 24 7 45 7 27 0 38 -4 38 -15z m5320 -10 c0 -14 -4 -25 -10 -25 -5
0 -10 -9 -10 -20 0 -11 -4 -20 -10 -20 -5 0 -10 -7 -10 -15 0 -13 25 -15 165
-15 132 0 165 -3 165 -14 0 -10 12 -12 50 -8 33 3 50 1 50 -7 0 -6 9 -11 20
-11 11 0 20 -4 20 -10 0 -5 9 -10 20 -10 11 0 20 -4 20 -10 0 -5 7 -10 15 -10
8 0 15 5 15 10 0 6 9 10 20 10 11 0 20 5 20 10 0 6 9 10 20 10 11 0 20 5 20
10 0 6 9 10 20 10 11 0 20 5 20 11 0 7 15 10 40 7 29 -2 40 0 40 10 0 9 14 12
50 10 28 -2 50 -7 49 -13 -1 -5 -40 -20 -88 -33 -47 -12 -118 -38 -157 -56
l-70 -33 -35 18 c-89 48 -152 59 -344 59 -132 0 -186 3 -191 12 -4 6 -2 14 4
16 7 2 12 12 12 23 0 10 5 19 10 19 6 0 10 9 10 20 0 11 5 20 10 20 6 0 10 11
10 25 0 16 6 25 15 25 9 0 15 -9 15 -25z m1770 -9 c0 -13 -3 -31 -6 -40 -11
-29 -24 -16 -24 24 0 29 4 40 15 40 9 0 15 -9 15 -24z m-15690 -16 c0 -11 5
-20 10 -20 6 0 10 -6 10 -13 0 -18 28 -75 41 -82 5 -4 9 -15 9 -26 0 -31 -24
-17 -35 19 -5 18 -13 32 -17 32 -4 0 -8 9 -8 20 0 11 -4 20 -10 20 -5 0 -10 9
-10 20 0 11 -4 20 -10 20 -5 0 -10 7 -10 15 0 8 7 15 15 15 8 0 15 -9 15 -20z
m412 -5 c9 -10 -7 -68 -20 -73 -8 -2 -12 9 -12 37 0 38 14 53 32 36z m10490
-35 c-8 -75 21 -70 -401 -70 l-379 0 -6 -25 c-4 -14 -11 -25 -16 -25 -15 0
-12 52 4 73 12 16 43 17 390 17 l376 0 0 36 c0 28 3 35 18 32 13 -3 16 -12 14
-38z m-12212 1 c0 -26 -10 -51 -21 -51 -5 0 -9 16 -9 35 0 24 5 35 15 35 8 0
15 -9 15 -19z m2758 -17 c-5 -28 -28 -29 -28 -1 0 13 3 27 7 31 10 10 25 -10
21 -30z m15252 2 c0 -38 -16 -57 -26 -32 -8 21 3 66 16 66 6 0 10 -15 10 -34z
m-14295 11 c4 -8 21 -11 50 -9 32 3 46 0 50 -11 4 -9 15 -12 31 -9 14 2 24 0
24 -7 0 -6 14 -11 30 -11 17 0 30 -4 30 -10 0 -5 9 -10 20 -10 11 0 20 -4 20
-10 0 -5 14 -10 30 -10 17 0 30 5 30 10 0 6 14 10 30 10 17 0 30 5 30 11 0 7
17 10 45 7 29 -2 46 1 50 9 3 10 80 13 341 13 309 0 338 -1 350 -17 16 -21 18
-55 5 -69 -5 -5 -11 -25 -13 -44 -2 -19 -7 -33 -13 -30 -5 3 -8 19 -6 35 2 17
4 41 5 55 l1 25 -355 0 c-306 0 -360 -2 -395 -16 -111 -46 -94 -45 -186 -6
-129 54 -220 71 -389 70 -206 0 -359 -36 -540 -127 -71 -36 -202 -116 -220
-136 -29 -31 -93 -80 -99 -76 -12 8 2 69 17 74 6 2 12 -2 12 -9 0 -6 8 -2 19
9 10 12 24 22 31 22 6 0 25 14 40 30 15 17 35 30 44 30 9 0 16 5 16 10 0 6 8
10 18 10 10 0 24 9 32 20 8 11 21 20 30 20 9 0 22 9 30 20 8 11 22 20 32 20
10 0 18 5 18 10 0 6 14 10 30 10 17 0 30 3 30 8 0 13 60 34 85 30 15 -3 26 0
30 10 3 9 14 13 30 10 15 -3 26 0 30 9 4 11 18 14 50 11 29 -2 46 1 50 9 3 10
49 13 185 13 136 0 182 -3 185 -13z m2100 0 c4 -8 21 -11 50 -9 28 3 45 0 45
-7 0 -6 18 -11 40 -11 22 0 40 -4 40 -10 0 -5 9 -10 20 -10 11 0 20 -6 20 -13
0 -9 10 -12 30 -9 18 3 30 0 30 -7 0 -6 14 -11 30 -11 17 0 30 -4 30 -10 0 -5
8 -10 18 -10 10 0 24 -9 32 -20 8 -11 22 -20 32 -20 10 0 18 -4 18 -10 0 -5 6
-10 13 -10 8 0 22 -9 32 -20 10 -11 22 -20 27 -20 5 0 31 -22 58 -50 27 -27
54 -50 60 -50 7 0 25 14 40 30 15 17 34 30 42 30 7 0 20 9 28 20 8 11 21 20
30 20 8 0 21 9 28 20 7 11 18 20 26 20 7 0 21 9 31 20 10 11 24 20 32 20 7 0
13 5 13 10 0 6 9 10 20 10 11 0 20 5 20 11 0 7 12 10 30 7 20 -3 30 0 30 9 0
7 9 13 20 13 11 0 20 5 20 11 0 7 15 10 40 7 29 -2 40 0 40 10 0 10 11 13 40
10 29 -2 40 0 40 10 0 10 13 13 47 11 30 -2 48 1 51 9 6 18 352 16 352 -2 0
-9 16 -11 60 -8 46 3 60 1 60 -9 0 -11 12 -13 45 -11 32 3 46 0 50 -11 4 -9
15 -12 29 -10 13 3 27 0 30 -6 4 -6 15 -11 26 -11 20 0 103 -40 108 -52 2 -5
12 -8 23 -8 10 0 19 -4 19 -10 0 -5 8 -10 18 -10 10 0 24 -9 32 -20 8 -11 22
-20 32 -20 10 0 18 -4 18 -10 0 -5 7 -10 15 -10 9 0 51 -36 95 -80 44 -44 82
-80 85 -80 3 0 33 27 65 60 32 33 65 60 72 60 8 0 20 9 28 20 8 11 21 20 30
20 9 0 22 9 30 20 8 11 21 20 30 20 9 0 22 9 30 20 8 11 22 20 32 20 10 0 18
5 18 10 0 6 14 10 30 10 17 0 30 3 30 8 0 11 59 35 74 29 8 -3 17 1 20 10 4
10 15 14 31 11 15 -3 26 0 30 10 3 9 14 13 30 10 15 -3 26 0 30 9 4 11 18 14
50 11 31 -2 45 1 45 9 0 19 368 19 375 0 4 -8 21 -11 50 -9 28 3 45 0 45 -7 0
-6 14 -11 30 -11 17 0 30 -4 30 -10 0 -5 9 -10 20 -10 11 0 20 -4 20 -10 0 -5
9 -10 20 -10 11 0 20 -4 20 -10 0 -5 18 -10 40 -10 23 0 40 5 40 11 0 7 10 9
24 7 16 -3 27 0 31 9 4 11 18 14 50 11 30 -2 46 1 50 10 3 10 154 12 737 10
684 -3 733 -4 736 -20 3 -16 -44 -18 -760 -20 l-763 -3 -66 -27 c-36 -16 -72
-28 -81 -28 -8 0 -44 13 -79 29 -94 42 -168 61 -280 71 -169 14 -325 -7 -524
-73 -80 -26 -221 -98 -261 -132 -7 -5 -53 -39 -102 -75 -50 -36 -91 -71 -91
-77 -2 -28 -40 -10 -88 40 -96 103 -274 209 -438 260 -246 77 -552 77 -797 1
-129 -40 -303 -130 -364 -188 -46 -44 -76 -66 -90 -66 -9 0 -38 19 -64 43 -57
52 -88 77 -96 77 -3 0 -24 13 -47 29 -54 37 -202 95 -325 129 -90 24 -112 26
-312 26 -229 1 -288 -7 -438 -59 -84 -29 -201 -84 -226 -107 -11 -10 -24 -18
-30 -18 -5 0 -20 -10 -33 -22 -17 -16 -26 -19 -34 -11 -14 14 10 43 35 43 9 0
16 8 16 20 0 16 7 20 30 20 17 0 30 5 30 11 0 6 9 9 19 6 13 -3 23 3 32 19 7
13 21 24 31 24 10 0 18 5 18 10 0 6 9 10 20 10 11 0 36 9 56 21 21 11 45 18
55 16 10 -3 20 2 23 10 5 11 18 14 51 11 31 -2 46 1 50 10 4 10 19 13 50 10
31 -2 45 1 45 9 0 19 408 19 415 0z m10567 1 c3 -8 21 -11 51 -9 29 1 47 -2
47 -8 0 -6 14 -11 30 -11 17 0 30 -4 30 -10 0 -5 9 -10 20 -10 11 0 20 -6 20
-14 0 -9 7 -12 20 -9 13 4 20 0 20 -9 0 -11 7 -14 24 -11 19 4 35 -5 70 -41
25 -25 46 -48 46 -51 0 -14 -31 -1 -92 39 -132 85 -351 135 -530 121 -85 -6
-88 -6 -88 14 0 20 5 21 164 21 120 0 165 -3 168 -12z m598 -37 c0 -26 -10
-51 -21 -51 -5 0 -9 16 -9 35 0 24 5 35 15 35 8 0 15 -9 15 -19z m-15286 -98
c-16 -73 -21 -86 -35 -78 -12 8 -12 72 1 80 6 3 10 21 10 40 0 32 19 52 31 33
3 -5 0 -39 -7 -75z m-1718 23 c-3 -14 -11 -26 -16 -26 -11 0 -14 53 -3 64 13
12 26 -13 19 -38z m18014 4 c0 -29 -4 -40 -15 -40 -17 0 -20 32 -5 61 16 28
20 24 20 -21z m-15250 -11 c0 -24 -4 -30 -17 -27 -17 4 -19 22 -8 56 8 23 25
2 25 -29z m14216 -4 c8 -20 -4 -65 -16 -65 -6 0 -10 18 -10 40 0 40 15 54 26
25z m-15550 -19 c8 -8 14 -22 14 -30 0 -9 5 -16 10 -16 6 0 10 -9 10 -20 0
-11 5 -20 10 -20 6 0 10 -9 10 -20 0 -11 5 -20 10 -20 6 0 10 -7 10 -16 0 -31
-25 -6 -62 62 -46 84 -51 118 -12 80z m9824 -6 c0 -11 -7 -20 -15 -20 -15 0
-21 21 -8 33 12 13 23 7 23 -13z m8188 -2 c-2 -11 -11 -22 -20 -24 -21 -3 -22
0 -8 27 14 26 32 24 28 -3z m-8013 -28 c0 -13 -6 -25 -12 -27 -9 -3 -13 6 -13
27 0 21 4 30 13 28 6 -3 12 -15 12 -28z m-11447 -17 c2 -11 -4 -26 -13 -33
-13 -11 -15 -8 -15 25 0 39 22 46 28 8z m2762 -29 c0 -38 -3 -45 -17 -42 -14
3 -17 12 -14 43 4 46 9 58 22 50 5 -4 9 -26 9 -51z m8490 -14 c0 -20 -5 -30
-15 -30 -15 0 -21 40 -8 53 14 15 23 6 23 -23z m5617 8 c13 -12 23 -28 23 -35
0 -21 26 -43 49 -43 16 0 21 -6 21 -24 0 -38 -20 -42 -46 -10 -13 16 -23 33
-24 37 0 4 -16 21 -35 38 -35 31 -46 59 -23 59 6 0 22 -10 35 -22z m113 3 c0
-26 -10 -51 -21 -51 -5 0 -9 16 -9 35 0 24 5 35 15 35 8 0 15 -9 15 -19z
m-15277 -36 c-3 -40 -11 -57 -23 -50 -11 7 -14 68 -3 79 14 14 28 -2 26 -29z
m14647 10 c120 -10 245 -69 317 -149 50 -55 97 -145 119 -228 16 -63 19 -293
4 -365 -6 -26 -22 -104 -35 -173 -14 -69 -36 -177 -49 -240 -62 -290 -119
-565 -139 -670 l-22 -115 -263 -3 c-301 -3 -272 -15 -246 108 25 122 92 445
120 580 13 69 40 195 58 280 44 201 50 257 36 327 -14 68 -40 110 -89 145
-116 82 -274 58 -439 -67 -115 -87 -180 -212 -226 -435 -9 -41 -23 -106 -31
-145 -17 -73 -82 -391 -95 -460 -4 -22 -18 -85 -30 -140 -12 -55 -26 -116 -30
-136 -3 -19 -10 -41 -14 -47 -5 -9 -79 -12 -268 -12 l-260 0 5 22 c14 56 119
559 148 703 34 175 34 174 79 385 17 80 42 201 56 270 25 131 93 469 101 508
5 22 7 22 189 22 261 0 284 -13 284 -152 0 -43 4 -78 8 -78 4 0 26 18 47 41
90 91 199 158 325 198 66 21 204 40 250 35 14 -2 54 -6 90 -9z m-16372 -32
c-4 -52 -28 -56 -28 -4 0 30 4 41 16 41 11 0 14 -9 12 -37z m3797 14 c116 -34
203 -94 258 -177 17 -27 37 -48 42 -47 6 2 19 32 30 66 23 73 63 114 124 131
23 6 113 9 218 8 151 -3 178 -5 176 -18 -3 -30 -42 -206 -52 -235 -13 -41 -34
-140 -71 -330 -17 -88 -37 -185 -45 -216 -19 -74 -84 -375 -101 -469 -8 -41
-18 -95 -24 -120 -25 -114 -40 -243 -40 -356 0 -124 -4 -154 -22 -154 -5 0 -7
4 -4 9 11 17 -25 21 -171 21 -140 0 -147 1 -194 28 -28 15 -53 38 -58 52 -9
24 -9 24 -10 3 -1 -13 -6 -23 -12 -23 -8 0 -10 29 -7 98 l5 99 -36 -18 c-20
-9 -52 -33 -71 -52 -38 -38 -156 -106 -279 -161 -60 -28 -98 -37 -180 -45
-151 -16 -188 -14 -266 15 -64 23 -160 67 -211 97 -34 20 -77 67 -112 121 -17
28 -40 63 -50 78 -9 16 -22 28 -28 28 -12 0 -34 42 -34 64 0 8 -7 19 -15 26
-8 7 -15 24 -15 39 0 15 -4 31 -8 37 -20 22 -33 189 -23 299 25 269 85 443
221 645 80 118 126 168 243 261 156 124 261 170 487 213 49 9 286 -3 335 -17z
m2160 -11 c156 -46 363 -167 373 -220 2 -11 -11 -34 -31 -55 -19 -20 -68 -82
-110 -138 -42 -56 -87 -109 -99 -118 -13 -8 -22 -18 -20 -20 4 -10 -14 -1 -40
18 -16 12 -24 26 -21 36 4 12 2 13 -4 3 -7 -10 -19 -5 -49 19 -51 40 -126 79
-189 95 -61 17 -279 18 -326 3 -43 -15 -97 -65 -115 -106 -17 -40 -18 -103 -1
-123 34 -44 126 -83 299 -129 224 -59 309 -90 386 -141 67 -45 126 -118 154
-192 46 -122 29 -310 -40 -437 -23 -41 -192 -217 -239 -248 -13 -9 -23 -22
-23 -30 0 -11 -7 -14 -22 -10 -13 4 -45 -7 -87 -28 -113 -58 -259 -81 -501
-78 -126 1 -183 6 -240 21 -77 20 -134 44 -145 62 -3 5 -14 10 -24 10 -10 0
-24 7 -31 15 -7 8 -20 15 -28 15 -9 0 -55 25 -104 55 -48 31 -97 58 -109 60
-45 9 -45 23 1 87 24 35 65 89 92 121 26 32 66 85 88 117 23 33 45 60 51 60 5
0 24 -16 41 -36 62 -71 205 -159 316 -196 56 -19 89 -23 197 -23 128 0 132 1
198 33 81 40 118 87 125 161 5 51 -12 121 -29 121 -6 0 -17 7 -26 15 -8 9 -23
13 -33 10 -10 -3 -20 0 -23 9 -3 8 -27 17 -59 21 -29 4 -61 11 -70 16 -9 5
-43 13 -75 19 -113 18 -139 25 -125 34 20 12 -13 32 -105 62 -43 14 -86 32
-95 41 -10 9 -25 12 -40 8 -16 -4 -19 -3 -9 3 11 8 9 12 -8 22 -13 6 -29 9
-37 6 -8 -3 -14 -1 -14 4 0 6 5 10 12 10 6 0 3 9 -7 20 -14 15 -21 17 -31 9
-11 -9 -15 -7 -21 7 -3 11 -16 33 -28 49 -70 99 -82 213 -40 359 32 109 65
177 121 243 103 121 259 213 429 252 128 29 132 30 325 26 153 -3 186 -7 265
-29z m1680 5 c147 -37 266 -97 356 -179 l52 -48 -46 -60 c-26 -32 -64 -79 -85
-104 -21 -25 -58 -72 -82 -105 -23 -33 -46 -64 -51 -69 -4 -5 -32 11 -61 36
-64 53 -136 99 -203 129 -102 46 -359 35 -429 -18 -58 -44 -85 -122 -62 -178
24 -57 61 -73 370 -161 221 -63 314 -106 385 -178 101 -104 134 -225 106 -402
-14 -90 -46 -168 -75 -187 -11 -6 -20 -19 -20 -27 0 -8 -9 -21 -21 -28 -16
-10 -19 -20 -15 -40 3 -15 3 -21 0 -14 -9 20 -21 14 -42 -22 -15 -25 -17 -33
-6 -29 8 3 14 11 14 19 0 8 5 14 10 14 14 0 12 -11 -5 -34 -8 -11 -21 -16 -30
-12 -13 5 -82 -31 -105 -54 -9 -9 -114 -77 -138 -89 -94 -48 -303 -77 -493
-68 -153 7 -324 38 -389 71 -59 30 -216 131 -247 158 -13 13 -29 18 -41 14
-29 -10 -47 16 -31 46 14 27 70 102 154 208 33 42 70 90 82 106 l21 29 44 -41
c107 -101 199 -158 313 -195 59 -20 92 -23 205 -24 127 0 138 2 185 27 84 44
120 94 129 182 6 50 4 57 -9 52 -12 -4 -14 0 -10 17 4 17 -2 27 -27 43 -42 27
-147 64 -181 64 -14 0 -29 4 -32 10 -3 5 -25 14 -48 20 -23 6 -51 15 -62 20
-65 31 -147 51 -198 50 -16 0 -26 4 -23 9 3 4 -10 11 -29 14 -36 6 -120 58
-143 89 -7 9 -18 23 -25 30 -29 30 -57 77 -57 96 0 12 -4 23 -9 26 -18 11 -34
126 -27 199 14 161 79 284 213 407 104 95 195 141 362 180 123 28 129 29 311
25 123 -3 185 -9 245 -24z m1725 6 c122 -41 215 -107 255 -181 23 -43 32 -45
46 -8 32 83 54 114 98 140 45 26 51 27 235 30 106 2 192 0 198 -6 5 -5 4 -20
-2 -38 -6 -16 -32 -130 -56 -254 -25 -124 -67 -324 -94 -445 -27 -121 -62
-290 -79 -375 -17 -85 -36 -176 -42 -202 -24 -102 -44 -262 -55 -429 l-7 -106
-81 -7 c-45 -3 -113 -6 -153 -6 -39 0 -84 -5 -98 -10 -18 -7 -32 -7 -43 1 -15
9 -14 10 4 6 12 -3 28 -1 35 4 15 9 -14 14 -59 10 -13 -1 -21 3 -20 11 2 7 -7
14 -19 16 -28 4 -39 66 -24 134 12 52 7 78 -16 78 -12 0 -60 -44 -121 -112 -8
-10 -22 -18 -29 -18 -7 0 -67 -27 -133 -61 -66 -33 -143 -67 -170 -75 -134
-40 -344 -18 -477 49 -29 15 -59 27 -67 27 -7 0 -16 7 -20 15 -6 17 -36 21
-36 4 0 -5 -5 -7 -11 -3 -8 4 -7 9 2 15 11 7 10 11 -6 23 -11 9 -23 16 -27 16
-3 0 -20 24 -37 54 -16 30 -41 67 -55 82 -14 16 -31 35 -36 42 -6 7 -15 10
-21 7 -5 -4 -9 15 -10 42 0 35 -3 43 -9 28 -11 -27 -15 -14 -36 105 -35 192
-14 472 46 625 4 11 14 36 21 55 45 126 152 299 253 408 45 49 154 140 230
191 82 57 220 106 376 135 54 10 306 -2 350 -17z m2085 -2 c0 -10 -6 -20 -12
-22 -8 -3 -13 5 -13 22 0 17 5 25 13 23 6 -3 12 -13 12 -23z m2695 -50 c-7 -8
-10 -22 -6 -31 3 -8 1 -24 -4 -34 -10 -18 -12 -18 -29 -3 -16 13 -17 20 -8 37
7 12 14 23 17 26 3 3 12 18 20 34 14 28 15 28 18 7 2 -12 -2 -29 -8 -36z
m5200 40 c0 -9 -362 -365 -371 -365 -29 0 9 45 152 181 161 154 219 202 219
184z m-8346 -13 c3 -5 1 -24 -4 -43 -16 -59 -48 -208 -86 -399 -20 -102 -40
-202 -45 -222 -5 -21 -13 -55 -18 -75 -35 -148 -81 -399 -81 -440 0 -113 48
-207 124 -247 82 -42 226 -40 321 5 95 45 186 150 223 260 27 78 93 374 152
679 28 146 61 315 74 375 l22 110 262 3 c144 1 262 -1 262 -5 0 -4 -9 -46 -20
-93 -11 -47 -42 -200 -69 -340 -46 -234 -88 -433 -141 -663 -25 -109 -65 -225
-85 -247 -8 -9 -15 -25 -15 -36 0 -15 -2 -16 -9 -5 -7 11 -19 -1 -50 -49 -23
-35 -41 -71 -41 -82 0 -10 -5 -18 -11 -18 -17 0 -38 -32 -39 -57 0 -15 -5 -21
-14 -17 -8 3 -24 -4 -35 -15 -12 -12 -24 -21 -28 -21 -5 0 -24 -15 -43 -33
-50 -46 -116 -97 -127 -97 -5 0 -28 -9 -52 -20 -50 -25 -145 -55 -221 -71 -30
-6 -74 -17 -97 -25 -35 -11 -73 -12 -200 -4 -234 14 -291 30 -410 114 -86 59
-143 113 -144 133 0 11 -3 13 -6 6 -9 -24 -23 -13 -17 14 6 22 4 25 -11 19
-14 -5 -16 -2 -12 14 3 10 0 18 -5 17 -6 -1 -21 30 -35 68 -20 59 -25 91 -26
205 -1 77 3 161 10 195 7 33 20 94 28 135 8 41 24 118 35 170 28 129 64 309
105 530 19 102 40 206 46 233 l11 47 258 0 c143 0 261 -4 264 -8z m3910 0 c2
-4 -13 -95 -35 -202 -22 -107 -44 -217 -49 -245 -6 -27 -14 -68 -19 -90 -18
-79 -31 -142 -55 -260 -26 -125 -141 -681 -155 -750 -5 -22 -23 -107 -40 -189
-18 -82 -34 -153 -37 -158 -5 -8 -524 -12 -524 -4 0 7 37 187 60 296 11 52 43
205 70 340 59 288 113 549 170 820 22 107 50 242 61 300 11 58 22 115 24 128
l5 22 260 0 c142 0 261 -4 264 -8z m-13344 -30 c0 -10 9 -24 20 -32 20 -15 28
-60 10 -60 -12 0 -60 97 -52 104 11 12 22 6 22 -12z m9690 -28 c0 -24 -5 -34
-15 -34 -10 0 -15 10 -15 33 0 19 3 37 6 40 13 13 24 -5 24 -39z m-9540 15 c0
-18 -32 -143 -41 -161 -5 -10 -6 -24 -3 -32 9 -24 -14 -28 -27 -5 -9 18 -8 24
6 31 12 7 16 21 14 48 -2 22 0 42 4 46 4 4 7 22 7 39 0 17 3 35 7 38 10 11 33
8 33 -4z m9720 -8 c0 -26 -10 -51 -21 -51 -5 0 -9 16 -9 35 0 24 5 35 15 35 8
0 15 -9 15 -19z m-11452 -33 c-4 -46 -28 -49 -28 -4 0 26 4 36 16 36 11 0 14
-8 12 -32z m14112 -29 c0 -12 -29 -43 -35 -37 -2 2 -2 14 2 26 5 22 33 31 33
11z m-2860 -45 c0 -24 -5 -34 -15 -34 -15 0 -20 35 -9 64 10 25 24 8 24 -30z
m-9604 12 c15 -16 19 -56 5 -56 -10 0 -41 45 -41 60 0 14 19 12 36 -4z m9784
-5 c0 -28 -11 -52 -21 -45 -16 9 -11 64 6 64 8 0 15 -9 15 -19z m2706 -13 c-3
-18 -10 -34 -14 -38 -4 -3 -8 -21 -9 -40 -1 -31 -7 -65 -28 -165 -3 -16 -8
-40 -11 -52 -7 -38 -24 -26 -24 17 0 22 5 40 10 40 6 0 10 20 10 44 0 25 5 48
10 51 6 3 10 26 10 50 0 24 5 47 10 50 6 3 10 22 10 41 0 25 4 34 16 34 13 0
15 -7 10 -32z m-14160 -20 c-4 -18 -10 -53 -14 -77 -9 -59 -32 -67 -32 -12 0
23 5 41 10 41 6 0 10 18 10 40 0 30 4 40 16 40 13 0 15 -7 10 -32z m14094 11
c0 -14 -29 -43 -36 -36 -10 10 7 47 22 47 8 0 14 -5 14 -11z m-2840 -74 c0
-24 -5 -35 -15 -35 -15 0 -22 50 -8 63 15 15 23 5 23 -28z m176 -17 c-3 -18
-8 -51 -12 -73 -6 -44 -11 -55 -25 -55 -5 0 -9 20 -9 45 0 30 4 45 13 45 9 0
12 11 9 35 -3 28 -1 35 13 35 14 0 16 -6 11 -32z m2604 19 c0 -7 -21 -33 -46
-57 -49 -49 -51 -31 -1 33 29 38 47 47 47 24z m-2800 -102 c0 -24 -5 -35 -15
-35 -15 0 -22 50 -8 63 15 15 23 5 23 -28z m-11275 -6 c9 -14 -3 -59 -15 -59
-6 0 -10 16 -10 35 0 34 12 46 25 24z m13985 -6 c0 -17 -19 -35 -29 -29 -18
12 -12 36 9 36 11 0 20 -3 20 -7z m-40 -48 c0 -8 -9 -15 -20 -15 -11 0 -20 7
-20 15 0 8 9 15 20 15 11 0 20 -7 20 -15z m-2690 -35 c0 -29 -4 -40 -15 -40
-16 0 -20 35 -9 64 11 29 24 16 24 -24z m184 32 c8 -13 -9 -65 -22 -70 -8 -2
-12 10 -12 37 0 29 4 41 14 41 8 0 17 -4 20 -8z m-11454 -51 c0 -28 -11 -52
-21 -45 -16 9 -11 64 6 64 8 0 15 -9 15 -19z m13880 -6 c0 -11 -110 -115 -121
-115 -6 0 -24 -13 -39 -30 -15 -16 -34 -30 -40 -30 -7 0 -21 -10 -31 -21 -11
-12 -25 -19 -34 -15 -9 3 -15 0 -15 -9 0 -8 -7 -15 -15 -15 -8 0 -15 3 -15 8
0 10 66 62 79 62 6 0 11 4 11 8 0 4 12 15 28 24 26 16 74 54 137 110 27 25 55
36 55 23z m-2630 -71 c0 -15 -6 -24 -15 -24 -16 0 -19 17 -9 44 9 22 24 10 24
-20z m184 28 c8 -13 -9 -75 -22 -80 -8 -2 -12 10 -12 42 0 33 4 46 14 46 8 0
17 -3 20 -8z m2701 -22 c8 -13 -4 -50 -16 -50 -5 0 -9 14 -9 30 0 30 13 40 25
20z m4745 0 c0 -5 -4 -10 -10 -10 -5 0 -10 5 -10 10 0 6 5 10 10 10 6 0 10 -4
10 -10z m-18902 -32 c-5 -32 -28 -35 -28 -4 0 17 5 26 16 26 10 0 14 -7 12
-22z m18872 11 c0 -11 -310 -319 -322 -319 -5 0 -8 6 -8 14 0 16 269 276 300
290 11 5 20 13 20 18 0 4 2 8 5 8 3 0 5 -5 5 -11z m-7620 -79 c0 -30 -13 -40
-25 -20 -8 13 4 50 16 50 5 0 9 -13 9 -30z m182 -5 c-1 -17 -5 -37 -9 -45 -3
-8 -7 -32 -9 -54 -5 -44 -12 -59 -25 -51 -12 8 -12 85 1 85 6 0 10 23 10 51 0
43 3 50 18 47 12 -3 16 -12 14 -33z m-11454 -12 c-4 -39 -28 -42 -28 -4 0 21
5 31 16 31 11 0 14 -8 12 -27z m14162 8 c0 -10 -7 -24 -15 -31 -13 -11 -15 -8
-15 19 0 21 5 31 15 31 8 0 15 -8 15 -19z m1970 -27 c0 -11 -6 -15 -20 -11
-13 3 -20 0 -20 -9 0 -8 -7 -14 -15 -14 -23 0 -18 24 8 36 33 17 47 16 47 -2z
m50 -31 c0 -27 -3 -58 -6 -70 -12 -45 -24 -22 -24 47 0 56 3 70 15 70 11 0 15
-12 15 -47z m-4930 -33 c0 -31 -16 -41 -26 -15 -8 19 2 45 16 45 5 0 10 -13
10 -30z m2888 3 c-4 -39 -28 -42 -28 -4 0 21 5 31 16 31 11 0 14 -8 12 -27z
m1902 17 c-8 -5 -10 -10 -5 -10 6 0 -5 -13 -22 -29 -18 -16 -33 -36 -33 -45 0
-9 -4 -16 -10 -16 -5 0 -10 -9 -10 -20 0 -11 -7 -20 -15 -20 -8 0 -15 8 -15
19 0 21 61 105 88 120 22 13 42 14 22 1z m-2460 -15 c0 -8 -7 -15 -15 -15 -16
0 -20 12 -8 23 11 12 23 8 23 -8z m-13602 -22 c-4 -39 -28 -42 -28 -4 0 21 5
31 16 31 11 0 14 -8 12 -27z m13556 -8 c-7 -18 -63 -47 -75 -39 -17 10 -9 26
11 21 13 -3 20 0 20 8 0 13 14 23 37 24 7 1 10 -6 7 -14z m-2304 -55 c0 -11
-7 -20 -15 -20 -15 0 -21 21 -8 33 12 13 23 7 23 -13z m2213 14 c9 -9 -30 -47
-41 -40 -6 3 -13 -1 -16 -10 -3 -9 -13 -14 -20 -11 -8 3 -17 -1 -20 -10 -4 -8
-13 -13 -20 -10 -8 3 -17 -1 -20 -10 -4 -8 -13 -13 -21 -9 -8 3 -15 1 -15 -4
0 -6 -9 -10 -20 -10 -11 0 -20 -4 -20 -10 0 -5 -9 -10 -19 -10 -11 0 -21 -6
-24 -12 -3 -10 -7 -10 -17 -1 -14 13 -22 8 145 95 117 61 118 61 128 52z m672
-33 c-3 -12 -11 -21 -16 -21 -10 0 -12 43 -2 54 12 12 25 -11 18 -33z m-14157
-14 c2 -19 -1 -27 -12 -27 -11 0 -16 10 -16 31 0 38 24 35 28 -4z m11448 -23
c-3 -9 -10 -12 -16 -9 -14 9 -12 53 3 58 13 4 22 -26 13 -49z m4752 30 c1 -10
-4 -28 -12 -39 -14 -19 -15 -17 -16 23 0 31 4 42 13 40 6 -3 13 -13 15 -24z
m-2063 -45 c9 -14 -3 -59 -15 -59 -6 0 -10 16 -10 35 0 34 12 46 25 24z m1845
-9 c0 -11 -7 -20 -15 -20 -15 0 -21 21 -8 33 12 13 23 7 23 -13z m2660 2 c0
-10 9 -24 20 -32 11 -8 20 -22 20 -32 0 -10 5 -18 10 -18 6 0 10 -9 10 -20 0
-11 5 -20 10 -20 6 0 10 -9 10 -20 0 -11 5 -20 10 -20 6 0 10 -7 10 -15 0 -27
-25 -16 -39 18 -8 17 -25 48 -38 67 -13 19 -23 41 -23 48 0 7 -7 20 -15 29 -8
8 -13 19 -10 24 10 15 25 10 25 -9z m-7390 -17 c0 -16 -6 -25 -15 -25 -15 0
-21 31 -8 43 13 14 23 6 23 -18z m-11268 3 c7 -20 -6 -72 -17 -72 -5 -1 -11
18 -13 42 -2 31 0 42 11 42 8 0 17 -6 19 -12z m1034 -3 c-3 -9 0 -15 9 -15 8
0 15 -7 15 -15 0 -8 -4 -15 -10 -15 -5 0 -10 -9 -10 -20 0 -21 -24 -28 -35
-10 -9 14 14 90 26 90 6 0 9 -7 5 -15z m10414 -30 c0 -16 -6 -25 -15 -25 -9 0
-15 9 -15 25 0 16 6 25 15 25 9 0 15 -9 15 -25z m4745 14 c9 -14 -3 -59 -15
-59 -6 0 -10 16 -10 35 0 34 12 46 25 24z m-215 -44 c0 -16 -6 -25 -15 -25
-15 0 -21 31 -8 43 13 14 23 6 23 -18z m-14888 -32 c10 -21 24 -49 32 -63 8
-14 21 -40 28 -57 7 -18 16 -33 20 -33 5 0 8 -9 8 -20 0 -11 5 -20 10 -20 6 0
10 -8 10 -17 0 -10 7 -27 15 -37 23 -30 20 -49 -5 -34 -11 7 -20 21 -20 30 0
10 -4 18 -10 18 -5 0 -10 9 -10 20 0 11 -4 20 -10 20 -5 0 -10 9 -10 20 0 11
-4 20 -10 20 -5 0 -10 9 -10 20 0 11 -4 20 -10 20 -5 0 -10 9 -10 20 0 11 -4
20 -10 20 -5 0 -10 9 -10 20 0 11 -5 20 -11 20 -6 0 -9 9 -6 20 3 13 0 20 -9
20 -8 0 -14 7 -14 15 0 28 25 15 42 -22z m10158 -13 c0 -29 -4 -40 -15 -40
-18 0 -21 50 -3 68 17 17 18 16 18 -28z m2885 10 c0 -13 -6 -25 -12 -27 -9 -3
-13 6 -13 27 0 21 4 30 13 28 6 -3 12 -15 12 -28z m-14152 3 c8 -13 -28 -164
-38 -166 -6 -1 -11 19 -13 46 -2 34 1 47 10 47 10 0 12 11 10 40 -3 31 -1 40
11 40 9 0 18 -3 20 -7z m11447 -18 c0 -16 -6 -25 -15 -25 -9 0 -15 9 -15 25 0
16 6 25 15 25 9 0 15 -9 15 -25z m1800 -5 c0 -31 -16 -41 -26 -15 -5 13 11 45
22 45 2 0 4 -13 4 -30z m-12210 -31 c0 -33 -3 -40 -17 -37 -13 3 -17 12 -16
33 5 68 33 71 33 4z m15160 22 c0 -26 -10 -51 -21 -51 -5 0 -9 16 -9 35 0 24
5 35 15 35 8 0 15 -9 15 -19z m-220 -41 c0 -29 -4 -40 -15 -40 -10 0 -15 10
-15 33 0 19 3 37 7 40 15 16 23 5 23 -33z m-4545 10 c9 -14 -23 -70 -40 -70
-17 0 -20 26 -5 35 6 3 10 15 10 26 0 20 24 26 35 9z m2701 -36 c-3 -26 -11
-53 -17 -60 -9 -11 -96 -14 -461 -14 -488 0 -468 -2 -454 55 9 35 26 31 26 -5
l0 -30 426 0 c471 0 454 -2 454 64 0 27 4 36 16 36 14 0 16 -8 10 -46z m-2886
-46 c0 -62 0 -63 28 -63 15 0 32 6 39 15 7 8 13 11 13 6 0 -5 11 1 25 14 36
33 42 18 8 -20 -32 -36 -101 -52 -128 -30 -24 20 -19 140 6 140 5 0 9 -28 9
-62z m7556 38 c8 -8 14 -22 14 -30 0 -9 5 -16 10 -16 6 0 10 -9 10 -20 0 -11
5 -20 10 -20 6 0 10 -9 10 -20 0 -11 5 -20 10 -20 6 0 10 -9 10 -20 0 -11 5
-20 10 -20 6 0 10 -7 10 -15 0 -8 5 -15 10 -15 6 0 10 -9 10 -20 0 -11 5 -20
10 -20 6 0 10 -9 10 -20 0 -11 5 -20 11 -20 6 0 9 -9 6 -20 -3 -13 0 -20 9
-20 8 0 14 -7 14 -15 0 -28 -26 -15 -40 20 -8 19 -17 35 -22 35 -4 0 -8 9 -8
19 0 11 -4 21 -8 23 -4 2 -22 30 -38 63 -17 33 -45 85 -63 117 -17 31 -31 59
-31 62 0 11 21 6 36 -8z m-17786 -47 c0 -33 -3 -40 -17 -37 -13 3 -17 12 -16
33 5 68 33 71 33 4z m15158 19 c-5 -32 -28 -35 -28 -4 0 17 5 26 16 26 10 0
14 -7 12 -22z m-218 -23 c0 -24 -5 -35 -15 -35 -15 0 -22 50 -8 63 15 15 23 5
23 -28z m-16002 -60 c-2 -14 -7 -26 -13 -26 -5 0 -11 12 -13 26 -2 18 1 25 13
25 12 0 15 -7 13 -25z m1042 -20 c0 -26 -3 -33 -15 -29 -15 6 -21 55 -9 67 13
13 24 -5 24 -38z m15158 18 c-4 -39 -28 -42 -28 -4 0 21 5 31 16 31 11 0 14
-8 12 -27z m-218 -38 c0 -26 -3 -33 -15 -29 -15 6 -21 55 -9 67 13 13 24 -5
24 -38z m198 -47 c-4 -46 -28 -49 -28 -4 0 26 4 36 16 36 11 0 14 -8 12 -32z
m-16198 -8 c0 -20 -5 -30 -15 -30 -29 0 -18 50 13 59 1 1 2 -12 2 -29z m1040
-20 c0 -20 -5 -30 -15 -30 -15 0 -21 40 -8 53 14 15 23 6 23 -23z m290 14 c0
-8 -4 -12 -10 -9 -5 3 -10 10 -10 16 0 5 5 9 10 9 6 0 10 -7 10 -16z m14650
-29 c0 -24 -5 -35 -15 -35 -15 0 -22 50 -8 63 15 15 23 5 23 -28z m-14630 -5
c0 -5 -4 -10 -10 -10 -5 0 -10 5 -10 10 0 6 5 10 10 10 6 0 10 -4 10 -10z
m14830 -34 c0 -33 -10 -57 -21 -50 -16 9 -11 74 6 74 9 0 15 -9 15 -24z
m-14810 -1 c0 -8 -4 -15 -10 -15 -5 0 -10 7 -10 15 0 8 5 15 10 15 6 0 10 -7
10 -15z m-1390 -19 c0 -14 -5 -28 -10 -31 -13 -8 -24 20 -16 40 9 24 26 17 26
-9z m1040 -11 c0 -16 -6 -25 -15 -25 -15 0 -21 31 -8 43 13 14 23 6 23 -18z
m11108 -10 c-6 -14 -13 -24 -14 -22 -6 6 9 47 17 47 5 0 3 -11 -3 -25z
m-10738 0 c0 -8 -4 -15 -10 -15 -5 0 -10 7 -10 15 0 8 5 15 10 15 6 0 10 -7
10 -15z m14570 -20 c0 -24 -5 -35 -15 -35 -15 0 -22 50 -8 63 15 15 23 5 23
-28z m-14550 -20 c0 -8 -4 -15 -10 -15 -5 0 -10 7 -10 15 0 8 5 15 10 15 6 0
10 -7 10 -15z m14749 -27 c-1 -52 -23 -131 -36 -136 -9 -2 -13 10 -13 42 0 31
4 46 13 46 9 0 11 12 9 40 -3 32 -1 40 12 40 12 0 16 -9 15 -32z m2907 18 c8
-8 14 -22 14 -30 0 -9 5 -16 10 -16 6 0 10 -9 10 -20 0 -11 5 -20 10 -20 6 0
10 -9 10 -20 0 -11 5 -20 11 -20 6 0 9 -9 6 -20 -3 -13 0 -20 9 -20 8 0 14 -7
14 -15 0 -8 -7 -15 -15 -15 -8 0 -15 6 -15 14 0 7 -7 19 -15 26 -8 7 -13 16
-10 20 3 5 1 10 -3 12 -14 5 -72 120 -66 130 7 11 13 10 30 -6z m-19106 -26
c0 -11 -7 -20 -15 -20 -17 0 -18 2 -9 24 9 23 24 20 24 -4z m1040 -15 c0 -16
-6 -25 -15 -25 -9 0 -15 9 -15 25 0 16 6 25 15 25 9 0 15 -9 15 -25z m432 10
c0 -5 -5 -11 -11 -13 -6 -2 -11 4 -11 13 0 9 5 15 11 13 6 -2 11 -8 11 -13z
m14508 -41 c0 -24 -5 -34 -15 -34 -15 0 -20 35 -9 64 10 25 24 8 24 -30z
m-14490 16 c0 -17 3 -25 17 -38 7 -8 11 -18 8 -23 -4 -5 -1 -9 5 -9 12 0 30
-41 23 -53 -8 -13 -33 14 -53 59 -22 47 -25 74 -10 74 6 0 10 -4 10 -10z
m-1505 -20 c8 -12 -5 -60 -16 -60 -5 0 -9 16 -9 35 0 33 12 46 25 25z m18035
-36 c0 -8 -4 -14 -10 -14 -5 0 -10 -18 -10 -40 0 -29 -4 -40 -15 -40 -19 0
-21 64 -2 82 8 7 12 22 9 33 -5 18 -4 18 11 6 9 -7 17 -20 17 -27z m-17000
-30 c0 -15 -6 -24 -15 -24 -15 0 -21 40 -9 53 12 11 24 -3 24 -29z m14940 -14
c0 -30 -13 -40 -25 -20 -8 13 4 50 16 50 5 0 9 -13 9 -30z m2090 -15 c8 -19
17 -35 22 -35 4 0 8 -9 8 -20 0 -11 5 -20 10 -20 6 0 10 -9 10 -20 0 -11 5
-20 10 -20 6 0 10 -9 10 -20 0 -11 5 -20 10 -20 6 0 10 -9 10 -20 0 -11 5 -20
10 -20 6 0 10 -9 10 -20 0 -11 4 -20 9 -20 11 0 25 -39 17 -47 -8 -8 -36 24
-36 41 0 9 -4 16 -10 16 -5 0 -10 9 -10 20 0 11 -4 20 -10 20 -5 0 -10 9 -10
19 0 11 -3 21 -7 23 -13 5 -73 130 -68 138 3 4 -2 10 -10 14 -18 7 -20 26 -2
26 7 0 19 -16 27 -35z m-18083 -11 c2 -5 -3 -19 -12 -29 -14 -19 -14 -18 -15
13 0 31 18 42 27 16z m16198 -21 c-8 -44 -13 -53 -26 -53 -5 0 -9 20 -9 45 0
39 3 45 21 45 19 0 21 -4 14 -37z m-14597 -4 c-2 -6 -8 -10 -13 -10 -5 0 -11
4 -13 10 -2 6 4 11 13 11 9 0 15 -5 13 -11z m-568 -29 c0 -31 -16 -41 -26 -15
-8 19 2 45 16 45 5 0 10 -13 10 -30z m18221 8 c5 -13 23 -45 38 -73 31 -52 37
-75 22 -75 -5 0 -24 30 -43 68 -18 37 -36 69 -40 70 -12 5 -10 32 2 32 6 0 15
-10 21 -22z m-3281 -28 c0 -16 -5 -30 -10 -30 -14 0 -24 26 -16 45 10 26 26
16 26 -15z m2040 -10 c0 -29 -4 -40 -15 -40 -16 0 -20 35 -9 64 11 29 24 16
24 -24z m-18034 -24 c-4 -20 -11 -36 -16 -36 -11 0 -14 73 -3 84 14 14 25 -14
19 -48z m1642 43 c-2 -6 -8 -10 -13 -10 -5 0 -11 4 -13 10 -2 6 4 11 13 11 9
0 15 -5 13 -11z m1126 -15 c3 -8 2 -12 -4 -9 -6 3 -10 10 -10 16 0 14 7 11 14
-7z m-1104 -24 c0 -5 -7 -10 -15 -10 -8 0 -15 5 -15 10 0 6 7 10 15 10 8 0 15
-4 15 -10z m6696 -7 c4 -10 6 -21 6 -25 -1 -5 4 -8 11 -8 14 0 52 -58 44 -67
-7 -7 -51 37 -60 60 -3 9 -10 17 -15 17 -5 0 -39 -31 -75 -70 -36 -38 -73 -70
-81 -70 -9 0 -16 2 -16 4 0 6 164 176 171 176 4 0 10 -8 15 -17z m-7326 -28
c0 -24 -5 -35 -15 -35 -15 0 -20 26 -9 54 11 28 24 17 24 -19z m1770 14 c7
-11 9 -23 6 -26 -8 -9 -36 17 -36 33 0 21 18 17 30 -7z m7695 4 c13 -31 13
-57 -2 -86 -19 -37 -27 -28 -15 16 6 20 6 40 1 48 -11 18 -11 39 0 39 5 0 12
-8 16 -17z m5695 -2 c0 -28 -11 -52 -21 -45 -16 9 -11 64 6 64 8 0 15 -9 15
-19z m-13432 -38 c2 -20 -2 -32 -12 -36 -21 -8 -27 5 -20 42 8 39 28 35 32 -6z
m-1078 17 c0 -5 -7 -10 -15 -10 -8 0 -15 5 -15 10 0 6 7 10 15 10 8 0 15 -4
15 -10z m14290 -10 c0 -19 -11 -26 -23 -14 -8 8 3 34 14 34 5 0 9 -9 9 -20z
m2040 -10 c0 -20 -5 -30 -15 -30 -15 0 -21 40 -8 53 14 15 23 6 23 -23z
m-18034 -44 c-4 -20 -11 -36 -16 -36 -11 0 -14 73 -3 84 14 14 25 -14 19 -48z
m1732 9 c15 -32 15 -35 1 -35 -16 0 -39 26 -39 44 0 25 26 19 38 -9z m1174
-27 c44 -58 44 -58 115 -103 60 -38 80 -65 48 -65 -8 0 -20 9 -27 20 -7 11
-19 20 -26 20 -15 0 -162 145 -162 160 0 21 19 9 52 -32z m13286 0 c-4 -46
-28 -49 -28 -4 0 26 4 36 16 36 11 0 14 -8 12 -32z m3192 12 c0 -11 -4 -20 -9
-20 -11 0 -22 26 -14 34 12 12 23 5 23 -14z m-18350 -25 c0 -24 -5 -35 -15
-35 -15 0 -22 50 -8 63 15 15 23 5 23 -28z m1730 -21 c0 -29 -3 -35 -17 -32
-17 4 -21 32 -8 66 9 24 25 1 25 -34z m13210 11 c0 -25 -14 -34 -24 -16 -8 12
3 41 15 41 5 0 9 -11 9 -25z m2040 -10 c0 -24 -5 -35 -15 -35 -15 0 -20 26 -9
54 11 28 24 17 24 -19z m1390 7 c0 -10 9 -24 20 -32 11 -8 20 -25 20 -38 0
-32 -22 -23 -35 14 -5 16 -16 34 -24 40 -8 6 -11 16 -7 22 11 18 26 14 26 -6z
m-17642 -10 c2 -7 -3 -12 -12 -12 -9 0 -16 7 -16 16 0 17 22 14 28 -4z m4762
3 c0 -8 -9 -15 -20 -15 -20 0 -26 11 -13 23 12 13 33 7 33 -8z m-6545 -6 c9
-14 -3 -59 -15 -59 -6 0 -10 16 -10 35 0 34 12 46 25 24z m6655 -19 c18 -16
36 -30 41 -30 5 0 9 -4 9 -10 0 -5 -7 -10 -15 -10 -8 0 -15 5 -15 10 0 6 -7
10 -15 10 -15 0 -65 42 -65 55 0 15 31 2 60 -25z m-4814 -47 c24 -26 44 -50
44 -55 0 -18 -23 -5 -65 37 -25 24 -45 49 -45 55 0 22 24 8 66 -37z m16489 12
c11 -18 34 -42 52 -52 31 -17 45 -43 23 -43 -14 0 -120 106 -120 120 0 23 28
8 45 -25z m-11845 19 c0 -10 -28 -34 -39 -34 -15 0 -14 27 2 33 17 8 37 8 37
1z m1710 0 c0 -11 -29 -34 -42 -34 -8 0 -20 -9 -28 -20 -15 -21 -50 -28 -50
-10 0 6 12 16 27 23 15 6 36 20 45 30 17 16 48 24 48 11z m7998 -26 c-4 -46
-28 -49 -28 -4 0 26 4 36 16 36 11 0 14 -8 12 -32z m-15158 -23 c0 -33 -4 -45
-15 -45 -16 0 -21 43 -9 74 12 31 24 16 24 -29z m3963 33 c29 -14 37 -38 12
-38 -8 0 -15 5 -15 10 0 6 -4 10 -10 10 -6 0 -10 -29 -10 -66 0 -64 -13 -94
-39 -94 -14 0 -14 17 -1 25 6 3 10 39 10 79 0 91 4 96 53 74z m-2233 -44 c0
-24 -5 -34 -15 -34 -10 0 -15 10 -15 33 0 19 3 37 6 40 13 13 24 -5 24 -39z
m5852 16 c16 -16 34 -30 39 -30 5 0 9 -4 9 -10 0 -5 -7 -10 -15 -10 -8 0 -15
5 -15 10 0 6 -7 10 -16 10 -15 0 -53 37 -54 53 0 16 23 6 52 -23z m2270 -54
c51 -24 104 -46 118 -49 14 -3 50 -12 80 -20 30 -8 81 -18 113 -22 31 -4 57
-10 57 -12 0 -3 -12 -22 -28 -42 -68 -89 -77 -117 -77 -236 0 -128 16 -174 85
-249 81 -88 179 -126 324 -126 117 0 202 21 295 71 143 77 266 192 364 342 64
96 147 251 172 319 23 64 47 85 80 70 16 -8 42 -8 79 -2 30 5 131 10 223 11
l168 1 -2 -27 c-3 -36 -65 -227 -98 -301 -83 -184 -162 -324 -236 -416 -24
-31 -64 -81 -88 -112 -111 -146 -375 -330 -571 -401 -124 -44 -220 -59 -380
-58 -173 0 -230 15 -340 89 -81 54 -147 124 -192 201 -31 56 -48 73 -48 51 0
-7 -16 -27 -37 -45 l-36 -32 -39 22 c-24 14 -59 51 -92 97 -52 74 -116 203
-116 234 0 9 -3 16 -8 16 -10 0 -31 63 -44 130 -28 154 26 442 104 553 l20 27
29 -20 c16 -12 70 -41 121 -64z m5088 54 c0 -30 -13 -40 -25 -20 -8 13 4 50
16 50 5 0 9 -13 9 -30z m2040 0 c0 -30 -13 -40 -25 -20 -8 13 4 50 16 50 5 0
9 -13 9 -30z m-11590 4 c0 -11 -29 -34 -44 -34 -9 0 -16 -4 -16 -10 0 -5 -7
-10 -16 -10 -25 0 -11 21 26 42 36 19 50 22 50 12z m350 -15 c43 -23 52 -39
20 -39 -11 0 -20 5 -20 10 0 6 -7 10 -16 10 -15 0 -44 23 -44 34 0 11 19 6 60
-15z m-1713 -5 c3 -8 12 -13 19 -10 14 5 30 -11 21 -21 -9 -9 -67 21 -67 34 0
18 19 16 27 -3z m-5082 -5 c9 -14 -3 -59 -15 -59 -6 0 -10 16 -10 35 0 34 12
46 25 24z m19511 -3 c18 -19 18 -46 -1 -46 -8 0 -15 3 -15 8 0 4 -3 17 -6 30
-7 25 1 28 22 8z m-11416 -17 c0 -5 -7 -9 -15 -9 -15 0 -20 12 -9 23 8 8 24
-1 24 -14z m-4934 -14 c4 -8 12 -15 20 -15 8 0 14 -4 14 -10 0 -5 -7 -10 -15
-10 -8 0 -15 5 -15 10 0 6 -9 10 -20 10 -20 0 -26 11 -13 23 11 11 23 8 29 -8z
m2002 -3 c2 -7 -6 -12 -17 -12 -21 0 -27 11 -14 24 9 9 26 2 31 -12z m1182 6
c0 -13 -44 -38 -67 -38 -7 0 -10 7 -6 16 3 9 13 14 24 11 10 -3 20 1 23 9 7
17 26 18 26 2z m1708 -6 c2 -7 -3 -12 -12 -12 -9 0 -16 7 -16 16 0 17 22 14
28 -4z m1632 3 c0 -8 -9 -15 -20 -15 -20 0 -26 11 -13 23 12 13 33 7 33 -8z
m40 0 c0 -8 -7 -15 -15 -15 -16 0 -20 12 -8 23 11 12 23 8 23 -8z m-7754 -15
c46 -22 58 -40 24 -40 -11 0 -20 5 -20 10 0 6 -7 10 -16 10 -15 0 -44 23 -44
34 0 9 8 7 56 -14z m2231 -6 c3 -8 11 -14 19 -14 8 0 14 -4 14 -10 0 -5 -7
-10 -15 -10 -8 0 -15 5 -15 10 0 6 -8 10 -19 10 -10 0 -21 8 -24 19 -3 14 0
17 15 13 11 -2 22 -11 25 -18z m2673 16 c0 -5 -4 -10 -10 -10 -5 0 -10 5 -10
10 0 6 5 10 10 10 6 0 10 -4 10 -10z m9320 -15 c0 -16 -6 -25 -15 -25 -9 0
-15 9 -15 25 0 16 6 25 15 25 9 0 15 -9 15 -25z m-15160 -16 c0 -30 -19 -59
-39 -59 -13 0 -14 17 -2 25 5 3 12 19 16 35 9 39 25 39 25 -1z m3060 15 c0
-11 -6 -15 -20 -11 -13 3 -20 0 -20 -9 0 -8 -9 -14 -20 -14 -28 0 -25 16 8 33
37 20 52 20 52 1z m1110 1 c0 -8 -9 -15 -20 -15 -20 0 -26 11 -13 23 12 13 33
7 33 -8z m2808 -3 c2 -7 -6 -12 -17 -12 -21 0 -27 11 -14 24 9 9 26 2 31 -12z
m740 1 c2 -8 -5 -13 -17 -13 -12 0 -21 6 -21 16 0 18 31 15 38 -3z m890 -1 c2
-7 -3 -12 -12 -12 -9 0 -16 7 -16 16 0 17 22 14 28 -4z m6318 -57 c-8 -8 -17
-15 -20 -15 -8 0 4 50 18 75 10 18 11 17 14 -13 2 -19 -3 -38 -12 -47z m-9036
55 c0 -5 -7 -10 -15 -10 -8 0 -15 5 -15 10 0 6 7 10 15 10 8 0 15 -4 15 -10z
m2870 -16 c0 -8 -9 -14 -20 -14 -11 0 -20 7 -20 16 0 9 -5 12 -12 8 -6 -4 -8
-3 -5 3 9 15 57 3 57 -13z m8220 0 c0 -23 -20 -54 -34 -54 -6 0 -1 34 10 68 6
22 24 13 24 -14z m450 16 c0 -5 -4 -10 -10 -10 -5 0 -10 5 -10 10 0 6 5 10 10
10 6 0 10 -4 10 -10z m-11492 -18 c2 -7 -6 -12 -17 -12 -21 0 -27 11 -14 24 9
9 26 2 31 -12z m1817 8 c3 -6 -1 -13 -10 -16 -19 -8 -30 0 -20 15 8 14 22 14
30 1z m813 -8 c2 -7 -3 -12 -12 -12 -9 0 -16 7 -16 16 0 17 22 14 28 -4z
m-6838 -22 c0 -25 -4 -30 -25 -30 -29 0 -30 3 -9 35 22 33 34 31 34 -5z m470
20 c0 -5 -7 -10 -15 -10 -8 0 -15 5 -15 10 0 6 7 10 15 10 8 0 15 -4 15 -10z
m2020 0 c0 -5 -7 -10 -15 -10 -8 0 -15 5 -15 10 0 6 7 10 15 10 8 0 15 -4 15
-10z m1000 0 c0 -5 -7 -10 -15 -10 -8 0 -15 5 -15 10 0 6 7 10 15 10 8 0 15
-4 15 -10z m1700 0 c0 -5 -4 -10 -10 -10 -5 0 -10 5 -10 10 0 6 5 10 10 10 6
0 10 -4 10 -10z m10550 0 c0 -5 -4 -10 -10 -10 -5 0 -10 5 -10 10 0 6 5 10 10
10 6 0 10 -4 10 -10z m1040 -20 c0 -20 -5 -30 -15 -30 -17 0 -18 4 -9 38 9 32
24 27 24 -8z m-17472 2 c2 -7 -6 -12 -17 -12 -21 0 -27 11 -14 24 9 9 26 2 31
-12z m1207 8 c3 -6 -1 -13 -10 -16 -19 -8 -30 0 -20 15 8 14 22 14 30 1z
m1005 -11 c0 -5 -9 -9 -20 -9 -22 0 -27 16 -7 23 15 5 27 -1 27 -14z m1028 4
c2 -8 -6 -13 -22 -13 -25 0 -33 10 -19 24 10 10 36 3 41 -11z m900 0 c2 -8 -6
-13 -22 -13 -25 0 -33 10 -19 24 10 10 36 3 41 -11z m812 -4 c0 -5 -7 -9 -15
-9 -15 0 -20 12 -9 23 8 8 24 -1 24 -14z m890 6 c0 -8 -9 -15 -20 -15 -20 0
-26 11 -13 23 12 13 33 7 33 -8z m920 6 c0 -5 12 -11 27 -13 39 -4 42 -28 4
-28 -17 0 -31 5 -31 10 0 6 -9 10 -20 10 -20 0 -26 11 -13 23 10 10 33 8 33
-2z m728 -9 c2 -7 -6 -12 -17 -12 -21 0 -27 11 -14 24 9 9 26 2 31 -12z m9000
1 c2 -8 -5 -13 -17 -13 -12 0 -21 6 -21 16 0 18 31 15 38 -3z m-14568 -3 c0
-5 -7 -10 -15 -10 -8 0 -15 5 -15 10 0 6 7 10 15 10 8 0 15 -4 15 -10z m5850
0 c0 -5 -7 -10 -15 -10 -8 0 -15 5 -15 10 0 6 7 10 15 10 8 0 15 -4 15 -10z
m6351 0 c27 -15 24 -30 -6 -30 -18 0 -25 5 -25 20 0 23 4 24 31 10z m-14043
-6 c36 -10 25 -24 -18 -24 -29 0 -40 4 -40 15 0 16 20 19 58 9z m1180 -11 c2
-8 -6 -13 -22 -13 -25 0 -33 10 -19 24 10 10 36 3 41 -11z m622 2 c0 -8 -9
-15 -20 -15 -20 0 -26 11 -13 23 12 13 33 7 33 -8z m418 9 c37 -10 25 -24 -23
-24 -42 0 -54 7 -38 23 8 9 31 9 61 1z m1000 -11 c2 -8 -6 -13 -22 -13 -25 0
-33 10 -19 24 10 10 36 3 41 -11z m780 0 c2 -8 -6 -13 -22 -13 -25 0 -33 10
-19 24 10 10 36 3 41 -11z m930 0 c2 -8 -6 -13 -22 -13 -17 0 -26 5 -26 16 0
19 41 16 48 -3z m772 2 c0 -8 -9 -15 -20 -15 -20 0 -26 11 -13 23 12 13 33 7
33 -8z m1650 -6 c0 -5 -7 -9 -15 -9 -15 0 -20 12 -9 23 8 8 24 -1 24 -14z
m483 11 c15 0 27 -4 27 -10 0 -6 -33 -10 -80 -10 -67 0 -80 3 -80 16 0 14 8
16 53 10 28 -3 64 -6 80 -6z m8651 4 c24 -9 19 -24 -8 -24 -26 0 -40 12 -29
24 8 8 17 8 37 0z m726 -14 c0 -5 -4 -10 -9 -10 -6 0 -13 5 -16 10 -3 6 1 10
9 10 9 0 16 -4 16 -10z m60 0 c0 -5 -4 -10 -10 -10 -5 0 -10 5 -10 10 0 6 5
10 10 10 6 0 10 -4 10 -10z m-16012 -17 c2 -9 -8 -13 -32 -13 -26 0 -36 4 -36
16 0 19 61 16 68 -3z m482 2 c0 -10 -11 -15 -35 -15 -54 0 -43 27 13 29 13 1
22 -5 22 -14z m1574 9 c29 -11 16 -24 -24 -24 -29 0 -40 4 -40 15 0 16 35 20
64 9z m604 -11 c2 -9 -8 -13 -32 -13 -20 0 -36 4 -36 9 0 22 60 25 68 4z
m1106 11 c29 -11 17 -24 -23 -24 -38 0 -57 10 -44 24 8 8 46 8 67 0z m601 -9
c0 -5 -15 -11 -32 -13 -32 -3 -45 11 -20 22 19 8 52 2 52 -9z m1183 -2 c2 -8
-6 -13 -22 -13 -25 0 -33 10 -19 24 10 10 36 3 41 -11z m502 2 c0 -10 -11 -15
-35 -15 -33 0 -43 8 -28 23 13 14 63 7 63 -8z m970 -9 c0 -8 -7 -19 -15 -26
-13 -10 -15 -9 -15 12 0 14 3 28 6 31 9 9 24 -2 24 -17z m1688 12 c-5 -16
-128 -24 -128 -9 0 11 29 18 88 20 31 1 42 -3 40 -11z m1072 -28 c0 -16 -4
-30 -10 -30 -5 0 -10 -9 -10 -20 0 -21 -15 -27 -25 -10 -9 15 17 90 32 90 8 0
13 -12 13 -30z m-9638 14 c59 -10 34 -24 -43 -24 -55 0 -69 3 -69 15 0 16 45
20 112 9z m221 -9 c3 -12 -117 -19 -153 -9 -24 7 -24 8 10 15 49 10 140 6 143
-6z m1855 9 c82 -10 61 -24 -38 -24 -73 0 -90 3 -90 15 0 17 38 19 128 9z
m342 -9 c0 -12 -14 -15 -69 -15 -39 0 -72 4 -76 9 -7 12 23 18 93 20 40 1 52
-2 52 -14z m1373 9 c26 -4 44 -11 41 -15 -7 -11 -164 -12 -164 -1 0 23 36 28
123 16z m335 -11 c3 -10 -16 -13 -72 -13 -42 0 -76 4 -76 9 0 21 141 24 148 4z
m1415 11 c68 -10 47 -24 -34 -24 -55 0 -69 3 -69 15 0 17 28 19 103 9z m267
-9 c0 -12 -14 -15 -65 -15 -36 0 -65 4 -65 9 0 13 25 18 83 20 36 1 47 -3 47
-14z m2570 0 c0 -11 -12 -15 -49 -15 -83 0 -77 28 7 29 31 1 42 -3 42 -14z
m-117 -9 c8 -21 -2 -26 -49 -26 -50 0 -67 17 -27 26 15 3 33 7 38 9 21 7 33 4
38 -9z m260 -23 c-3 -10 -13 -26 -22 -36 -8 -10 -16 -26 -17 -35 -2 -9 -11
-24 -21 -32 -10 -8 -29 -31 -41 -51 -26 -42 -108 -119 -127 -119 -7 0 -15 -6
-18 -14 -8 -21 -126 -73 -193 -85 -68 -13 -148 -2 -189 25 -44 29 -68 107 -49
158 13 33 24 14 24 -39 0 -46 4 -60 25 -80 13 -14 36 -25 50 -25 14 0 25 -4
25 -10 0 -6 28 -10 65 -10 37 0 65 4 65 10 0 6 14 10 30 10 17 0 30 5 30 10 0
6 9 10 20 10 11 0 20 5 20 10 0 6 9 10 20 10 11 0 20 5 20 10 0 6 7 10 15 10
16 0 185 162 185 177 0 5 14 22 30 38 17 16 30 34 30 40 0 10 19 35 27 35 1 0
0 -8 -4 -17z m-375 -10 c2 -9 -8 -13 -32 -13 -34 0 -44 8 -29 24 11 11 56 2
61 -11z m-1288 -12 c0 -26 -10 -51 -21 -51 -5 0 -9 16 -9 35 0 24 5 35 15 35
8 0 15 -9 15 -19z m1210 -6 c0 -9 -9 -15 -25 -15 -16 0 -25 6 -25 15 0 9 9 15
25 15 16 0 25 -6 25 -15z m-60 -20 c0 -8 -9 -15 -20 -15 -11 0 -20 7 -20 15 0
8 9 15 20 15 11 0 20 -7 20 -15z m1590 -30 c0 -8 -7 -15 -15 -15 -8 0 -15 7
-15 15 0 8 7 15 15 15 8 0 15 -7 15 -15z m-1687 -27 c-11 -13 -23 -32 -27 -42
-5 -15 -9 -17 -19 -7 -9 10 -8 15 6 25 9 7 17 18 17 24 0 6 6 13 13 15 26 11
30 6 10 -15z m-1073 -174 c0 -148 -2 -174 -15 -174 -13 0 -15 26 -15 173 0 96
3 177 6 180 19 19 24 -20 24 -179z m2740 146 c0 -11 -7 -20 -15 -20 -15 0 -21
21 -8 33 12 13 23 7 23 -13z m-20 -45 c0 -8 -4 -15 -9 -15 -13 0 -22 16 -14
24 11 11 23 6 23 -9z m-40 -101 c0 -8 -7 -14 -15 -14 -15 0 -21 21 -9 33 10 9
24 -2 24 -19z m-20 -39 c0 -8 -7 -15 -15 -15 -8 0 -15 7 -15 15 0 8 7 15 15
15 8 0 15 -7 15 -15z m-20 -40 c0 -8 -7 -15 -15 -15 -8 0 -15 7 -15 15 0 8 7
15 15 15 8 0 15 -7 15 -15z m-12510 -24 c0 -12 -37 -24 -50 -16 -20 12 -10 25
20 25 17 0 30 -4 30 -9z m160 -1 c0 -16 -27 -23 -55 -16 -39 10 -29 26 15 26
22 0 40 -5 40 -10z m3296 -4 c16 -17 20 -106 4 -106 -5 0 -10 -9 -10 -20 0
-18 -7 -20 -66 -20 -43 0 -70 5 -80 14 -18 18 -19 111 -1 131 17 20 133 20
153 1z m1824 -1 c0 -13 -33 -15 -235 -15 l-235 0 0 -45 0 -45 73 0 c39 0 79
-5 87 -10 13 -8 15 -46 12 -263 -3 -290 -4 -284 73 -273 37 6 45 4 45 -8 0
-13 -13 -16 -70 -16 l-70 0 0 265 0 265 -76 0 c-52 0 -80 4 -90 14 -18 18 -19
111 -1 131 19 22 487 22 487 0z m156 1 c8 -8 14 -31 14 -51 0 -29 -3 -36 -17
-33 -12 2 -19 14 -21 36 -3 31 -5 32 -48 32 l-45 0 3 -330 c3 -309 2 -330 -14
-330 -17 0 -18 22 -18 330 0 251 3 334 13 345 16 19 114 20 133 1z m1252 2
c-3 -9 -40 -14 -127 -16 l-122 -3 3 -329 c3 -309 2 -330 -14 -330 -17 0 -18
22 -18 330 0 251 3 334 13 345 17 19 271 22 265 3z m762 -3 c0 -11 -12 -15
-50 -15 l-49 0 -3 -311 c-2 -239 0 -313 10 -321 17 -14 15 -28 -4 -28 -42 0
-44 13 -44 345 0 238 3 319 13 330 18 21 127 21 127 0z m5040 -10 c0 -8 -4
-15 -10 -15 -5 0 -10 -9 -10 -20 0 -11 -4 -20 -10 -20 -5 0 -10 -7 -10 -16 0
-18 -28 -49 -37 -40 -10 9 50 125 65 126 6 0 12 -7 12 -15z m-12570 -5 c0 -5
-16 -16 -34 -25 -31 -15 -48 -30 -119 -106 -10 -11 -15 -24 -12 -29 4 -6 0
-13 -9 -16 -8 -3 -13 -11 -10 -18 6 -17 -13 -66 -26 -66 -5 0 -10 16 -10 35 0
19 5 35 10 35 6 0 10 9 10 20 0 11 5 20 10 20 6 0 10 7 10 15 0 9 25 40 55 70
30 30 61 55 70 55 8 0 15 5 15 10 0 6 9 10 20 10 11 0 20 -4 20 -10z m278 -2
c-3 -7 -11 -13 -18 -13 -7 0 -15 6 -17 13 -3 7 4 12 17 12 13 0 20 -5 18 -12z
m6550 0 c-3 -7 -11 -13 -18 -13 -7 0 -15 6 -17 13 -3 7 4 12 17 12 13 0 20 -5
18 -12z m-6498 -28 c8 -11 22 -20 32 -20 35 0 19 -56 -31 -112 -27 -30 -68
-37 -77 -14 -3 8 -20 19 -37 25 -23 9 -28 14 -19 23 9 9 21 7 51 -10 21 -12
41 -22 44 -22 9 0 47 71 47 88 0 10 -13 22 -30 29 -16 6 -30 16 -30 22 0 19
35 12 50 -9z m6554 -15 c10 -20 16 -48 14 -63 -3 -25 -5 -24 -26 21 -13 26
-28 47 -33 47 -5 0 -9 7 -9 15 0 30 37 16 54 -20z m-3781 3 c-4 -7 -10 -40
-13 -72 -3 -35 -10 -61 -17 -64 -10 -3 -13 16 -13 72 0 75 0 76 26 76 18 0 23
-4 17 -12z m117 2 c0 -5 -9 -10 -19 -10 -11 0 -23 5 -26 10 -4 6 5 10 19 10
14 0 26 -4 26 -10z m6743 -47 c3 -10 11 -43 17 -73 7 -30 16 -63 21 -72 12
-24 11 -28 -6 -28 -8 0 -15 9 -15 20 0 11 -4 20 -10 20 -5 0 -10 11 -10 25 0
14 -4 25 -10 25 -5 0 -10 23 -10 50 0 49 14 68 23 33z m-4605 -21 c-3 -14 -19
-17 -96 -20 -73 -2 -92 0 -92 11 0 23 9 25 101 25 79 0 90 -2 87 -16z m1410
-6 c39 -38 10 -149 -34 -132 -15 6 -15 8 5 25 23 20 28 60 9 79 -7 7 -27 12
-45 12 -26 0 -33 4 -33 20 0 17 6 19 41 16 22 -2 48 -11 57 -20z m-6588 -1
c-3 -5 -31 -10 -63 -10 -39 0 -57 -4 -57 -12 0 -7 -7 -13 -15 -13 -21 0 -72
-47 -90 -83 -8 -17 -15 -52 -15 -79 0 -49 -14 -64 -25 -27 -8 26 3 89 15 89 5
0 7 7 4 15 -6 15 29 73 55 90 56 39 78 45 136 43 36 -2 58 -7 55 -13z m6468
-62 c-2 -61 -6 -78 -18 -78 -10 0 -15 9 -14 30 1 17 2 51 3 78 1 35 5 47 16
47 13 0 15 -13 13 -77z m5842 43 c0 -8 -6 -16 -14 -19 -12 -5 -14 6 -7 31 3 9
21 -1 21 -12z m-11745 -25 c0 -12 -18 -15 -87 -16 -80 -1 -88 0 -88 17 0 17 8
19 88 16 68 -2 87 -6 87 -17z m375 3 c0 -11 6 -14 23 -9 12 4 26 11 32 16 13
13 152 11 160 -2 11 -17 0 -21 -74 -24 -59 -2 -77 -7 -106 -29 -38 -29 -55
-27 -55 6 0 19 -5 20 -60 16 -33 -2 -60 -1 -60 4 0 4 5 8 10 8 6 0 10 7 10 15
0 12 13 15 60 15 48 0 60 -3 60 -16z m530 5 c0 -6 6 -17 14 -24 12 -12 15 -12
20 1 3 9 13 14 20 11 8 -3 17 1 20 9 8 21 152 20 160 -2 3 -8 10 -12 16 -9 11
7 59 -43 60 -62 0 -7 5 -13 10 -13 6 0 10 -22 10 -50 0 -64 -16 -65 -25 0 -9
64 -48 105 -110 115 -51 7 -111 -2 -141 -22 -21 -13 -54 -9 -54 8 0 5 -25 9
-56 9 l-56 0 4 -222 4 -222 34 -7 c36 -8 80 4 80 21 0 5 7 10 15 10 19 0 19
-27 1 -46 -20 -19 -132 -19 -152 0 -19 20 -21 455 -2 486 10 16 24 20 70 20
35 0 58 -4 58 -11z m726 -4 c4 -8 10 -13 15 -10 10 7 78 -65 79 -82 0 -7 5
-13 10 -13 6 0 10 -9 10 -20 0 -11 5 -20 10 -20 6 0 10 -30 10 -70 0 -56 -3
-70 -15 -70 -12 0 -15 14 -15 69 0 39 -5 73 -10 76 -6 4 -8 10 -5 15 7 11 -52
74 -85 91 -14 7 -60 13 -102 14 -42 0 -80 4 -83 7 -19 18 13 28 91 28 66 0 86
-3 90 -15z m504 -3 c0 -16 -10 -17 -85 -16 -47 0 -88 4 -91 7 -18 17 15 27 92
27 74 0 84 -2 84 -18z m656 1 c10 -14 13 -75 14 -260 l0 -243 -76 0 c-87 0
-104 10 -104 64 0 47 27 50 32 4 3 -33 3 -33 58 -33 l55 0 0 220 0 220 -62 3
c-55 3 -63 6 -63 22 0 18 7 20 66 20 52 0 70 -4 80 -17z m209 -3 c0 -10 -12
-16 -39 -18 -49 -4 -67 3 -60 23 9 22 99 17 99 -5z m233 4 c-2 -13 -16 -17
-66 -18 -35 -1 -65 2 -68 6 -12 19 11 28 72 28 55 0 65 -3 62 -16z m472 2 c0
-9 7 -12 20 -9 11 3 20 9 20 14 0 5 27 9 60 9 47 0 60 -3 60 -15 0 -8 5 -15
10 -15 16 0 13 -504 -2 -532 -18 -31 -38 -51 -44 -45 -7 6 14 47 24 47 5 0 8
452 3 508 -1 15 -101 17 -101 2 0 -14 -33 -13 -48 2 -21 21 -153 16 -195 -7
-20 -11 -37 -22 -37 -25 0 -4 -8 -15 -18 -26 -10 -10 -21 -28 -25 -38 -5 -14
-11 -16 -18 -9 -7 7 -7 18 3 34 22 37 87 101 97 95 5 -3 11 1 15 9 8 21 176
22 176 1z m1235 -6 c0 -11 -13 -16 -50 -18 -48 -2 -115 -28 -115 -44 0 -5 -4
-8 -10 -8 -15 0 -12 16 5 34 8 8 15 20 15 26 0 7 8 10 20 7 13 -3 20 0 20 9 0
12 12 14 58 12 43 -2 57 -7 57 -18z m433 3 c-5 -26 -131 -25 -136 0 -3 15 7
17 68 17 63 0 71 -2 68 -17z m1118 2 c4 -8 10 -12 16 -9 11 7 57 -40 77 -78 7
-15 10 -35 7 -45 -7 -17 -8 -17 -21 1 -8 10 -12 23 -9 28 3 4 -11 24 -31 42
-29 28 -47 36 -88 40 -29 3 -63 4 -77 3 -16 -1 -26 4 -28 16 -3 15 5 17 73 17
58 0 77 -3 81 -15z m469 -5 c0 -24 -89 -21 -93 3 -3 16 3 18 45 15 35 -2 48
-7 48 -18z m413 3 c-2 -13 -17 -17 -76 -19 -40 -1 -79 -7 -87 -14 -17 -14 -35
-5 -35 17 0 10 6 14 20 10 13 -3 20 0 20 9 0 11 18 14 81 14 70 0 80 -2 77
-17z m310 -13 c13 -17 21 -34 17 -40 -11 -17 -37 -11 -42 11 -5 16 -12 19 -42
17 l-36 -3 0 -238 c0 -219 -1 -237 -17 -237 -17 0 -18 18 -18 240 0 275 2 280
75 279 32 0 45 -6 63 -29z m182 20 c0 -6 10 -21 23 -34 l22 -23 22 26 c18 21
25 23 35 13 11 -11 9 -16 -7 -27 -11 -8 -28 -22 -37 -31 -10 -10 -19 -16 -20
-13 -2 2 -8 13 -14 24 -18 32 -81 49 -133 36 -24 -7 -46 -9 -50 -5 -3 4 0 9 7
11 6 3 12 11 12 19 0 11 16 14 70 14 42 0 70 -4 70 -10z m235 -1 c11 -17 0
-21 -60 -24 -54 -2 -72 5 -60 25 8 13 112 13 120 -1z m410 -9 c0 -12 -15 -15
-75 -15 -63 1 -75 4 -78 18 -3 16 5 18 75 15 61 -2 78 -6 78 -18z m411 5 c4
-8 10 -12 16 -9 11 7 53 -34 44 -44 -4 -3 -21 2 -39 11 -37 20 -113 25 -174
13 -37 -7 -43 -5 -43 9 0 12 6 16 20 12 13 -3 20 0 20 9 0 21 148 20 156 -1z
m-9108 -23 c2 -7 -3 -12 -12 -12 -9 0 -16 7 -16 16 0 17 22 14 28 -4z m227 8
c3 -6 -1 -13 -10 -16 -19 -8 -30 0 -20 15 8 14 22 14 30 1z m590 0 c3 -6 -1
-13 -10 -16 -19 -8 -30 0 -20 15 8 14 22 14 30 1z m812 -7 c2 -6 -4 -14 -15
-17 -29 -10 -80 -64 -99 -107 -20 -47 -33 -50 -33 -9 0 17 5 30 10 30 6 0 10
6 10 14 0 7 19 34 43 59 40 43 76 56 84 30z m508 8 c7 -12 -12 -24 -25 -16
-11 7 -4 25 10 25 5 0 11 -4 15 -9z m260 -18 c25 -28 35 -93 15 -93 -5 0 -10
-7 -10 -16 0 -20 -24 -44 -44 -44 -9 0 -16 7 -16 16 0 9 -5 12 -12 8 -7 -4 -8
-3 -4 4 4 6 13 9 20 6 8 -3 23 10 37 32 l22 37 -26 22 c-14 13 -31 25 -38 27
-16 5 -2 28 17 28 8 0 26 -12 39 -27z m79 -25 c-7 -66 -11 -78 -24 -78 -6 0
-10 27 -10 65 0 58 2 65 20 65 17 0 19 -5 14 -52z m289 32 c23 -27 22 -86 -3
-112 -16 -17 -27 -20 -65 -16 -25 3 -48 8 -51 11 -14 14 11 27 52 27 l44 0 0
39 c0 22 -4 43 -10 46 -5 3 -10 10 -10 16 0 16 25 10 43 -11z m468 -2 c10 -18
8 -24 -7 -35 -16 -12 -19 -11 -27 9 -16 43 13 66 34 26z m39 7 c0 -8 -4 -15
-9 -15 -13 0 -22 16 -14 24 11 11 23 6 23 -9z m190 0 c0 -8 -7 -15 -15 -15
-16 0 -20 12 -8 23 11 12 23 8 23 -8z m1708 -3 c2 -7 -3 -12 -12 -12 -9 0 -16
7 -16 16 0 17 22 14 28 -4z m235 12 c3 -4 -13 -26 -37 -49 -49 -50 -68 -102
-70 -195 -2 -52 -6 -66 -19 -68 -15 -3 -17 7 -17 77 0 47 4 81 10 81 6 0 10
14 10 30 0 17 5 30 10 30 6 0 10 7 10 16 0 17 36 54 52 54 4 0 8 7 8 15 0 15
31 21 43 9z m197 -9 c0 -8 -9 -15 -20 -15 -20 0 -26 11 -13 23 12 13 33 7 33
-8z m907 -1 c2 -6 -10 -17 -27 -24 -21 -9 -30 -19 -30 -36 0 -13 5 -24 10 -24
6 0 10 -5 10 -11 0 -7 8 -18 18 -25 13 -10 14 -15 5 -25 -10 -10 -17 -9 -33 9
-11 11 -20 28 -20 37 0 8 -4 15 -10 15 -18 0 -10 50 10 62 11 7 20 19 20 26 0
16 42 12 47 -4z m527 7 c6 -10 -62 -66 -71 -58 -3 3 3 19 13 36 18 30 47 41
58 22z m148 -6 c0 -5 -5 -11 -11 -13 -6 -2 -11 4 -11 13 0 9 5 15 11 13 6 -2
11 -8 11 -13z m438 4 c0 -15 26 -39 34 -32 3 4 6 -3 6 -15 0 -12 5 -22 10 -22
6 0 10 -77 10 -210 l0 -210 -60 0 c-33 0 -60 4 -60 10 0 6 -7 10 -15 10 -18 0
-20 21 -3 38 19 19 26 14 20 -13 -4 -23 -2 -25 35 -25 21 0 44 5 49 10 13 13
7 308 -7 362 -5 20 -23 48 -39 62 -37 30 -38 46 -5 46 14 0 25 -5 25 -11z
m718 -19 c21 -28 28 -50 16 -50 -12 0 -64 62 -58 71 9 15 19 10 42 -21z m182
15 c0 -9 -11 -20 -24 -24 -13 -5 -26 -17 -29 -25 -4 -9 -11 -16 -17 -16 -18 0
-11 29 10 42 11 7 20 18 20 25 0 7 9 13 20 13 11 0 20 -7 20 -15z m216 4 c3
-6 2 -15 -2 -19 -12 -12 -38 5 -30 19 9 14 23 14 32 0z m-8776 -17 c0 -10 -76
-92 -85 -92 -3 0 -5 7 -5 16 0 17 36 54 52 54 4 0 8 7 8 15 0 8 7 15 15 15 8
0 15 -4 15 -8z m308 -10 c2 -7 -6 -12 -17 -12 -21 0 -27 11 -14 24 9 9 26 2
31 -12z m1822 3 c0 -8 -4 -15 -10 -15 -5 0 -10 7 -10 15 0 8 5 15 10 15 6 0
10 -7 10 -15z m5265 -5 c0 -8 -8 -16 -17 -18 -13 -2 -18 3 -18 18 0 15 5 20
18 18 9 -2 17 -10 17 -18z m4535 11 c0 -6 -4 -13 -10 -16 -5 -3 -10 1 -10 9 0
9 5 16 10 16 6 0 10 -4 10 -9z m-9050 -116 c0 -96 -3 -115 -15 -115 -12 0 -15
19 -15 115 0 96 3 115 15 115 12 0 15 -19 15 -115z m-1970 53 c0 -27 -19 -22
-30 8 -15 39 -12 49 10 29 11 -10 20 -26 20 -37z m2650 10 c0 -17 -30 -27 -30
-10 0 4 -3 18 -7 30 -5 22 -4 23 16 11 11 -8 21 -22 21 -31z m5268 5 c16 -36
15 -53 -3 -53 -14 0 -19 11 -16 37 1 6 -3 14 -9 18 -14 9 -12 35 3 30 6 -3 18
-17 25 -32z m95 -4 c-5 -18 -14 -34 -21 -37 -19 -6 -14 49 5 64 24 16 26 13
16 -27z m-7773 21 c0 -5 -4 -10 -10 -10 -5 0 -10 5 -10 10 0 6 5 10 10 10 6 0
10 -4 10 -10z m4100 0 c0 -5 -7 -10 -15 -10 -8 0 -15 5 -15 10 0 6 7 10 15 10
8 0 15 -4 15 -10z m450 -16 c0 -21 -27 -17 -33 5 -3 14 0 17 14 14 11 -3 19
-12 19 -19z m680 4 c0 -12 -7 -30 -17 -40 -15 -17 -15 -19 0 -36 10 -10 17
-26 17 -35 0 -9 5 -17 10 -17 6 0 10 -7 10 -15 0 -8 -4 -15 -10 -15 -5 0 -10
6 -10 13 0 6 -17 27 -37 46 -31 28 -34 35 -22 45 8 6 21 26 28 44 15 37 31 42
31 10z m910 -15 c0 -18 -16 -24 -28 -10 -5 6 -9 19 -9 29 0 13 4 14 19 5 10
-7 18 -17 18 -24z m98 -1 c2 -7 -3 -12 -12 -12 -9 0 -16 7 -16 16 0 17 22 14
28 -4z m-7008 -33 c0 -11 -5 -19 -10 -19 -12 0 -30 41 -23 53 8 13 33 -14 33
-34z m1690 28 c0 -7 -6 -21 -14 -32 -7 -11 -16 -37 -20 -57 -9 -50 -26 -49
-26 2 0 22 5 40 10 40 6 0 10 7 10 15 0 17 20 44 33 45 4 0 7 -6 7 -13z m3200
-13 c0 -8 -7 -14 -15 -14 -15 0 -21 21 -9 33 10 9 24 -2 24 -19z m3940 16 c0
-5 -7 -10 -15 -10 -8 0 -15 5 -15 10 0 6 7 10 15 10 8 0 15 -4 15 -10z m2680
2 c0 -10 -22 -32 -32 -32 -5 0 -3 9 4 20 13 20 28 27 28 12z m-10079 -25 c25
-17 33 -30 34 -52 l0 -30 -92 0 c-50 0 -95 3 -99 7 -13 13 14 57 48 78 43 26
67 25 109 -3z m3707 0 c2 -10 -3 -17 -12 -17 -18 0 -29 16 -21 31 9 14 29 6
33 -14z m82 -23 c7 -12 10 -30 8 -40 -3 -17 -13 -19 -83 -19 -72 0 -80 2 -80
19 0 18 7 19 68 17 37 -1 67 1 67 5 0 3 -9 15 -21 25 -26 22 -17 44 11 27 10
-7 24 -22 30 -34z m1071 23 c61 -41 45 -91 -28 -85 -27 2 -39 8 -41 21 -3 14
4 17 32 17 39 0 43 5 24 23 -18 17 -71 16 -84 -1 -12 -16 -37 -7 -32 10 4 10
59 34 84 37 6 0 26 -9 45 -22z m888 12 c32 -11 43 -39 16 -39 -8 0 -15 3 -15
8 0 14 -79 8 -85 -6 -3 -7 -10 -10 -16 -7 -5 4 -16 -1 -24 -11 -13 -18 -14
-18 -34 3 -20 21 -28 43 -16 43 3 0 14 -6 25 -12 14 -9 23 -10 28 -3 7 10 57
32 78 34 6 1 25 -4 43 -10z m1120 2 c24 -16 1 -33 -40 -29 -26 2 -40 -1 -44
-10 -3 -8 -11 -12 -18 -9 -6 2 -17 -3 -24 -12 -10 -14 -14 -14 -32 6 -22 23
-28 53 -11 53 5 0 13 -8 19 -17 9 -18 22 -15 81 18 20 11 52 11 69 0z m-2959
-21 c0 -11 -7 -20 -15 -20 -15 0 -21 21 -8 33 12 13 23 7 23 -13z m2700 -180
c0 -153 -3 -200 -12 -200 -10 0 -13 43 -11 188 1 103 2 193 2 200 1 6 6 12 11
12 6 0 10 -73 10 -200z m670 184 c0 -11 -8 -14 -27 -12 -39 4 -42 28 -4 28 21
0 31 -5 31 -16z m-8985 -4 c4 -6 -7 -23 -24 -39 -17 -16 -31 -36 -31 -45 0 -9
-7 -16 -15 -16 -26 0 -17 47 16 79 32 33 44 37 54 21z m116 -11 c30 -21 39
-49 16 -49 -7 0 -19 9 -26 19 -8 11 -20 17 -27 14 -14 -5 -28 13 -19 27 9 15
24 12 56 -11z m537 8 c25 -12 30 -37 7 -37 -8 0 -15 4 -15 9 0 4 -18 6 -39 4
-39 -4 -58 8 -46 27 8 13 63 11 93 -3z m489 -11 c-2 -6 -10 -11 -18 -11 -8 0
-21 -8 -30 -17 -9 -10 -22 -18 -28 -18 -23 0 -6 33 24 50 31 18 59 16 52 -4z
m74 -15 c15 -29 17 -53 14 -177 -3 -142 -3 -144 18 -144 12 0 32 -3 44 -6 14
-4 28 1 42 15 25 25 41 27 41 5 0 -31 -27 -44 -90 -44 -90 0 -90 -1 -90 194 0
138 -2 164 -14 160 -16 -6 -30 11 -21 27 12 18 37 5 56 -30z m925 28 c10 -17
-13 -36 -27 -22 -12 12 -4 33 11 33 5 0 12 -5 16 -11z m102 -12 c2 -11 -3 -17
-17 -17 -23 0 -35 15 -26 31 10 15 39 6 43 -14z m220 -107 c2 -135 15 -177 59
-201 13 -7 23 -17 23 -23 0 -6 14 -11 32 -11 17 0 33 -6 35 -12 6 -17 -41 -17
-68 -1 -36 22 -89 77 -89 93 0 8 -4 15 -10 15 -6 0 -10 46 -10 119 0 83 -4
121 -12 123 -17 6 1 30 20 26 15 -3 17 -21 20 -128z m776 98 c-3 -5 -12 -7
-20 -4 -8 3 -14 1 -14 -4 0 -6 -6 -10 -14 -10 -8 0 -17 -6 -19 -12 -4 -10 -6
-10 -6 -1 -1 7 11 24 25 38 20 20 29 23 40 14 7 -6 11 -16 8 -21z m68 15 c22
-20 24 -53 3 -53 -8 0 -15 9 -15 20 0 12 -5 17 -14 14 -16 -6 -30 11 -21 26 9
15 26 12 47 -7z m428 -2 c0 -4 -9 -13 -20 -21 -16 -12 -20 -26 -20 -78 0 -53
4 -67 25 -87 38 -39 105 -27 105 19 0 9 5 16 10 16 6 0 10 23 10 50 0 28 -4
50 -10 50 -5 0 -10 9 -10 20 0 32 18 23 35 -16 56 -136 -72 -256 -170 -159
-24 25 -35 58 -35 106 0 40 6 60 25 85 16 21 31 31 40 28 8 -4 15 -9 15 -13z
m86 8 c10 -17 -13 -36 -27 -22 -12 12 -4 33 11 33 5 0 12 -5 16 -11z m1139
-10 c0 -8 -6 -13 -14 -11 -8 2 -18 -3 -22 -10 -4 -7 -11 -9 -15 -5 -9 9 26 49
40 44 6 -2 11 -10 11 -18z m73 -6 c22 -26 23 -34 21 -179 0 -84 2 -158 6 -164
3 -5 -1 -13 -10 -17 -10 -3 -21 0 -26 8 -5 8 -9 89 -9 181 0 145 -2 167 -15
162 -10 -4 -15 0 -15 15 0 29 20 26 48 -6z m1948 16 c3 -6 2 -15 -2 -19 -12
-12 -38 5 -30 19 9 14 23 14 32 0z m954 -25 c10 -21 15 -70 16 -174 1 -80 5
-153 9 -163 5 -13 2 -17 -14 -17 -21 0 -21 4 -21 166 0 157 -1 168 -21 185
-11 10 -18 23 -14 29 10 17 28 7 45 -26z m190 17 c0 -4 -9 -13 -20 -21 -11 -8
-20 -22 -20 -32 0 -10 -7 -18 -15 -18 -21 0 -19 33 5 63 18 23 50 28 50 8z
m54 3 c23 -22 20 -54 -4 -54 -13 0 -20 7 -20 19 0 11 -5 21 -12 23 -12 4 -3
28 12 28 5 0 16 -7 24 -16z m871 6 c8 14 35 13 35 -1 0 -7 -10 -20 -22 -31
-21 -18 -22 -18 -41 1 -22 21 -14 50 8 31 9 -8 15 -8 20 0z m-9877 -43 c3 -32
0 -37 -17 -37 -18 0 -21 6 -21 41 0 33 3 40 18 37 12 -2 18 -14 20 -41z m640
25 c2 -7 -3 -12 -12 -12 -9 0 -16 7 -16 16 0 17 22 14 28 -4z m3662 -172 l0
-190 -76 0 c-96 0 -104 8 -104 94 0 52 3 66 15 66 13 0 21 -33 16 -64 -1 -5 1
-22 4 -38 7 -28 9 -29 58 -26 l52 3 2 160 c1 88 2 166 3 173 0 6 7 12 15 12
13 0 15 -28 15 -190z m1900 180 c0 -5 -4 -10 -10 -10 -5 0 -10 5 -10 10 0 6 5
10 10 10 6 0 10 -4 10 -10z m1670 -4 c0 -8 6 -16 13 -18 18 -7 27 -339 9 -346
-7 -2 -17 -1 -22 4 -11 11 -18 374 -7 374 4 0 7 -6 7 -14z m820 6 c0 -4 -9
-14 -20 -22 -14 -10 -20 -26 -20 -52 0 -27 -4 -38 -15 -38 -27 0 -18 51 18
108 9 13 37 17 37 4z m760 -33 c0 -25 -24 -35 -102 -42 -58 -5 -68 -4 -68 10
0 11 7 14 26 10 16 -3 28 0 31 9 3 8 19 14 38 14 25 0 34 5 38 22 5 18 8 19
21 8 9 -7 16 -21 16 -31z m300 26 c0 -8 -7 -15 -15 -15 -16 0 -20 12 -8 23 11
12 23 8 23 -8z m478 -8 c2 -10 -3 -17 -12 -17 -10 0 -16 9 -16 21 0 24 23 21
28 -4z m2352 2 c0 -14 -25 -39 -39 -39 -6 0 -11 -5 -11 -12 0 -6 -3 -9 -6 -6
-9 10 26 68 41 68 8 0 15 -5 15 -11z m-11460 -29 c0 -16 -4 -30 -9 -30 -12 0
-24 37 -16 50 12 20 25 10 25 -20z m260 10 c0 -11 -4 -20 -10 -20 -5 0 -10 -9
-10 -20 0 -11 -4 -20 -10 -20 -6 0 -10 -53 -10 -140 l0 -140 -80 0 c-75 0 -80
1 -80 21 0 17 4 19 18 13 9 -4 37 -8 62 -8 l45 -1 5 135 c4 101 10 143 23 168
19 36 47 43 47 12z m270 -148 l0 -169 -25 -11 c-14 -7 -50 -12 -80 -12 -49 0
-55 2 -55 21 0 18 4 20 23 14 12 -4 41 -8 65 -9 l42 -3 0 162 c0 89 3 165 7
168 19 20 23 -8 23 -161z m1280 158 c0 -5 -6 -10 -14 -10 -9 0 -12 -7 -9 -20
4 -14 0 -20 -11 -20 -19 0 -20 13 -4 40 13 21 38 27 38 10z m5095 -171 l0
-174 -52 0 c-58 -1 -73 12 -20 17 l32 3 3 155 c2 165 5 184 25 177 9 -3 12
-47 12 -178z m-255 156 c0 -8 -7 -15 -15 -15 -8 0 -15 7 -15 15 0 8 7 15 15
15 8 0 15 -7 15 -15z m548 -7 c-3 -20 -9 -23 -48 -23 -34 0 -46 4 -48 17 -3
13 6 18 40 21 24 2 47 4 51 5 5 1 7 -8 5 -20z m-7698 -68 c0 -64 -3 -80 -15
-80 -12 0 -15 16 -15 80 0 64 3 80 15 80 12 0 15 -16 15 -80z m3745 0 c0 -50
-4 -75 -12 -77 -10 -4 -13 16 -13 77 0 61 3 81 13 78 8 -3 12 -28 12 -78z
m2095 20 c0 -53 -2 -60 -20 -60 -17 0 -20 7 -20 53 0 56 4 67 27 67 9 0 13
-17 13 -60z m3118 -95 c3 -177 0 -185 -84 -185 -40 0 -56 4 -63 18 -10 16 -10
16 -11 -2 0 -13 -5 -17 -20 -13 -13 3 -20 0 -20 -9 0 -10 -12 -14 -40 -14 -29
0 -40 4 -40 15 0 14 22 20 62 17 9 -1 30 11 47 27 26 24 31 26 31 11 0 -21 32
-31 71 -23 l29 6 0 147 c0 80 3 150 7 154 22 21 28 -10 31 -149z m212 145 c0
-5 9 -10 20 -10 11 0 20 -7 20 -15 0 -8 -9 -15 -20 -15 -11 0 -20 5 -20 10 0
6 -3 9 -7 9 -21 -3 -33 2 -33 16 0 8 9 15 20 15 11 0 20 -4 20 -10z m-4060
-85 c0 -66 -3 -85 -14 -85 -19 0 -24 27 -19 91 5 66 9 79 23 79 6 0 10 -33 10
-85z m4518 67 c2 -7 -3 -12 -12 -12 -9 0 -16 7 -16 16 0 17 22 14 28 -4z
m-2950 -4 c-7 -19 -38 -22 -38 -4 0 10 9 16 21 16 12 0 19 -5 17 -12z m907 -1
c0 -13 -74 -36 -81 -26 -10 17 21 39 51 36 17 -1 30 -6 30 -10z m1436 -13 c5
-15 7 -29 5 -32 -8 -7 -36 25 -36 42 0 25 20 18 31 -10z m-8651 -36 c0 -64
-24 -109 -71 -132 -58 -29 -101 -18 -151 37 -31 34 -36 57 -13 57 8 0 15 -7
15 -16 0 -20 24 -44 44 -44 9 0 16 -4 16 -10 0 -5 14 -10 30 -10 22 0 41 10
65 35 31 30 35 41 35 85 0 38 4 50 15 50 11 0 15 -12 15 -52z m900 27 c0 -16
-6 -25 -15 -25 -9 0 -15 9 -15 25 0 16 6 25 15 25 9 0 15 -9 15 -25z m5070 15
c0 -5 7 -10 15 -10 8 0 15 -7 15 -15 0 -8 -7 -15 -15 -15 -8 0 -15 5 -15 10 0
6 -25 10 -55 10 l-55 0 0 -70 0 -70 40 0 c51 0 90 34 90 80 0 21 5 30 16 30
14 0 16 -8 11 -46 -7 -64 -22 -76 -106 -82 -69 -5 -71 -4 -81 22 -11 30 -14
125 -4 150 5 12 21 16 75 16 39 0 69 -4 69 -10z m790 -86 c0 -72 -3 -95 -12
-92 -9 3 -14 31 -16 83 -3 84 1 105 18 105 6 0 10 -37 10 -96z m-3760 -64 l0
-150 -80 0 c-73 0 -80 2 -80 20 0 21 15 27 25 10 10 -16 94 -8 100 10 3 8 3
58 0 110 -6 107 0 150 21 150 11 0 14 -27 14 -150z m3260 137 c0 -7 -8 -17
-18 -24 -11 -6 -27 -27 -36 -47 -20 -42 -36 -47 -36 -11 0 15 13 40 33 60 33
35 57 44 57 22z m2020 -1 c0 -8 -9 -17 -19 -21 -11 -3 -26 -21 -36 -40 -18
-39 -35 -46 -35 -15 0 22 57 88 78 89 6 1 12 -5 12 -13z m598 3 c-2 -6 -8 -10
-13 -10 -5 0 -11 4 -13 10 -2 6 4 11 13 11 9 0 15 -5 13 -11z m-8358 -80 c0
-91 -16 -101 -18 -12 -2 55 4 93 14 93 2 0 4 -36 4 -81z m11010 71 c0 -16
-208 -220 -225 -220 -8 0 -15 3 -15 6 0 3 48 55 108 114 99 101 132 125 132
100z m-12510 -20 c12 -23 6 -40 -16 -40 -9 0 -14 11 -14 30 0 35 14 39 30 10z
m150 5 c0 -9 20 -36 45 -60 36 -36 51 -45 80 -45 24 0 35 -5 35 -15 0 -19 -51
-20 -83 -2 -56 31 -115 106 -101 128 9 14 24 10 24 -6z m2730 -10 c0 -26 -14
-33 -25 -15 -9 14 1 40 15 40 5 0 10 -11 10 -25z m5230 16 c0 -13 -26 -32 -33
-24 -14 13 -6 33 13 33 11 0 20 -4 20 -9z m1790 -6 c0 -8 -9 -15 -20 -15 -11
0 -20 7 -20 15 0 8 9 15 20 15 11 0 20 -7 20 -15z m370 -15 c0 -5 -4 -10 -10
-10 -5 0 -10 5 -10 10 0 6 5 10 10 10 6 0 10 -4 10 -10z m-1653 -32 c-3 -7 -5
-2 -5 12 0 14 2 19 5 13 2 -7 2 -19 0 -25z m1071 14 c2 -7 -3 -12 -12 -12 -9
0 -16 7 -16 16 0 17 22 14 28 -4z m-2558 -22 c0 -31 -16 -41 -26 -15 -8 19 2
45 16 45 5 0 10 -13 10 -30z m288 -1 c4 -30 -34 -88 -69 -108 -24 -13 -29 -12
-58 8 -41 30 -41 77 1 100 34 20 48 7 20 -18 -12 -10 -22 -24 -22 -30 0 -14
25 -41 37 -41 16 0 53 49 53 69 0 51 32 68 38 20z m654 16 c0 -5 -5 -11 -11
-13 -6 -2 -11 4 -11 13 0 9 5 15 11 13 6 -2 11 -8 11 -13z m808 -105 c0 -113
-1 -120 -20 -120 -20 0 -28 24 -11 34 4 3 6 39 3 80 -5 79 2 126 18 126 6 0
10 -48 10 -120z m-6487 90 c9 -11 17 -27 17 -35 0 -8 9 -15 20 -15 11 0 20 -4
20 -10 0 -5 20 -10 45 -10 25 0 45 5 45 10 0 6 9 10 20 10 11 0 20 5 20 10 0
6 18 10 40 10 33 0 40 -3 40 -20 0 -11 5 -20 10 -20 6 0 10 -9 10 -20 0 -11 5
-20 10 -20 15 0 12 -30 -5 -47 -9 -8 -22 -12 -30 -9 -9 3 -15 0 -15 -9 0 -8
-7 -15 -15 -15 -8 0 -15 7 -15 15 0 8 6 15 13 15 21 0 55 42 40 47 -7 3 -13
13 -13 24 0 28 -25 34 -66 14 -20 -10 -54 -20 -75 -22 -41 -6 -99 14 -99 34 0
7 -7 13 -15 13 -16 0 -48 54 -38 64 10 10 18 7 36 -14z m5835 2 c2 -7 -3 -12
-12 -12 -9 0 -16 7 -16 16 0 17 22 14 28 -4z m90 1 c-5 -25 -28 -28 -28 -4 0
12 6 21 16 21 9 0 14 -7 12 -17z m1050 0 c2 -7 -4 -13 -13 -13 -19 0 -45 -23
-45 -40 0 -13 24 -40 36 -40 3 0 15 10 25 21 12 14 24 19 36 14 16 -6 15 -9
-10 -31 -35 -30 -70 -31 -97 -2 -23 25 -24 31 -7 60 24 44 64 61 75 31z m362
-4 c0 -5 -7 -9 -15 -9 -15 0 -20 12 -9 23 8 8 24 -1 24 -14z m560 6 c0 -9 7
-18 15 -21 8 -3 17 -14 20 -24 10 -32 130 -162 191 -206 23 -17 26 -25 17 -34
-9 -10 -32 7 -107 80 -53 52 -96 101 -96 110 0 8 -9 22 -20 30 -11 8 -20 22
-20 32 0 10 -4 18 -10 18 -5 0 -10 7 -10 15 0 8 5 15 10 15 6 0 10 -7 10 -15z
m-9754 -9 c8 -8 14 -20 14 -27 0 -7 9 -23 20 -35 l21 -21 -25 -31 c-14 -16
-37 -33 -51 -36 -14 -4 -25 -13 -25 -21 0 -8 -9 -15 -20 -15 -11 0 -20 6 -20
13 0 16 38 40 50 32 6 -4 10 0 10 8 0 8 9 22 19 31 22 20 18 39 -11 68 -22 22
-78 16 -78 -8 0 -8 -9 -14 -20 -14 -11 0 -20 -4 -20 -10 0 -5 -16 -10 -35 -10
-24 0 -35 5 -35 15 0 10 11 15 35 15 19 0 35 5 35 10 0 6 8 10 18 10 10 0 24
9 32 20 17 24 65 27 86 6z m2209 -16 c0 -13 -6 -25 -12 -27 -9 -3 -13 6 -13
27 0 21 4 30 13 28 6 -3 12 -15 12 -28z m155 14 c0 -9 9 -25 21 -35 20 -17 19
-39 -1 -39 -13 0 -60 72 -54 82 9 14 34 9 34 -8z m3270 1 c0 -8 -4 -15 -9 -15
-13 0 -22 16 -14 24 11 11 23 6 23 -9z m3265 -10 c0 -11 -8 -21 -17 -23 -14
-3 -18 3 -18 23 0 20 4 26 18 23 9 -2 17 -12 17 -23z m505 -41 c0 -46 -5 -70
-16 -81 -23 -24 -37 -3 -23 36 6 18 9 47 6 66 -6 35 -2 45 20 45 9 0 13 -18
13 -66z m-9920 41 c0 -8 -7 -15 -15 -15 -8 0 -15 7 -15 15 0 8 7 15 15 15 8 0
15 -7 15 -15z m9750 -6 c0 -5 -7 -9 -15 -9 -15 0 -20 12 -9 23 8 8 24 -1 24
-14z m-8660 -19 c0 -16 -4 -30 -10 -30 -5 0 -10 -8 -10 -18 0 -19 -48 -67 -87
-89 -27 -16 -33 -16 -33 -3 0 6 7 10 15 10 8 0 15 4 15 8 0 5 17 27 39 49 21
23 41 55 44 72 8 40 27 40 27 1z m1145 10 c0 -7 -6 -15 -12 -17 -8 -3 -13 4
-13 17 0 13 5 20 13 18 6 -3 12 -11 12 -18z m895 0 c0 -11 5 -20 10 -20 6 0
10 -7 10 -15 0 -8 -7 -15 -15 -15 -8 0 -15 6 -15 14 0 22 -23 25 -45 6 -29
-24 -99 -44 -129 -36 -42 10 -30 26 19 26 25 0 45 5 45 10 0 6 9 10 20 10 11
0 20 5 20 10 0 6 9 10 20 10 11 0 20 5 20 10 0 6 9 10 20 10 13 0 20 -7 20
-20z m4910 -14 c0 -19 5 -47 10 -62 14 -35 -2 -54 -24 -31 -22 22 -23 127 -1
127 10 0 15 -10 15 -34z m130 8 c0 -26 20 -54 39 -54 6 0 11 -4 11 -10 0 -16
-42 -12 -62 7 -18 16 -25 63 -11 76 13 14 23 6 23 -19z m427 -6 c-3 -8 -6 -5
-6 6 -1 11 2 17 5 13 3 -3 4 -12 1 -19z m-5180 -4 c11 -11 13 -18 5 -26 -12
-12 -42 11 -42 31 0 16 19 13 37 -5z m2763 -4 c11 -16 26 -20 68 -20 71 0 67
-24 -4 -28 -43 -3 -54 1 -77 24 -15 14 -24 30 -21 35 8 14 18 11 34 -11z m210
0 c0 -11 5 -20 10 -20 6 0 10 -11 10 -25 0 -33 -26 -33 -34 1 -6 22 -10 25
-36 19 -22 -5 -30 -3 -30 7 0 22 22 38 52 38 21 0 28 -5 28 -20z m1890 5 c0
-16 -30 -55 -42 -55 -5 0 -8 7 -8 15 0 8 5 15 10 15 6 0 10 9 10 20 0 11 7 20
15 20 8 0 15 -7 15 -15z m886 -15 c0 -14 3 -30 6 -35 10 -17 20 -75 13 -75
-15 0 -35 31 -35 54 0 14 -4 26 -10 26 -5 0 -10 14 -10 31 0 24 4 30 18 27 10
-2 17 -13 18 -28z m504 10 c11 -15 26 -20 62 -20 53 0 68 -23 24 -34 -28 -7
-50 0 -88 26 -32 22 -49 17 -66 -22 -12 -26 -11 -33 5 -54 10 -14 28 -26 41
-26 13 0 22 -6 22 -15 0 -9 -9 -15 -25 -15 -14 0 -25 5 -25 10 0 6 -7 10 -16
10 -44 0 -62 83 -24 110 11 8 20 22 20 32 0 26 51 24 70 -2z m110 10 c0 -5 -4
-10 -10 -10 -5 0 -10 5 -10 10 0 6 5 10 10 10 6 0 10 -4 10 -10z m-9760 -9 c0
-13 74 -84 104 -100 31 -17 34 -41 6 -41 -11 0 -20 7 -20 16 0 8 -4 12 -10 9
-5 -3 -10 -1 -10 4 0 6 -7 11 -15 11 -20 0 -65 45 -65 65 0 8 -4 15 -10 15 -5
0 -10 7 -10 15 0 8 7 15 15 15 8 0 15 -4 15 -9z m4340 -21 c7 -17 10 -33 6
-37 -10 -10 -46 28 -46 49 0 29 26 21 40 -12z m1680 10 c0 -20 14 -41 58 -86
23 -25 29 -44 12 -44 -16 0 -80 68 -80 85 0 8 -4 15 -10 15 -5 0 -10 11 -10
25 0 16 6 25 15 25 8 0 15 -9 15 -20z m-5440 0 c0 -5 -4 -10 -10 -10 -5 0 -10
5 -10 10 0 6 5 10 10 10 6 0 10 -4 10 -10z m1660 -23 c0 -5 18 -28 40 -49 22
-22 40 -43 40 -47 0 -4 12 -7 27 -6 14 0 28 -6 30 -12 3 -8 -4 -13 -16 -13
-29 0 -57 17 -108 67 -42 42 -59 89 -28 77 8 -4 15 -11 15 -17z m496 -4 c9
-16 26 -34 36 -41 19 -14 25 -42 8 -42 -19 0 -80 69 -80 90 0 28 14 25 36 -7z
m752 -50 c-2 -54 -6 -68 -20 -71 -14 -3 -16 4 -11 51 4 35 2 57 -6 61 -19 12
-12 26 14 26 26 0 26 -1 23 -67z m2192 11 c0 -61 -18 -91 -48 -79 -16 6 -16 7
1 16 13 8 17 23 17 64 0 42 4 55 15 55 12 0 15 -13 15 -56z m1390 36 c0 -11
-4 -20 -10 -20 -5 0 -10 -8 -10 -17 0 -23 -39 -63 -62 -63 -27 0 -22 18 13 47
17 15 35 37 40 50 10 28 29 30 29 3z m-6457 -12 c4 -12 4 -24 2 -26 -6 -6 -35
25 -35 37 0 20 28 11 33 -11z m2537 -14 c0 -28 -21 -54 -43 -54 -9 0 -17 -6
-20 -12 -3 -9 -8 -10 -16 -2 -8 7 -3 16 19 32 16 13 30 31 30 42 0 11 7 20 15
20 9 0 15 -10 15 -26z m3996 -10 c9 -19 28 -42 40 -51 29 -19 31 -33 4 -33
-11 0 -20 7 -20 15 0 8 -4 15 -8 15 -20 0 -52 39 -52 64 0 37 16 32 36 -10z
m-5686 0 c0 -8 -5 -12 -10 -9 -6 4 -8 11 -5 16 9 14 15 11 15 -7z m6240 -24
c0 -28 -4 -40 -14 -40 -11 0 -15 12 -14 40 0 27 5 40 14 40 10 0 14 -13 14
-40z m-3282 -2 c2 -4 15 -8 28 -8 15 0 24 -6 24 -15 0 -9 -9 -15 -25 -15 -14
0 -25 5 -25 10 0 6 -9 10 -20 10 -11 0 -20 6 -20 14 0 8 -6 17 -12 20 -7 3 1
2 17 -1 17 -3 32 -10 33 -15z m230 -11 c4 -35 -44 -105 -61 -88 -7 7 -4 16 11
29 23 20 30 52 12 52 -5 0 -10 -4 -10 -10 0 -5 -9 -10 -20 -10 -11 0 -20 7
-20 15 0 8 9 15 19 15 10 0 22 7 25 16 10 25 41 12 44 -19z m1742 17 c0 -17
-23 -44 -39 -44 -20 0 -23 22 -5 40 23 23 44 25 44 4z m-5700 -29 c0 -8 -7
-15 -15 -15 -8 0 -15 7 -15 15 0 8 -5 15 -11 15 -5 0 -7 5 -4 10 9 14 45 -7
45 -25z m6698 4 c8 -12 19 -18 28 -15 20 8 75 -4 68 -15 -8 -13 -108 -11 -122
3 -9 9 -12 9 -12 0 0 -7 -9 -12 -20 -12 -26 0 -25 8 2 37 27 28 39 29 56 2z
m670 -2 c2 -10 -3 -17 -12 -17 -10 0 -16 9 -16 21 0 24 23 21 28 -4z m-5230 1
c-6 -18 -28 -21 -28 -4 0 9 7 16 16 16 9 0 14 -5 12 -12z m5752 -19 c0 -18 -5
-20 -42 -17 -24 2 -42 8 -40 13 2 6 14 9 27 7 12 -2 26 2 30 7 11 18 25 12 25
-10z m410 -5 c0 -8 -9 -14 -20 -14 -19 0 -27 19 -14 33 10 9 34 -4 34 -19z
m3213 19 c-7 -2 -13 -9 -13 -15 0 -13 -26 -38 -40 -38 -20 0 -6 34 20 47 14 7
30 12 35 12 6 0 4 -3 -2 -6z m-12008 -18 c0 -5 -10 -11 -22 -13 -16 -2 -23 2
-23 13 0 11 7 15 23 13 12 -2 22 -7 22 -13z m193 -2 c2 -8 -5 -13 -17 -13 -12
0 -21 6 -21 16 0 18 31 15 38 -3z m360 0 c2 -8 -6 -13 -22 -13 -17 0 -26 5
-26 16 0 19 41 16 48 -3z m170 0 c2 -8 -5 -13 -17 -13 -12 0 -21 6 -21 16 0
18 31 15 38 -3z m1642 2 c0 -8 -9 -15 -20 -15 -11 0 -20 7 -20 15 0 8 9 15 20
15 11 0 20 -7 20 -15z m320 0 c0 -16 -35 -21 -44 -6 -8 12 4 21 26 21 10 0 18
-7 18 -15z m170 0 c0 -8 -9 -15 -20 -15 -20 0 -26 11 -13 23 12 13 33 7 33 -8z
m3093 0 c1 -5 -6 -11 -15 -13 -11 -2 -18 3 -18 13 0 17 30 18 33 0z m187 0 c0
-9 -9 -15 -25 -15 -16 0 -25 6 -25 15 0 9 9 15 25 15 16 0 25 -6 25 -15z m620
0 c0 -13 -120 -19 -120 -6 0 5 17 12 38 14 55 6 83 3 82 -8z m1141 -8 c-13
-13 -26 -3 -16 12 3 6 11 8 17 5 6 -4 6 -10 -1 -17z m136 -3 c-9 -9 -28 6 -21
18 4 6 10 6 17 -1 6 -6 8 -13 4 -17z m993 11 c0 -8 -7 -15 -15 -15 -8 0 -15 7
-15 15 0 8 7 15 15 15 8 0 15 -7 15 -15z m600 0 c0 -8 -9 -15 -20 -15 -11 0
-20 7 -20 15 0 8 9 15 20 15 11 0 20 -7 20 -15z m-9526 -1 c28 -11 18 -34 -14
-34 -18 0 -30 5 -30 13 0 25 15 32 44 21z m564 -16 c3 -14 -3 -18 -27 -18 -29
0 -41 17 -24 34 13 13 48 1 51 -16z m1621 9 c15 -19 4 -27 -34 -27 -17 0 -35
3 -38 7 -11 11 14 33 38 33 12 0 28 -6 34 -13z m495 -18 c-3 -5 -14 -9 -25 -9
-21 0 -26 26 -6 33 15 5 39 -12 31 -24z m2919 24 c-7 -2 -21 -2 -30 0 -10 3
-4 5 12 5 17 0 24 -2 18 -5z m341 1 c33 -13 17 -34 -24 -34 -27 0 -40 4 -40
13 0 26 28 35 64 21z m559 -1 c-7 -2 -19 -2 -25 0 -7 3 -2 5 12 5 14 0 19 -2
13 -5z m481 1 c28 -11 18 -34 -14 -34 -30 0 -43 23 -17 33 6 3 13 6 14 6 1 1
8 -2 17 -5z m376 2 c0 -11 -19 -15 -25 -6 -3 5 1 10 9 10 9 0 16 -2 16 -4z
m533 -5 c4 -1 7 -8 7 -16 0 -11 -11 -15 -40 -15 -28 0 -40 4 -40 14 0 17 18
25 45 21 11 -2 23 -4 28 -4z m1561 3 c33 -13 17 -34 -24 -34 -27 0 -40 4 -40
13 0 26 28 35 64 21z m-5297 -36 c5 -8 31 -13 67 -13 37 0 61 -4 63 -12 7 -19
-66 -28 -117 -13 -25 7 -57 15 -72 18 -28 4 -34 12 -21 25 11 12 72 8 80 -5z
m7663 -20 c-11 -12 -20 -25 -20 -30 0 -4 -9 -8 -20 -8 -11 0 -20 -5 -20 -11 0
-6 -6 -9 -12 -6 -7 2 -18 -3 -24 -11 -6 -8 -16 -12 -22 -8 -15 9 -16 26 -1 26
6 0 25 11 42 25 30 22 71 43 90 44 4 1 -1 -9 -13 -21z m-7743 -33 c-4 -8 -11
-15 -17 -15 -14 0 -13 27 3 33 16 6 21 1 14 -18z m6190 -17 c18 -13 33 -29 33
-35 0 -18 -19 -16 -26 2 -4 8 -10 12 -16 9 -9 -6 -48 28 -48 41 0 11 26 4 57
-17z m-5857 -23 c0 -12 -34 -44 -42 -39 -4 3 -15 -2 -24 -10 -20 -20 -44 -21
-44 -1 0 9 12 18 30 22 17 3 30 9 30 14 0 4 8 10 18 12 26 7 32 7 32 2z m7278
-7 c-3 -7 -11 -13 -19 -13 -8 0 -18 -6 -22 -12 -10 -17 -27 -17 -27 0 0 12 34
34 58 36 8 0 12 -5 10 -11z m-7603 -18 c0 -22 -29 -18 -33 3 -3 14 1 18 15 15
10 -2 18 -10 18 -18z m6246 -3 c-1 -12 -15 -9 -19 4 -3 6 1 10 8 8 6 -3 11 -8
11 -12z m-6197 -3 c22 -8 20 -34 -1 -34 -26 0 -47 16 -39 29 8 12 17 14 40 5z
m7476 -13 c0 -5 -7 -11 -15 -15 -9 -3 -15 0 -15 9 0 8 7 15 15 15 8 0 15 -4
15 -9z m-1202 -18 c5 -18 -26 -16 -45 3 -15 14 -14 15 12 12 16 -2 30 -9 33
-15z m1162 -3 c0 -5 -7 -10 -15 -10 -8 0 -15 5 -15 10 0 6 7 10 15 10 8 0 15
-4 15 -10z m-1120 -20 c0 -5 -4 -10 -10 -10 -5 0 -10 5 -10 10 0 6 5 10 10 10
6 0 10 -4 10 -10z m1080 0 c0 -5 -9 -10 -20 -10 -11 0 -20 5 -20 10 0 6 9 10
20 10 11 0 20 -4 20 -10z m-1025 -20 c3 -5 -3 -10 -14 -10 -12 0 -21 5 -21 10
0 6 6 10 14 10 8 0 18 -4 21 -10z m965 0 c0 -5 -7 -10 -15 -10 -8 0 -15 5 -15
10 0 6 7 10 15 10 8 0 15 -4 15 -10z m-900 -21 c0 -12 -37 -12 -44 0 -7 11 14
20 32 13 6 -2 12 -8 12 -13z m860 6 c0 -10 -10 -15 -31 -15 -27 0 -30 2 -19
15 7 8 21 15 31 15 11 0 19 -7 19 -15z m-806 -11 c26 -10 18 -24 -14 -24 -29
0 -38 9 -23 23 8 9 17 9 37 1z m724 -12 c2 -8 -8 -12 -30 -12 -31 1 -32 1 -13
15 21 17 37 15 43 -3z m-620 -8 c37 -10 25 -24 -23 -24 -42 0 -54 7 -38 23 8
9 31 9 61 1z m542 -9 c0 -11 -12 -15 -45 -15 -70 0 -55 26 18 29 18 1 27 -4
27 -14z"/>
<path d="M905 2139 c-4 -6 -5 -12 -2 -15 2 -3 7 2 10 11 7 17 1 20 -8 4z"/>
<path d="M3950 3156 c-25 -7 -64 -23 -87 -34 -49 -26 -193 -124 -193 -133 0
-3 -24 -46 -53 -95 -81 -137 -98 -195 -104 -350 -7 -173 17 -261 96 -347 63
-69 205 -109 312 -87 241 48 414 243 479 538 54 241 -9 413 -178 490 -68 30
-200 39 -272 18z"/>
<path d="M9494 3152 c-83 -29 -164 -82 -234 -152 -142 -141 -224 -392 -190
-581 42 -230 199 -346 412 -305 280 54 488 343 488 679 0 177 -61 283 -197
343 -77 34 -208 42 -279 16z"/>
<path d="M11188 1322 c-47 -33 -109 -115 -141 -185 -32 -69 -60 -209 -48 -239
9 -22 10 -22 24 12 8 19 20 60 27 90 7 30 24 75 37 99 12 24 23 49 23 56 0 6
27 51 61 99 34 48 59 89 57 91 -1 2 -20 -9 -40 -23z"/>
<path d="M3884 961 c-8 -8 -4 -77 5 -86 6 -6 32 -8 59 -7 l48 4 -2 41 -2 42
-51 5 c-29 3 -54 4 -57 1z"/>
<path d="M2711 663 c-19 -20 -13 -23 44 -23 30 0 55 3 55 6 0 27 -77 40 -99
17z"/>
</g>
</svg>
