<?xml version="1.0" standalone="no"?>
<!DOCTYPE svg PUBLIC "-//W3C//DTD SVG 20010904//EN"
 "http://www.w3.org/TR/2001/REC-SVG-20010904/DTD/svg10.dtd">
<svg version="1.0" xmlns="http://www.w3.org/2000/svg"
 width="2000.000000pt" height="538.000000pt" viewBox="0 0 2000.000000 538.000000"
 preserveAspectRatio="xMidYMid meet">
<metadata>
Created by potrace 1.16, written by Peter Selinger 2001-2019
</metadata>
<g transform="translate(0.000000,538.000000) scale(0.100000,-0.100000)"
fill="#000000" stroke="none">
<path d="M1 3483 c1 -1044 4 -1886 6 -1870 2 15 9 27 14 27 5 0 9 23 9 50 0
28 5 50 10 50 6 0 10 27 10 60 0 33 4 60 10 60 6 0 10 20 10 45 0 25 5 45 11
45 6 0 8 8 4 19 -3 11 0 25 8 32 10 9 12 27 9 56 -3 31 -1 44 9 48 10 4 13 19
11 50 -3 31 0 46 9 50 10 4 13 21 11 60 -3 35 0 55 7 55 6 0 11 18 11 40 0 25
5 40 13 40 8 0 11 17 9 60 -3 39 0 60 7 60 6 0 11 11 11 25 0 14 6 28 13 30 8
4 11 23 9 60 -3 35 0 55 7 55 6 0 11 18 11 40 0 22 5 40 10 40 6 0 10 18 10
40 0 22 5 40 10 40 6 0 10 15 10 34 0 19 5 38 10 41 6 3 10 26 10 51 0 28 4
44 13 44 8 0 11 17 9 60 -3 39 0 60 7 60 7 0 11 21 11 50 0 28 5 50 10 50 6 0
10 25 10 55 0 30 5 55 10 55 6 0 10 14 10 30 0 17 5 30 10 30 6 0 10 30 10 70
0 40 4 70 10 70 6 0 10 10 10 23 0 13 3 27 7 31 4 4 6 25 4 46 -2 27 2 42 12
45 10 4 12 20 9 60 -3 41 -1 56 10 60 9 4 13 17 10 40 -3 24 0 37 10 40 9 4
13 17 10 40 -3 21 0 35 7 35 7 0 11 20 11 50 0 33 4 50 13 50 8 0 11 17 9 60
-3 39 0 60 7 60 6 0 11 11 11 25 0 14 6 28 13 31 8 3 11 17 9 39 -3 25 0 35 9
35 11 0 13 13 11 50 -3 41 -1 50 12 50 20 0 21 -42 2 -124 -21 -88 -71 -322
-100 -466 -48 -240 -106 -513 -112 -532 -3 -11 -12 -56 -19 -101 -17 -101 -54
-283 -100 -487 -19 -85 -41 -186 -50 -225 -8 -38 -33 -158 -56 -265 -22 -107
-45 -219 -50 -249 -5 -29 -16 -68 -23 -85 -8 -18 -17 -66 -21 -107 -4 -41 -13
-92 -20 -114 -7 -22 -21 -75 -31 -118 -16 -68 -16 -80 -3 -88 8 -5 225 -9 506
-9 383 0 494 3 500 13 4 6 17 66 29 132 56 309 137 685 149 688 14 3 18 -104
6 -116 -6 -6 -11 -30 -11 -54 0 -24 -4 -43 -10 -43 -5 0 -10 -13 -10 -30 0
-17 -5 -30 -12 -30 -9 0 -12 -17 -10 -60 3 -39 0 -60 -7 -60 -6 0 -11 -19 -11
-44 0 -25 -4 -48 -10 -51 -5 -3 -10 -26 -10 -51 0 -24 -4 -44 -10 -44 -6 0
-10 -27 -10 -60 0 -33 -4 -60 -10 -60 -5 0 -10 -22 -10 -50 0 -27 -4 -50 -10
-50 -5 0 -10 -11 -10 -25 l0 -25 -530 0 -530 0 0 -715 0 -715 5713 2 c3141 1
5693 3 5670 5 -24 2 -43 8 -43 14 0 5 -18 9 -40 9 -37 0 -52 11 -31 24 5 3 48
-3 97 -14 64 -14 127 -20 227 -20 84 0 137 -4 137 -10 0 -7 1385 -10 4135 -10
l4135 0 0 1890 0 1891 -90 -93 c-49 -51 -121 -125 -160 -164 -38 -39 -70 -77
-70 -83 0 -6 -7 -11 -16 -11 -8 0 -33 -18 -54 -40 -21 -22 -43 -40 -49 -40
-30 0 1 39 131 161 194 184 288 281 282 291 -3 4 -286 8 -629 8 l-623 0 -59
-52 c-32 -28 -86 -79 -120 -112 -40 -38 -66 -57 -72 -51 -6 6 -3 45 9 105 10
52 24 122 30 155 6 33 15 80 20 105 21 95 52 249 71 353 10 59 27 135 35 170
9 34 17 78 18 97 l1 35 -484 3 c-289 1 -489 -2 -494 -7 -5 -5 -26 -94 -47
-198 -21 -103 -55 -262 -75 -353 -20 -91 -51 -237 -70 -325 -18 -88 -38 -173
-44 -189 l-12 -29 -85 91 c-166 178 -375 259 -642 249 -139 -5 -254 -31 -371
-82 l-83 -37 -57 25 c-93 42 -128 47 -319 47 -206 0 -211 2 -174 68 29 53 62
198 62 275 0 291 -206 499 -495 500 -130 1 -259 -41 -366 -118 -27 -19 -53
-35 -58 -35 -11 0 -17 18 -26 75 -12 72 -54 221 -80 279 -37 84 -86 152 -173
239 -113 115 -224 177 -394 223 -451 121 -968 -121 -1188 -556 -76 -150 -143
-382 -215 -744 -19 -99 -40 -185 -46 -193 -9 -10 -90 -13 -388 -15 l-376 -3
-8 -45 c-5 -25 -22 -109 -38 -188 -17 -79 -37 -178 -45 -220 -23 -126 -33
-174 -48 -237 -9 -33 -29 -136 -47 -230 -61 -328 -106 -460 -177 -508 -46 -32
-82 -34 -107 -7 -18 20 -18 25 4 163 13 78 27 152 32 164 4 12 22 93 38 180
17 87 45 226 61 308 17 83 35 173 40 200 5 28 25 129 45 224 19 96 33 181 31
188 -4 11 -148 13 -751 13 l-746 0 -78 -30 -79 -31 -80 36 c-162 71 -367 92
-562 59 -87 -15 -261 -66 -285 -83 -5 -4 -39 -20 -75 -36 -87 -38 -181 -99
-260 -169 -96 -85 -93 -85 -180 -2 -118 113 -195 159 -378 228 -121 45 -305
78 -437 78 -104 0 -301 -30 -395 -60 -151 -48 -301 -130 -395 -215 -27 -24
-57 -45 -65 -45 -8 0 -40 25 -70 55 -30 30 -59 54 -63 55 -5 0 -21 8 -35 18
-76 53 -267 132 -377 157 -349 78 -720 18 -991 -161 -28 -19 -56 -34 -63 -34
-14 0 -14 54 0 120 6 28 8 54 5 57 -3 4 -159 5 -346 4 -348 -2 -351 -2 -467
-45 -41 -15 -42 -15 -130 23 -347 152 -835 60 -1167 -221 -66 -55 -71 -58 -74
-36 -2 13 11 91 28 173 17 83 40 196 50 252 10 57 25 127 33 155 8 29 20 91
27 138 6 47 21 120 32 162 11 42 18 84 16 93 -3 15 -48 16 -496 18 -320 1
-496 -2 -502 -8 -4 -5 -21 -80 -38 -165 -28 -141 -53 -255 -113 -530 -12 -52
-27 -120 -34 -150 -7 -30 -20 -98 -30 -150 -22 -120 -37 -173 -51 -177 -6 -2
-35 45 -65 104 -30 59 -78 151 -107 203 -30 52 -94 174 -143 272 -49 98 -109
214 -134 259 -25 45 -45 83 -45 86 0 2 -14 25 -32 51 -65 98 -176 178 -279
201 -67 16 -644 14 -657 -2 -6 -6 -12 -27 -14 -46 -5 -58 -28 -51 -28 9 0 41
5 56 25 75 26 27 50 32 59 13 5 -10 7 -10 12 0 3 6 23 12 44 12 21 0 41 -6 44
-12 5 -10 7 -10 12 0 7 14 34 16 34 2 0 -6 57 -10 150 -10 93 0 150 4 150 10
0 6 25 10 55 10 30 0 55 -4 55 -10 0 -6 27 -10 60 -10 33 0 60 -4 60 -10 0 -5
13 -10 28 -10 16 0 34 -8 42 -20 8 -11 20 -20 28 -20 17 0 102 -88 102 -106 0
-7 15 -28 33 -46 17 -18 39 -47 47 -63 8 -17 23 -37 32 -46 10 -9 18 -24 18
-33 0 -9 5 -16 10 -16 6 0 10 -9 10 -20 0 -11 5 -20 10 -20 6 0 10 -9 10 -20
0 -11 5 -20 10 -20 6 0 10 -9 10 -20 0 -11 5 -20 10 -20 6 0 10 -9 10 -20 0
-11 5 -20 10 -20 6 0 10 -12 10 -26 0 -15 8 -34 18 -43 23 -21 62 -98 62 -122
0 -10 5 -19 11 -19 5 0 7 -4 4 -10 -3 -5 1 -10 9 -10 9 0 16 -9 16 -20 0 -11
5 -20 11 -20 6 0 9 -9 6 -20 -3 -14 0 -20 10 -20 10 0 14 -6 10 -19 -3 -12 1
-22 10 -25 8 -3 11 -11 8 -16 -4 -6 3 -19 14 -29 12 -10 21 -22 21 -27 0 -5 9
-16 20 -24 12 -8 20 -26 20 -42 0 -15 5 -28 10 -28 6 0 10 -9 10 -20 0 -11 5
-20 10 -20 6 0 10 -9 10 -20 0 -11 5 -20 10 -20 6 0 10 14 10 30 0 17 5 30 10
30 6 0 10 18 10 40 0 22 5 40 10 40 6 0 10 16 10 35 0 19 4 35 9 35 6 0 7 16
4 35 -4 25 -2 36 9 40 11 4 14 19 10 60 -3 41 -1 56 10 60 9 4 12 18 10 46 -3
22 1 46 7 52 6 6 11 30 11 54 0 24 5 43 10 43 6 0 10 18 10 40 0 25 5 40 13
40 8 0 11 15 9 50 -3 32 0 50 7 50 6 0 11 11 11 24 0 14 5 28 10 31 6 3 10 22
10 41 0 20 5 34 13 34 8 0 11 17 9 60 -3 39 0 60 7 60 7 0 11 21 11 50 l0 50
535 0 535 0 0 -70 c0 -40 -4 -70 -10 -70 -5 0 -10 -13 -10 -30 0 -16 -4 -30
-10 -30 -6 0 -10 -30 -10 -70 0 -38 -4 -70 -8 -70 -4 0 -6 -16 -4 -35 2 -20
-1 -42 -9 -51 -7 -9 -12 -31 -10 -50 2 -23 -2 -34 -11 -34 -10 0 -12 -11 -10
-40 3 -29 0 -40 -9 -40 -11 0 -13 -14 -11 -55 3 -39 0 -56 -10 -60 -9 -4 -12
-21 -10 -60 3 -35 0 -55 -7 -55 -6 0 -11 -18 -11 -40 0 -22 -4 -40 -10 -40 -5
0 -10 -9 -10 -20 0 -11 5 -20 10 -20 15 0 52 22 71 43 9 9 23 17 30 17 8 0 21
9 29 20 8 11 22 20 32 20 10 0 18 5 18 10 0 6 9 10 20 10 11 0 20 5 20 10 0 6
9 10 20 10 11 0 20 5 20 10 0 6 12 10 26 10 16 0 37 12 54 30 15 17 37 30 49
30 12 0 21 5 21 10 0 6 23 10 50 10 28 0 50 5 50 10 0 6 23 10 50 10 28 0 50
5 50 10 0 6 68 10 185 10 117 0 185 -4 185 -10 0 -6 28 -10 65 -10 37 0 65 -4
65 -10 0 -5 9 -10 20 -10 11 0 20 -4 20 -10 0 -5 9 -10 20 -10 11 0 20 -4 20
-10 0 -5 9 -10 20 -10 11 0 20 -4 20 -10 0 -5 18 -10 40 -10 22 0 40 5 40 10
0 6 9 10 20 10 11 0 20 5 20 10 0 6 16 10 35 10 19 0 35 5 35 10 0 14 37 12
44 -2 5 -10 7 -10 12 0 3 6 18 12 34 12 16 0 31 -6 34 -12 5 -10 7 -10 12 0 8
16 100 16 108 0 5 -10 7 -10 12 0 7 15 114 17 114 2 0 -6 60 -10 161 -10 104
0 158 3 154 10 -10 17 23 11 45 -7 22 -20 29 -98 8 -105 -10 -4 -20 -58 -10
-58 2 0 17 14 32 30 15 17 35 30 44 30 9 0 16 5 16 10 0 6 9 10 20 10 11 0 20
5 20 10 0 6 14 10 30 10 17 0 30 5 30 10 0 6 9 10 20 10 11 0 20 5 20 10 0 6
14 10 30 10 17 0 30 5 30 10 0 6 7 10 15 10 8 0 15 5 15 10 0 6 18 10 40 10
22 0 40 5 40 10 0 6 33 10 80 10 47 0 80 4 80 10 0 14 357 14 365 0 3 -5 26
-10 51 -10 24 0 44 -4 44 -10 0 -5 18 -10 40 -10 22 0 40 -4 40 -10 0 -5 18
-10 40 -10 22 0 40 -4 40 -10 0 -5 9 -10 20 -10 11 0 20 -4 20 -10 0 -5 12
-10 28 -10 18 0 35 -10 51 -30 14 -18 33 -30 47 -30 13 0 24 -4 24 -10 0 -5 7
-10 16 -10 9 0 29 -13 44 -30 15 -16 34 -30 40 -30 7 0 20 -8 29 -18 9 -10 31
-26 50 -35 34 -17 35 -17 61 8 14 14 31 25 37 25 6 0 26 18 46 40 19 22 42 40
51 40 9 0 16 5 16 10 0 6 9 10 20 10 11 0 20 5 20 10 0 6 14 10 30 10 17 0 30
5 30 10 0 6 9 10 20 10 11 0 20 5 20 10 0 6 13 10 28 10 16 0 34 8 42 20 9 13
26 20 47 20 18 0 33 5 33 10 0 6 18 10 40 10 22 0 40 5 40 10 0 6 30 10 70 10
40 0 70 4 70 10 0 6 62 10 165 10 103 0 165 -4 165 -10 0 -6 28 -10 65 -10 37
0 65 -4 65 -10 0 -5 22 -10 48 -10 36 0 51 -5 62 -20 8 -12 26 -20 42 -20 15
0 28 -4 28 -10 0 -5 9 -10 20 -10 11 0 20 -4 20 -10 0 -5 13 -10 28 -10 16 0
34 -8 42 -20 8 -11 25 -20 37 -20 13 0 23 -4 23 -9 0 -5 10 -11 23 -13 15 -2
21 -9 19 -20 -2 -12 4 -18 15 -18 10 0 25 -9 33 -20 8 -11 20 -20 27 -20 13 0
53 -33 110 -88 l24 -24 18 21 c10 12 23 21 30 21 6 0 11 7 11 15 0 9 12 20 26
25 15 6 39 24 54 40 15 17 34 30 42 30 7 0 20 9 28 20 8 12 26 20 42 20 15 0
28 5 28 10 0 6 8 10 18 10 10 0 24 9 32 20 8 12 26 20 42 20 15 0 28 5 28 10
0 6 7 10 15 10 8 0 15 5 15 10 0 6 14 10 30 10 17 0 30 5 30 10 0 6 9 10 20
10 11 0 20 5 20 10 0 6 23 10 50 10 28 0 50 5 50 10 0 6 23 10 50 10 28 0 50
5 50 10 0 14 317 14 325 0 3 -6 26 -10 51 -10 24 0 44 -4 44 -10 0 -5 18 -10
40 -10 22 0 40 -4 40 -10 0 -5 9 -10 20 -10 11 0 20 -4 20 -10 0 -5 9 -10 20
-10 11 0 20 -4 20 -10 0 -5 18 -10 40 -10 22 0 40 5 40 10 0 6 14 10 31 10 17
0 28 4 24 10 -4 6 13 10 44 10 28 0 51 5 51 10 0 6 9 10 20 10 11 0 20 -4 20
-10 0 -7 250 -10 730 -10 l730 0 0 -60 c0 -33 -4 -60 -10 -60 -6 0 -10 -27
-10 -60 0 -33 -4 -60 -10 -60 -6 0 -10 -27 -10 -60 0 -33 -4 -60 -10 -60 -5 0
-10 -16 -10 -35 0 -19 -4 -35 -10 -35 -5 0 -10 -22 -10 -50 0 -27 -4 -50 -10
-50 -5 0 -10 -18 -10 -40 0 -22 -4 -40 -10 -40 -5 0 -10 -24 -10 -53 0 -30 -3
-57 -7 -61 -4 -4 -6 -25 -4 -46 2 -27 -2 -42 -11 -45 -9 -4 -13 -17 -10 -40 3
-23 0 -37 -9 -40 -10 -4 -13 -21 -11 -60 3 -39 0 -56 -10 -60 -9 -4 -12 -21
-10 -60 3 -35 0 -55 -7 -55 -6 0 -11 -18 -11 -40 0 -22 -4 -40 -10 -40 -5 0
-10 -22 -10 -50 0 -27 -4 -50 -10 -50 -6 0 -10 -32 -10 -75 0 -41 4 -75 8 -75
21 0 62 27 62 40 0 9 9 22 20 30 12 8 20 26 20 42 0 15 5 28 10 28 6 0 10 11
10 24 0 14 4 28 10 31 5 3 10 22 10 41 0 19 5 34 10 34 6 0 10 14 10 30 0 17
5 30 10 30 6 0 10 27 10 60 0 33 4 60 10 60 6 0 10 18 10 40 0 22 5 40 10 40
6 0 10 25 10 55 0 30 5 55 10 55 6 0 10 23 10 50 0 28 5 50 10 50 6 0 10 18
10 40 0 22 5 40 10 40 6 0 10 15 10 33 0 19 3 37 7 40 3 4 5 34 4 67 -2 43 1
62 11 65 9 4 12 19 10 50 -3 32 0 46 10 50 9 4 13 17 10 39 -2 19 1 37 7 40 6
4 11 23 11 42 0 19 5 34 10 34 6 0 10 27 10 60 0 33 4 60 10 60 6 0 10 14 10
30 0 29 1 30 50 30 28 0 50 5 50 10 0 6 18 10 40 10 22 0 40 -4 40 -10 0 -6
42 -10 105 -10 63 0 105 4 105 10 0 6 18 10 40 10 22 0 40 -4 40 -10 0 -6 58
-10 155 -10 l155 0 0 40 c0 22 5 40 10 40 6 0 10 25 10 55 0 30 5 55 10 55 6
0 10 27 10 60 0 33 4 60 10 60 6 0 10 23 10 50 0 28 5 50 10 50 6 0 10 16 10
35 0 19 5 35 10 35 6 0 10 23 10 50 0 28 5 50 10 50 6 0 10 14 10 30 0 17 5
30 10 30 6 0 10 17 10 38 0 25 6 42 18 51 12 9 17 21 14 37 -2 14 0 24 7 24 6
0 11 14 11 30 0 17 5 30 10 30 6 0 10 14 10 30 0 17 5 30 10 30 6 0 10 9 10
20 0 11 5 20 10 20 6 0 10 9 10 20 0 11 5 20 10 20 6 0 10 7 10 16 0 9 14 29
30 44 17 15 30 33 30 39 0 6 9 16 20 23 11 7 20 19 20 26 0 15 85 102 100 102
6 0 33 22 60 50 27 27 53 50 57 50 5 0 15 9 23 20 8 11 22 20 32 20 10 0 18 5
18 10 0 6 7 10 15 10 9 0 25 9 37 20 12 11 29 20 38 20 16 0 59 17 102 41 10
5 27 9 37 9 11 0 23 5 26 10 3 6 22 10 41 10 19 0 34 4 34 10 0 5 33 11 73 13
39 1 -3041 4 -6845 5 l-6918 2 1 -1897z m14094 1627 c244 -61 387 -196 470
-445 67 -204 29 -552 -90 -810 -60 -133 -78 -163 -144 -244 -16 -20 -45 -55
-63 -79 -18 -23 -54 -65 -80 -94 -27 -28 -48 -56 -48 -63 0 -7 -25 -34 -56
-61 -32 -27 -67 -58 -79 -70 -31 -29 -126 -90 -152 -98 -13 -4 -23 -12 -23
-17 0 -5 -9 -9 -21 -9 -12 0 -44 -18 -71 -40 -28 -22 -56 -40 -63 -40 -8 0
-15 -3 -17 -7 -5 -13 -86 -73 -97 -73 -14 0 -14 -3 3 56 17 60 22 87 41 234 8
63 21 158 29 211 l15 95 124 125 c216 216 320 420 334 654 8 141 -28 230 -112
272 -73 38 -163 38 -226 1 -90 -53 -146 -151 -174 -304 -9 -49 -28 -136 -40
-194 -13 -58 -31 -143 -39 -190 -8 -47 -22 -119 -31 -160 -8 -41 -22 -119 -31
-175 -8 -55 -26 -145 -39 -200 -13 -55 -38 -174 -55 -265 -64 -341 -91 -476
-100 -497 -5 -13 -21 -80 -35 -150 -14 -71 -35 -154 -45 -186 -11 -31 -20 -63
-20 -70 0 -34 43 -37 627 -37 l575 0 -5 -27 c-3 -16 -17 -73 -31 -127 -15 -55
-31 -129 -37 -165 -13 -85 -40 -171 -53 -172 -23 -2 -1957 -11 -2036 -9 -2 0
39 44 91 97 112 114 162 181 214 282 41 82 74 121 104 121 28 0 36 20 60 145
11 61 33 169 49 240 16 72 35 162 42 200 19 112 57 308 90 470 17 83 49 245
70 360 21 116 52 273 69 349 18 77 47 217 66 310 40 199 77 316 136 425 42 80
159 220 239 287 78 65 260 141 375 157 84 11 214 6 290 -13z m1307 -712 c125
-66 174 -228 109 -364 -54 -114 -136 -182 -256 -210 -98 -22 -160 -15 -231 27
-231 138 -140 495 146 571 85 23 157 15 232 -24z m2976 -12 c7 -4 5 -22 -5
-53 -8 -27 -20 -82 -28 -123 -7 -41 -26 -140 -43 -220 -17 -80 -40 -192 -51
-250 -22 -112 -37 -181 -51 -245 -5 -22 -22 -105 -39 -185 -17 -80 -40 -190
-52 -245 -25 -115 -28 -157 -13 -162 6 -2 168 152 360 341 l349 345 308 1
c338 0 342 -1 270 -56 -39 -29 -243 -226 -499 -479 -78 -77 -171 -168 -208
-203 -40 -38 -66 -70 -66 -83 0 -17 93 -206 120 -244 4 -5 30 -53 57 -105 28
-52 89 -167 135 -255 47 -88 110 -204 141 -257 63 -109 97 -180 97 -201 0 -12
-15 -15 -72 -14 -40 0 -143 -1 -228 -2 -139 -3 -160 -1 -201 18 -71 32 -114
82 -175 204 -31 62 -60 116 -65 121 -5 6 -9 17 -9 26 0 8 -16 40 -37 69 -31
47 -68 114 -150 269 -32 60 -57 47 -201 -110 -80 -87 -90 -103 -104 -160 -20
-79 -63 -265 -78 -338 -19 -96 -4 -91 -284 -94 -245 -3 -246 -3 -241 18 2 12
9 53 15 91 7 39 25 129 40 200 16 72 61 292 100 490 40 198 85 421 100 495 15
74 64 313 108 530 44 217 102 499 128 625 25 127 52 235 59 240 14 11 495 12
513 1z m-17075 -105 c26 -13 58 -37 71 -55 13 -17 71 -123 128 -236 58 -113
117 -225 131 -250 15 -25 85 -160 155 -300 130 -258 200 -391 226 -432 7 -13
52 -97 99 -188 47 -91 92 -166 100 -168 19 -4 29 28 57 173 12 61 32 157 45
215 13 58 29 137 35 175 6 39 18 99 27 135 8 36 26 124 38 195 13 72 34 175
48 230 13 55 34 154 47 220 40 221 58 298 72 307 7 5 33 6 57 3 24 -3 136 -5
249 -5 l204 0 -5 -27 c-3 -16 -12 -68 -21 -118 -28 -154 -37 -196 -72 -340
-18 -77 -38 -174 -44 -215 -7 -41 -22 -122 -35 -180 -13 -58 -28 -136 -33
-175 -10 -72 -57 -270 -92 -386 -11 -36 -20 -75 -20 -86 0 -12 -4 -23 -9 -25
-14 -4 -22 -49 -32 -163 -4 -55 -17 -138 -29 -185 -11 -47 -23 -100 -27 -118
-3 -18 -10 -35 -14 -38 -5 -3 -9 -16 -9 -30 0 -13 -9 -32 -20 -41 -13 -11 -20
-30 -20 -51 0 -20 -6 -35 -15 -38 -8 -4 -15 -10 -15 -15 0 -5 7 -9 15 -9 8 0
15 -4 15 -8 0 -15 -25 -62 -32 -62 -5 0 -8 -13 -8 -28 0 -16 -3 -32 -6 -35 -4
-4 -8 -23 -10 -43 -3 -37 -20 -58 -37 -47 -5 3 -3 -5 5 -16 12 -20 10 -24 -12
-41 -14 -11 -42 -25 -63 -32 -32 -10 -40 -9 -48 3 -8 12 -10 12 -19 -1 -8 -13
-10 -12 -10 3 0 9 -5 17 -11 17 -5 0 -8 -4 -5 -9 8 -13 -135 -23 -174 -11 -41
12 -140 106 -141 135 0 11 -14 40 -30 65 -16 25 -34 56 -41 70 -7 14 -23 39
-35 56 -13 17 -23 38 -23 47 0 9 -4 19 -10 22 -5 3 -10 14 -10 24 0 10 -9 26
-20 36 -11 10 -20 26 -20 36 0 18 -27 60 -84 133 -16 20 -32 51 -36 69 -4 17
-12 31 -18 29 -7 -1 -12 10 -12 27 0 17 -4 32 -9 35 -4 3 -21 30 -36 61 -15
30 -36 63 -46 74 -11 11 -19 24 -19 29 0 5 -7 15 -15 22 -8 7 -15 20 -15 30 0
10 -7 23 -15 30 -8 7 -15 25 -15 41 0 15 -4 31 -10 34 -5 3 -10 14 -10 25 0
10 -7 20 -15 24 -8 3 -15 12 -15 20 0 9 -9 20 -20 26 -11 6 -20 16 -20 22 0 7
-8 21 -18 32 -10 12 -28 44 -40 71 -41 97 -158 301 -177 308 -20 8 -32 -12
-40 -68 -9 -71 -26 -147 -36 -168 -5 -10 -16 -57 -24 -105 -9 -48 -22 -109
-29 -137 -8 -27 -20 -79 -27 -115 -7 -36 -15 -69 -19 -75 -4 -5 -10 -26 -14
-45 -3 -19 -15 -82 -25 -140 -11 -58 -28 -130 -39 -160 -20 -52 -37 -119 -62
-240 -6 -30 -16 -68 -22 -83 -8 -20 -8 -31 1 -40 16 -16 14 -44 -3 -50 -8 -3
-18 -23 -21 -44 -4 -21 -11 -47 -15 -58 -5 -11 -11 -40 -12 -65 l-3 -45 -105
1 c-125 1 -210 12 -228 31 -7 7 -22 13 -32 13 -10 0 -25 3 -34 6 -10 4 -27 -6
-47 -27 l-32 -34 6 90 c3 50 13 117 21 150 9 33 25 110 37 170 22 115 24 125
57 270 12 50 32 151 46 225 26 141 60 306 76 375 36 153 50 220 61 295 7 47
16 93 21 103 5 10 17 68 28 130 10 62 25 140 34 174 9 34 25 108 36 165 12 56
29 139 40 183 11 44 22 112 26 150 3 39 12 75 19 80 7 6 92 10 212 9 186 0
202 -2 246 -23z m15617 -665 c178 -54 278 -148 335 -313 54 -156 53 -280 -6
-558 -17 -77 -46 -214 -64 -305 -19 -91 -46 -219 -60 -285 -14 -66 -41 -195
-59 -288 -18 -92 -35 -170 -39 -173 -11 -11 -234 -17 -369 -9 l-138 7 0 33 c0
18 11 84 24 146 182 854 199 947 199 1054 0 135 -48 208 -155 234 -148 35
-286 -11 -422 -141 -114 -110 -150 -211 -242 -668 -30 -151 -62 -296 -70 -321
-8 -25 -23 -99 -34 -164 -28 -163 -31 -168 -105 -176 -33 -4 -131 -4 -218 0
-87 3 -169 3 -182 -1 -30 -8 -40 6 -36 47 2 28 46 246 91 455 11 52 29 140 40
195 81 408 82 415 145 720 9 44 23 109 30 145 49 246 65 322 70 331 4 5 85 9
191 9 145 0 191 -3 214 -15 47 -24 60 -52 60 -127 0 -59 2 -68 18 -68 10 0 34
16 53 36 103 108 274 192 444 218 53 8 239 -4 285 -18z m-12682 -1 c116 -28
198 -81 268 -176 19 -27 40 -49 45 -49 5 0 23 29 41 65 38 81 82 122 140 130
24 3 117 5 208 3 158 -3 165 -4 163 -23 -1 -11 -18 -78 -38 -150 -20 -71 -39
-143 -42 -160 -38 -241 -99 -521 -123 -561 -10 -19 -16 -42 -13 -58 4 -17 0
-28 -10 -32 -8 -3 -13 -13 -10 -24 3 -10 -1 -49 -7 -87 -7 -37 -15 -90 -20
-118 -15 -100 -40 -224 -49 -248 -6 -14 -17 -30 -26 -35 -14 -7 -16 -19 -11
-68 3 -32 9 -116 12 -185 l6 -126 -34 -5 c-18 -3 -44 -1 -56 3 -13 5 -81 11
-150 13 -138 4 -156 8 -189 43 -19 19 -24 40 -29 108 -6 69 -10 86 -25 90 -30
10 -99 -36 -99 -67 0 -11 -7 -18 -20 -18 -11 0 -38 -11 -59 -24 -42 -27 -106
-47 -117 -38 -4 4 -4 2 -1 -4 10 -17 -19 -37 -42 -29 -14 4 -29 -2 -47 -18
-43 -40 -120 -59 -237 -59 -122 0 -213 15 -282 47 -27 13 -60 26 -71 29 -26 8
-184 159 -184 176 0 7 -13 25 -30 40 -18 17 -30 38 -30 54 0 14 -7 29 -16 34
-9 5 -30 49 -47 98 -28 84 -30 97 -29 244 0 135 4 172 30 285 35 150 78 267
128 351 68 113 149 217 216 276 163 144 273 208 448 259 83 24 112 28 235 28
90 1 162 -5 203 -14z m2112 -1 c92 -17 132 -30 235 -79 72 -34 177 -109 202
-145 14 -20 13 -24 -18 -54 -75 -70 -158 -165 -184 -209 -23 -41 -31 -47 -59
-47 -22 0 -45 11 -72 33 -119 99 -171 122 -302 130 -105 8 -215 -6 -279 -34
-60 -26 -98 -87 -98 -156 0 -89 45 -119 271 -178 304 -80 399 -121 488 -212
25 -25 59 -72 74 -102 26 -53 27 -64 27 -196 0 -147 -13 -206 -57 -264 -10
-13 -18 -29 -18 -35 0 -15 -95 -116 -109 -116 -6 0 -11 -4 -11 -9 0 -18 -65
-78 -120 -110 -30 -17 -62 -36 -70 -40 -54 -32 -147 -61 -221 -71 -108 -13
-477 -12 -544 2 -71 14 -233 89 -261 119 -10 11 -22 19 -29 19 -14 0 -143 64
-168 84 -31 24 -22 41 135 244 27 35 59 79 70 98 11 19 25 34 30 34 6 0 43
-31 84 -69 80 -75 198 -142 291 -166 159 -41 343 -25 425 39 47 35 98 123 98
170 0 49 -118 146 -177 146 -11 0 -23 3 -26 7 -12 11 -191 53 -207 48 -23 -7
-124 31 -128 48 -2 8 -30 25 -63 38 -71 28 -181 112 -217 166 -14 21 -28 40
-31 43 -18 15 -41 87 -47 143 -9 88 33 256 86 347 60 103 200 216 338 274 149
63 213 75 403 75 121 1 203 -4 259 -15z m1710 2 c104 -26 181 -56 264 -101 85
-46 181 -125 175 -144 -2 -5 -26 -35 -54 -67 -93 -107 -111 -129 -144 -181
-35 -57 -54 -69 -71 -47 -7 8 -20 14 -30 14 -10 0 -23 7 -30 15 -7 8 -18 15
-24 15 -7 0 -31 16 -53 35 -23 19 -50 35 -60 35 -11 0 -23 3 -27 7 -13 13 -82
33 -117 33 -20 0 -42 7 -49 15 -7 8 -17 12 -23 8 -6 -4 -50 -12 -97 -19 -118
-17 -158 -29 -187 -56 -55 -50 -70 -144 -31 -193 33 -43 111 -73 368 -141 199
-53 296 -100 375 -179 79 -78 97 -127 102 -268 5 -118 -5 -174 -42 -247 -7
-14 -21 -42 -30 -62 -9 -21 -20 -38 -25 -38 -6 0 -10 -9 -10 -20 0 -11 -6 -23
-14 -26 -8 -3 -19 -19 -25 -35 -7 -19 -31 -42 -73 -68 -35 -22 -81 -54 -103
-70 -37 -27 -163 -90 -210 -105 -26 -8 -277 -25 -380 -26 -87 -1 -153 6 -200
20 -16 5 -58 14 -93 20 -74 13 -140 44 -245 117 -43 30 -87 56 -99 58 -12 3
-24 8 -27 12 -3 5 -18 14 -33 20 -35 16 -35 24 0 65 16 18 67 85 115 148 47
63 95 126 105 140 l19 24 24 -25 c42 -44 151 -125 220 -163 73 -40 159 -61
289 -72 213 -16 365 89 345 238 -9 63 -51 108 -101 108 -18 0 -45 6 -61 14
-29 14 -65 26 -140 46 -24 6 -43 15 -43 20 0 6 -9 10 -20 10 -11 0 -34 9 -52
20 -18 11 -44 20 -58 20 -14 1 -36 7 -50 15 -14 8 -34 14 -45 15 -38 0 -166
74 -199 115 -98 120 -133 261 -101 402 62 271 274 456 605 528 79 18 401 18
470 1z m1743 -2 c110 -28 233 -108 277 -179 28 -45 45 -44 61 3 19 58 56 110
91 129 27 15 64 19 201 21 204 4 222 1 212 -36 -4 -15 -15 -76 -25 -137 -10
-60 -23 -123 -28 -140 -9 -29 -30 -125 -53 -245 -25 -129 -32 -162 -64 -295
-30 -124 -49 -217 -85 -415 -5 -30 -19 -86 -30 -125 -16 -59 -33 -211 -45
-424 -3 -46 -23 -53 -167 -53 -130 0 -213 19 -246 56 -23 26 -42 90 -42 145 0
46 -11 51 -50 24 -14 -10 -50 -34 -82 -53 -31 -19 -83 -52 -115 -74 -32 -21
-69 -46 -83 -55 -14 -9 -59 -28 -100 -41 -66 -22 -92 -25 -225 -25 l-150 0
-100 52 c-133 69 -234 140 -262 183 -12 19 -35 50 -50 68 -35 42 -53 100 -87
292 -32 174 -9 390 62 585 48 132 125 269 214 380 55 69 187 186 250 223 125
72 223 113 328 137 81 19 318 19 393 -1z m1653 -39 c6 -14 -11 -85 -77 -340
-10 -38 -23 -106 -29 -150 -6 -44 -15 -93 -20 -110 -16 -51 -48 -195 -71 -310
-12 -60 -27 -137 -33 -170 -23 -116 14 -248 87 -311 52 -44 101 -57 204 -55
120 2 180 27 262 110 119 121 144 189 231 641 28 146 62 314 76 373 14 60 31
155 40 210 8 56 17 108 19 115 3 9 63 12 250 12 281 0 267 5 241 -89 -9 -31
-16 -79 -16 -105 0 -47 -30 -194 -90 -441 -16 -66 -32 -140 -36 -165 -13 -88
-63 -296 -78 -325 -9 -16 -16 -37 -16 -46 0 -30 -51 -161 -71 -182 -11 -12
-27 -38 -35 -56 -8 -19 -34 -59 -57 -89 -23 -30 -46 -62 -52 -72 -35 -58 -67
-100 -78 -100 -6 0 -25 -14 -41 -31 -16 -17 -50 -40 -77 -51 -31 -14 -45 -26
-42 -34 3 -10 -3 -14 -20 -14 -15 0 -36 -4 -49 -9 -27 -10 -145 -45 -204 -61
-23 -5 -56 -10 -73 -10 -18 0 -40 -4 -50 -9 -11 -6 -91 -4 -217 5 -253 18
-269 20 -289 50 -8 13 -39 38 -68 54 -43 25 -88 60 -150 118 -17 16 -58 79
-77 120 -29 60 -40 381 -17 487 9 39 37 176 62 305 118 605 146 734 159 742 6
4 120 8 254 8 208 0 243 -2 248 -15z m3158 -27 c-3 -24 -17 -90 -31 -148 -13
-58 -40 -179 -59 -270 -18 -91 -41 -196 -49 -235 -9 -38 -24 -113 -35 -166
-10 -52 -25 -120 -33 -150 -9 -30 -18 -75 -22 -101 -3 -25 -12 -51 -19 -57 -9
-8 -147 -10 -457 -9 l-444 3 -2 40 c-2 22 5 76 15 119 l17 79 80 42 c78 40
126 66 250 135 33 19 100 61 148 94 49 34 96 66 105 71 9 6 21 15 27 21 5 5
43 39 84 75 163 140 237 223 337 374 56 86 85 125 91 125 2 0 0 -19 -3 -42z
m760 17 c-2 -23 -24 -137 -54 -275 -11 -52 -24 -119 -30 -148 -5 -29 -11 -56
-14 -60 -5 -8 -13 -49 -85 -412 -22 -113 -47 -230 -56 -260 -8 -30 -24 -102
-35 -160 -24 -133 -34 -181 -59 -305 -43 -205 -53 -244 -67 -249 -16 -6 -494
-9 -500 -4 -6 6 38 241 75 408 11 47 23 108 26 135 4 28 13 73 20 100 8 28 32
142 54 255 22 113 45 225 49 250 5 25 28 131 50 235 22 105 50 237 61 295 19
96 37 175 47 208 3 10 60 12 261 10 251 -3 258 -4 257 -23z m4174 -234 c2 -7
-5 -15 -17 -18 -12 -3 -21 -13 -21 -24 0 -12 -7 -19 -20 -19 -13 0 -20 -7 -20
-20 0 -11 -7 -20 -15 -20 -17 0 -73 -53 -91 -86 -6 -10 -25 -25 -42 -33 -19
-9 -32 -22 -32 -33 0 -10 -7 -18 -16 -18 -14 0 -82 -65 -164 -159 -35 -40 -70
-53 -70 -27 0 7 57 67 127 132 69 66 148 140 176 167 27 26 50 47 52 47 2 0
32 29 66 65 61 63 78 73 87 46z m-3045 -456 c-1 -54 -38 -261 -64 -357 -5 -21
-39 -178 -74 -350 -35 -172 -75 -365 -88 -428 -39 -187 -50 -257 -44 -274 6
-14 90 -16 885 -16 927 0 895 -2 903 44 2 11 10 21 17 24 16 5 16 -60 0 -76
-9 -9 -228 -12 -925 -12 l-913 0 0 85 c0 50 4 85 10 85 6 0 10 18 10 40 0 22
5 40 10 40 6 0 10 30 10 70 0 40 4 70 10 70 6 0 10 14 10 30 0 17 5 30 10 30
6 0 10 9 10 20 0 11 3 20 8 20 4 0 5 27 4 60 -3 43 0 61 10 65 9 4 12 21 10
60 -3 39 0 56 10 60 9 4 12 19 10 50 -3 28 0 45 7 45 6 0 11 18 11 40 0 22 5
40 10 40 6 0 10 18 10 40 0 25 5 40 13 40 8 0 11 15 8 51 -2 29 2 56 8 62 6 6
11 26 11 44 0 18 5 33 10 33 6 0 10 30 10 70 0 40 4 70 10 70 6 0 10 9 10 20
0 11 5 20 10 20 6 0 10 25 10 55 0 48 -2 55 -20 55 -11 0 -20 -4 -20 -10 0 -5
-8 -10 -18 -10 -10 0 -24 -9 -32 -20 -8 -11 -20 -20 -27 -20 -7 0 -13 -10 -13
-23 0 -21 -39 -67 -58 -67 -4 0 -6 -18 -4 -40 3 -25 0 -40 -7 -40 -6 0 -11
-17 -11 -40 0 -22 -4 -40 -10 -40 -6 0 -10 -27 -10 -60 0 -33 -4 -60 -10 -60
-5 0 -10 -20 -10 -45 0 -25 -4 -45 -10 -45 -5 0 -10 -22 -10 -50 0 -27 -4 -50
-10 -50 -5 0 -10 -22 -10 -50 0 -27 -4 -50 -10 -50 -5 0 -10 -13 -10 -30 0
-16 -4 -30 -10 -30 -5 0 -10 -16 -10 -35 0 -19 -4 -35 -10 -35 -5 0 -10 -22
-10 -50 0 -38 -4 -50 -15 -50 -18 0 -19 7 -1 95 47 232 118 568 131 617 23 89
62 169 85 175 11 3 20 11 20 18 0 27 113 88 150 82 12 -2 15 -16 13 -62z
m2537 -36 c0 -11 -7 -19 -16 -19 -8 0 -21 -6 -28 -12 -7 -7 -27 -24 -44 -38
-30 -24 -43 -60 -22 -60 6 0 10 -9 10 -20 0 -11 5 -20 10 -20 6 0 10 -7 10
-16 0 -9 8 -24 18 -33 24 -23 42 -57 42 -82 0 -34 -22 -16 -55 47 -18 32 -42
76 -53 97 -12 21 -22 42 -22 47 0 15 133 140 142 134 4 -3 8 -14 8 -25z
m-17690 -255 c25 -49 73 -141 107 -204 167 -314 173 -329 126 -299 -18 11 -57
81 -58 104 0 6 -6 15 -14 21 -8 6 -11 16 -8 21 4 6 0 14 -9 17 -9 4 -14 13
-10 21 3 8 1 15 -4 15 -6 0 -10 9 -10 20 0 11 -4 20 -10 20 -5 0 -10 8 -10 18
0 10 -9 24 -20 32 -11 8 -20 22 -20 32 0 10 -4 18 -10 18 -5 0 -10 11 -10 25
0 14 -4 25 -10 25 -5 0 -10 9 -10 20 0 11 -4 20 -10 20 -5 0 -10 9 -10 20 0
11 -4 20 -10 20 -5 0 -10 7 -10 16 0 15 -23 44 -35 44 -3 0 -4 -9 0 -19 3 -11
0 -25 -7 -31 -8 -8 -12 -29 -9 -56 2 -30 -1 -45 -10 -49 -10 -4 -13 -21 -11
-60 3 -35 0 -55 -7 -55 -6 0 -11 -9 -11 -20 0 -13 -7 -20 -20 -20 -25 0 -25 8
-1 95 11 39 25 108 32 155 14 101 25 133 42 128 6 -2 32 -44 57 -94z m17696
-78 c8 -8 14 -22 14 -30 0 -9 5 -16 10 -16 6 0 10 -8 10 -18 0 -10 9 -24 20
-32 12 -8 20 -26 20 -42 0 -15 5 -28 11 -28 6 0 9 -9 6 -19 -3 -13 3 -23 19
-32 13 -7 24 -18 24 -25 0 -7 10 -22 21 -33 13 -12 20 -27 17 -39 -3 -12 2
-25 13 -33 11 -7 19 -21 19 -31 0 -10 5 -18 10 -18 6 0 10 -9 10 -20 0 -11 5
-20 10 -20 6 0 10 -13 10 -28 0 -16 8 -34 20 -42 11 -8 20 -21 20 -29 0 -7 8
-21 18 -30 10 -9 25 -31 33 -48 7 -18 17 -33 21 -33 5 0 8 -13 8 -28 0 -16 8
-34 20 -42 11 -8 20 -22 20 -32 0 -10 5 -18 10 -18 6 0 10 -9 10 -20 0 -11 5
-20 10 -20 6 0 10 -9 10 -20 0 -11 5 -20 10 -20 6 0 10 -9 10 -19 0 -11 10
-27 21 -35 14 -9 20 -22 17 -33 -3 -10 1 -24 9 -31 7 -7 11 -17 8 -23 -4 -5
-1 -9 4 -9 6 0 11 -18 11 -40 l0 -41 -502 3 c-468 3 -505 4 -536 22 -18 10
-38 26 -44 36 -7 10 -18 16 -25 13 -7 -3 -13 0 -13 6 0 6 -7 11 -15 11 -20 0
-125 105 -125 125 0 8 -4 15 -10 15 -5 0 -10 8 -10 18 0 10 -9 24 -20 32 -11
8 -20 22 -20 30 0 21 -23 70 -32 70 -5 0 -8 9 -8 20 0 11 -4 20 -10 20 -5 0
-10 9 -10 20 0 11 -4 20 -10 20 -5 0 -10 9 -10 20 0 11 -4 20 -10 20 -5 0 -10
9 -10 20 0 11 -3 20 -8 20 -4 0 -6 -20 -4 -45 3 -32 0 -46 -10 -50 -9 -4 -13
-17 -10 -40 3 -24 0 -37 -10 -40 -9 -4 -13 -17 -10 -40 3 -27 0 -35 -11 -35
-25 0 -27 13 -10 76 9 32 23 95 32 139 11 50 22 80 30 80 11 0 111 -173 142
-245 36 -87 70 -141 115 -186 58 -57 110 -84 216 -114 68 -19 102 -20 501 -20
477 0 459 -3 415 67 -35 58 -76 133 -98 181 -11 24 -45 89 -76 145 -31 56 -79
145 -107 197 -28 52 -65 120 -82 151 -18 31 -36 67 -40 80 -4 13 -13 31 -20
39 -26 29 -106 191 -100 200 8 13 14 13 31 -4z m-17373 -538 c162 -318 186
-354 270 -418 29 -22 58 -45 65 -50 6 -6 12 -8 12 -5 0 3 9 1 20 -5 28 -15 25
-30 -5 -30 -14 0 -25 5 -25 10 0 6 -9 10 -20 10 -11 0 -20 5 -20 10 0 6 -8 10
-18 10 -10 0 -24 9 -32 20 -8 11 -20 20 -27 20 -8 0 -18 12 -23 26 -6 15 -24
39 -40 54 -17 15 -30 35 -30 44 0 9 -4 16 -10 16 -5 0 -10 9 -10 20 0 11 -4
20 -10 20 -5 0 -10 9 -10 20 0 11 -4 20 -10 20 -5 0 -10 7 -10 15 0 8 -4 15
-10 15 -5 0 -10 8 -10 18 0 10 -9 24 -20 32 -11 8 -20 26 -20 40 0 14 -9 32
-20 40 -11 8 -20 22 -20 32 0 10 -4 18 -10 18 -5 0 -10 9 -10 20 0 11 -4 20
-10 20 -5 0 -10 11 -10 25 0 48 25 24 73 -67z m14435 -71 c2 -24 -1 -39 -10
-42 -9 -4 -12 -19 -10 -46 3 -27 0 -44 -9 -50 -8 -5 -12 -24 -10 -53 2 -33 -1
-46 -11 -46 -9 0 -12 -13 -10 -50 3 -38 1 -50 -10 -50 -10 0 -13 -10 -10 -35
3 -24 0 -37 -10 -40 -10 -4 -13 -15 -10 -31 l4 -24 -1391 0 c-1384 0 -1391 0
-1391 -20 0 -11 -4 -20 -10 -20 -5 0 -10 -13 -10 -30 0 -16 -4 -30 -10 -30 -5
0 -10 -18 -10 -40 0 -22 -4 -40 -10 -40 -5 0 -10 -9 -10 -20 0 -11 -4 -20 -10
-20 -5 0 -10 -9 -10 -20 0 -11 -4 -20 -9 -20 -17 0 -24 22 -13 43 15 29 62
184 62 202 0 8 9 19 19 25 13 7 463 10 1385 10 1227 0 1366 2 1380 16 9 8 16
18 16 22 0 6 41 205 82 400 12 60 31 64 36 9z m-13221 -89 c16 -23 35 -50 43
-59 8 -8 33 -36 56 -60 44 -48 89 -88 120 -105 23 -13 31 -44 12 -44 -7 0 -20
9 -28 20 -8 11 -20 20 -28 20 -16 0 -162 148 -162 165 0 18 -27 38 -40 30 -5
-3 -10 -26 -10 -51 0 -24 -4 -44 -10 -44 -5 0 -10 -18 -10 -40 0 -22 -4 -40
-10 -40 -6 0 -10 -27 -10 -60 0 -33 -4 -60 -10 -60 -5 0 -10 -11 -10 -25 l0
-26 -350 3 c-346 3 -384 7 -366 37 4 6 22 5 54 -4 64 -20 614 -22 630 -2 5 6
13 35 16 62 6 46 53 284 62 313 6 22 23 13 51 -30z m5616 -60 c29 -40 83 -98
120 -128 65 -54 82 -80 52 -80 -8 0 -15 5 -15 10 0 6 -7 10 -15 10 -20 0 -185
165 -185 185 0 8 -8 19 -18 24 -14 7 -25 4 -45 -13 -15 -13 -27 -31 -27 -40 0
-9 -8 -16 -20 -16 -12 0 -20 -7 -20 -16 0 -18 -24 -44 -40 -44 -7 0 -25 -13
-40 -30 -15 -16 -34 -30 -42 -30 -7 0 -20 -9 -28 -20 -8 -11 -25 -20 -39 -20
-13 0 -31 -8 -40 -17 -21 -23 -57 -43 -76 -43 -8 0 -30 -9 -50 -20 -19 -11
-60 -23 -90 -26 -31 -4 -58 -11 -61 -15 -3 -5 -25 -9 -50 -9 -24 0 -44 -4 -44
-10 0 -6 -37 -10 -90 -10 -53 0 -90 -4 -90 -10 0 -5 -24 -10 -54 -10 -30 0
-58 5 -61 10 -3 6 -48 10 -101 10 -56 0 -94 4 -94 10 0 6 -27 10 -60 10 -33 0
-60 4 -60 10 0 6 -15 10 -34 10 -19 0 -41 7 -50 15 -8 8 -26 15 -40 15 -14 0
-26 5 -26 10 0 6 -9 10 -20 10 -11 0 -20 7 -20 15 0 20 19 19 81 -6 29 -11 98
-32 153 -46 93 -25 117 -27 306 -26 221 0 314 12 453 59 39 13 74 25 77 26 9
2 115 53 120 58 3 3 37 26 76 53 59 39 114 90 212 193 24 25 40 15 95 -58z
m2093 8 c-3 -14 -10 -26 -15 -26 -15 0 -19 23 -9 49 12 33 33 12 24 -23z
m-3903 -99 c41 -30 109 -71 151 -93 77 -40 96 -64 51 -64 -14 0 -25 5 -25 10
0 6 -9 10 -20 10 -11 0 -20 5 -20 10 0 6 -9 10 -20 10 -11 0 -20 5 -20 10 0 6
-8 10 -18 10 -10 0 -24 9 -32 20 -8 11 -19 20 -25 20 -6 0 -17 9 -25 20 -8 11
-21 20 -29 20 -7 0 -22 9 -32 21 l-18 21 -50 -51 c-27 -28 -56 -51 -63 -51 -8
0 -20 -9 -28 -20 -8 -11 -26 -20 -40 -20 -14 0 -32 -9 -40 -20 -8 -11 -22 -20
-32 -20 -10 0 -33 -9 -53 -20 -42 -23 -65 -26 -65 -6 0 16 27 29 41 20 5 -3 9
0 9 5 0 6 8 11 18 11 9 0 28 9 42 20 14 11 33 20 42 20 9 0 18 4 20 8 2 4 23
20 48 34 25 15 68 47 95 72 28 25 53 46 57 46 4 0 40 -24 81 -53z m11397 -8
c0 -34 -4 -49 -13 -49 -9 0 -12 -10 -9 -30 4 -31 -14 -43 -24 -16 -5 13 9 107
22 144 9 28 24 -2 24 -49z m-12948 -92 c205 -105 367 -142 628 -141 190 0 290
12 390 45 35 11 59 14 65 8 15 -15 -10 -31 -59 -36 -26 -3 -49 -10 -52 -14 -3
-5 -30 -9 -60 -9 -30 0 -54 -4 -54 -10 0 -6 -37 -10 -90 -10 -53 0 -90 -4 -90
-10 0 -5 -22 -10 -50 -10 -27 0 -50 5 -50 10 0 6 -42 10 -105 10 -63 0 -105 4
-105 10 0 6 -18 10 -40 10 -22 0 -40 4 -40 9 0 4 -28 11 -62 14 -34 3 -64 10
-66 16 -2 6 -17 11 -33 11 -16 0 -29 5 -29 10 0 6 -9 10 -20 10 -11 0 -20 5
-20 10 0 6 -13 10 -28 10 -16 0 -34 8 -42 20 -8 12 -26 20 -42 20 -15 0 -28 6
-29 13 0 6 -4 2 -9 -10 -5 -13 -13 -23 -17 -23 -5 0 -7 -21 -5 -46 l4 -46
-378 4 c-291 2 -378 6 -382 16 -2 6 -12 12 -23 12 -10 0 -19 5 -19 10 0 6 -9
10 -20 10 -11 0 -20 5 -20 10 0 6 -18 10 -40 10 -22 0 -40 -4 -40 -10 0 -5 -7
-10 -15 -10 -8 0 -15 7 -15 15 0 8 7 15 15 15 8 0 15 4 15 8 0 5 11 14 24 20
20 9 34 5 88 -23 112 -59 153 -65 472 -65 328 0 306 -7 306 99 0 78 5 78 142
8z m5701 22 c48 -37 173 -88 293 -120 66 -17 121 -32 122 -34 13 -12 -19 -53
-79 -101 -77 -63 -169 -177 -169 -211 0 -12 -4 -25 -10 -28 -11 -7 -13 -71 -4
-127 7 -37 24 -43 24 -9 0 10 7 24 15 31 8 7 15 20 15 29 0 10 11 27 25 39 14
12 25 27 25 33 0 6 11 19 24 30 16 13 25 33 30 67 3 27 13 57 21 68 8 10 15
25 15 32 0 13 40 62 40 49 0 -3 -9 -29 -20 -57 -32 -81 -28 -186 10 -265 42
-88 105 -154 185 -195 61 -31 75 -34 178 -38 207 -8 361 55 531 217 106 102
255 326 335 503 34 77 55 97 82 80 11 -7 23 -11 28 -8 17 11 391 10 401 0 8
-8 8 -31 -1 -80 -16 -94 -44 -167 -130 -336 -27 -54 -49 -102 -49 -107 0 -14
-68 -129 -104 -176 -99 -130 -235 -275 -259 -275 -10 0 -69 -46 -120 -94 -15
-14 -42 -33 -60 -43 -18 -9 -52 -31 -76 -50 -24 -18 -50 -33 -57 -33 -7 0 -29
-10 -49 -21 -83 -49 -241 -76 -455 -78 -166 -1 -228 21 -367 134 -61 50 -134
135 -151 178 -15 35 -40 67 -54 67 -5 0 -14 -11 -20 -25 -6 -14 -18 -25 -27
-25 -9 0 -28 -6 -42 -14 -25 -13 -30 -11 -73 23 -54 43 -120 166 -131 246 -4
28 -16 70 -27 95 -49 109 -61 219 -33 320 8 30 22 87 30 127 24 112 69 203
100 203 7 0 24 -9 38 -21z m-7663 -44 c7 -8 17 -15 23 -15 6 0 18 -6 26 -14 9
-7 41 -21 71 -31 30 -10 64 -22 75 -26 45 -19 168 -31 303 -31 118 1 142 -2
142 -14 0 -12 -29 -14 -175 -14 -110 0 -175 4 -175 10 0 6 -22 10 -50 10 -27
0 -50 4 -50 9 0 4 -19 11 -42 14 -24 3 -44 11 -46 16 -2 6 -12 11 -23 11 -10
0 -19 5 -19 10 0 6 -9 10 -20 10 -11 0 -20 5 -20 10 0 6 -7 10 -16 10 -18 0
-44 23 -44 39 0 16 26 13 40 -4z m5586 -17 c50 -27 137 -60 204 -80 56 -16 59
-28 7 -28 -26 0 -47 5 -47 10 0 6 -11 10 -25 10 -28 0 -105 31 -105 42 0 5 -9
8 -20 8 -11 0 -20 5 -20 10 0 6 -7 10 -16 10 -18 0 -44 23 -44 40 0 13 -2 14
66 -22z m1015 1 c94 -58 162 -69 435 -69 135 0 245 -4 248 -9 4 -5 -2 -38 -11
-73 -14 -50 -18 -105 -18 -263 0 -221 12 -288 74 -435 67 -156 223 -353 346
-435 61 -40 194 -107 253 -125 23 -7 48 -20 55 -28 10 -13 5 -14 -41 -8 -29 4
-69 16 -88 26 -19 11 -41 20 -49 20 -8 0 -15 5 -15 10 0 6 -9 10 -20 10 -11 0
-20 5 -20 10 0 6 -7 10 -16 10 -18 0 -46 25 -37 34 4 3 -2 6 -11 6 -10 0 -31
14 -46 30 -15 17 -33 30 -39 30 -13 0 -161 146 -161 158 0 5 -9 17 -20 27 -11
10 -20 23 -20 29 0 7 -9 18 -20 26 -11 8 -20 22 -20 32 0 10 -5 18 -12 18 -6
0 -9 3 -5 6 7 8 -17 34 -32 34 -6 0 -11 14 -11 30 0 17 -5 30 -11 30 -7 0 -9
11 -6 29 5 21 2 31 -10 35 -9 4 -13 14 -10 26 3 11 1 23 -4 26 -5 3 -9 16 -9
30 0 13 -4 24 -10 24 -6 0 -10 27 -10 60 0 33 -4 60 -10 60 -6 0 -10 53 -10
140 0 87 4 140 10 140 6 0 10 32 10 75 0 46 4 75 11 75 6 0 9 12 7 28 l-3 27
-294 5 c-223 4 -295 8 -299 18 -2 6 -11 12 -21 12 -9 0 -23 9 -31 20 -8 11
-22 20 -31 20 -10 0 -20 6 -23 13 -5 10 -7 10 -12 0 -3 -7 -14 -13 -25 -13
-10 0 -19 -4 -19 -10 0 -5 -9 -10 -20 -10 -11 0 -20 -4 -20 -10 0 -5 -9 -10
-20 -10 -11 0 -20 -4 -20 -9 0 -6 -20 -13 -45 -17 -25 -3 -48 -10 -51 -15 -3
-5 -21 -9 -40 -9 -19 0 -34 -4 -34 -10 0 -6 -72 -10 -195 -10 -157 0 -195 3
-195 14 0 10 35 13 173 14 218 1 314 23 472 109 22 12 43 22 47 23 4 0 31 -14
59 -31z m-5711 -44 c0 -8 -9 -15 -19 -15 -11 0 -21 -4 -23 -10 -1 -5 -25 -13
-53 -16 -27 -4 -53 -11 -56 -16 -3 -5 -26 -8 -50 -6 -50 4 -49 5 81 46 111 36
120 37 120 17z m8067 -43 c27 -17 -89 -185 -197 -284 -93 -87 -162 -126 -253
-144 -89 -18 -171 -7 -213 29 -44 39 -53 139 -18 208 17 33 77 82 128 103 48
20 66 20 66 1 0 -10 -10 -15 -28 -15 -16 0 -34 -8 -42 -20 -8 -11 -18 -20 -23
-20 -19 0 -77 -71 -77 -95 0 -14 -4 -25 -10 -25 -5 0 -10 -11 -10 -25 0 -14 5
-25 10 -25 6 0 10 -13 10 -30 0 -23 4 -30 20 -30 11 0 20 -3 20 -7 0 -14 53
-33 92 -33 21 0 38 5 38 10 0 6 14 10 30 10 17 0 30 5 30 10 0 6 14 10 30 10
17 0 30 5 30 10 0 6 7 10 16 10 9 0 29 14 44 30 15 17 32 30 38 30 14 0 172
160 172 174 0 6 9 18 20 26 12 8 20 26 20 42 0 27 -2 28 -52 28 -68 0 -54 11
24 20 35 4 65 8 68 8 3 1 11 -2 17 -6z m-192 -27 c0 -5 -21 -11 -47 -13 -27
-2 -48 -7 -48 -13 0 -5 -22 -9 -50 -9 -27 0 -50 -4 -50 -10 0 -5 -20 -10 -45
-10 -25 0 -45 4 -45 8 0 9 81 35 160 51 56 12 125 9 125 -4z m1185 -269 c0
-25 -21 -76 -32 -76 -5 0 -8 -9 -8 -20 0 -11 -4 -20 -10 -20 -5 0 -10 -9 -10
-20 0 -11 -4 -20 -10 -20 -5 0 -10 -8 -10 -18 0 -10 -8 -24 -19 -31 -10 -8
-16 -21 -14 -30 2 -10 -9 -32 -26 -50 -17 -18 -31 -38 -31 -45 0 -6 -9 -19
-20 -29 -11 -9 -20 -23 -20 -29 0 -7 -9 -19 -20 -26 -11 -7 -20 -20 -20 -30 0
-10 -9 -24 -20 -32 -11 -8 -20 -20 -20 -28 0 -17 -279 -292 -297 -292 -7 0
-13 -9 -13 -20 0 -15 -7 -20 -26 -20 -16 0 -37 -12 -54 -30 -15 -16 -35 -30
-44 -30 -9 0 -16 -4 -16 -10 0 -5 -7 -10 -15 -10 -8 0 -15 7 -15 15 0 8 6 15
13 15 8 0 22 9 32 20 10 11 26 22 37 26 11 3 29 13 39 22 10 10 27 24 37 32
91 77 159 138 170 152 7 9 18 23 25 30 7 7 41 49 77 93 35 44 67 82 70 85 7 7
41 58 60 93 8 15 39 67 68 116 46 79 87 160 113 229 11 28 29 20 29 -12z
m-793 -940 c-9 -9 -23 -16 -31 -16 -9 0 -16 -4 -16 -10 0 -5 -9 -10 -19 -10
-11 0 -21 -3 -23 -7 -4 -11 -87 -53 -104 -53 -8 0 -23 -5 -33 -12 -20 -12 -60
-3 -45 11 5 5 56 28 114 52 58 24 107 45 110 48 3 4 14 11 25 17 26 15 42 0
22 -20z m-277 -117 c0 -5 -9 -9 -20 -9 -11 0 -20 -4 -20 -10 0 -5 -15 -10 -34
-10 -19 0 -38 -4 -41 -10 -7 -12 -105 -14 -105 -2 0 8 201 61 213 55 4 -2 7
-8 7 -14z m-829 -9 c5 0 9 -4 9 -10 0 -12 -47 -13 -54 -1 -8 12 6 22 22 16 7
-3 18 -5 23 -5z m599 -45 c0 -11 -12 -15 -45 -15 -50 0 -57 6 -22 20 35 14 67
12 67 -5z"/>
<path d="M4009 3186 c-3 -3 -28 -6 -55 -7 -29 -1 -60 -9 -76 -20 -14 -11 -33
-19 -41 -19 -8 0 -20 -7 -27 -16 -8 -8 -27 -21 -44 -28 -32 -14 -50 -30 -101
-87 -36 -40 -95 -131 -95 -146 0 -6 -13 -40 -30 -76 -38 -84 -53 -184 -48
-311 5 -124 32 -190 110 -270 65 -66 131 -89 253 -89 100 0 169 24 259 88 117
83 218 223 255 355 8 25 17 56 22 70 13 37 29 148 29 199 0 74 -21 172 -41
192 -11 11 -19 23 -19 29 0 22 -81 84 -155 118 -24 12 -188 26 -196 18z"/>
<path d="M3965 1830 c3 -5 8 -10 11 -10 2 0 4 5 4 10 0 6 -5 10 -11 10 -5 0
-7 -4 -4 -10z"/>
<path d="M9476 3171 c-3 -4 -18 -11 -34 -14 -28 -6 -192 -122 -192 -136 0 -4
-22 -32 -50 -61 -27 -29 -50 -59 -50 -65 0 -7 -9 -24 -20 -37 -36 -46 -70
-209 -70 -335 0 -143 28 -227 101 -308 54 -58 93 -78 190 -95 137 -25 298 40
426 171 95 97 135 176 180 353 22 88 25 116 21 213 -4 91 -9 120 -28 155 -13
24 -28 52 -33 63 -14 28 -132 84 -203 95 -74 12 -231 13 -238 1z"/>
<path d="M14550 3440 c0 -5 5 -10 10 -10 6 0 10 5 10 10 0 6 -4 10 -10 10 -5
0 -10 -4 -10 -10z"/>
<path d="M14523 3395 c-7 -8 -13 -19 -13 -25 0 -6 -28 -39 -62 -72 -35 -34
-62 -63 -60 -65 8 -10 0 -23 -14 -23 -19 0 -54 -37 -54 -57 0 -7 -10 -17 -23
-22 -12 -5 -41 -27 -65 -50 -23 -22 -48 -41 -55 -41 -7 0 -19 -9 -27 -20 -8
-11 -22 -20 -32 -20 -11 0 -18 -7 -18 -20 0 -12 -7 -20 -16 -20 -9 0 -29 -13
-44 -30 -15 -16 -34 -30 -42 -30 -7 0 -20 -9 -28 -20 -8 -11 -20 -20 -27 -20
-7 0 -13 -4 -13 -9 0 -11 -141 -81 -163 -81 -9 0 -17 -4 -17 -10 0 -5 -9 -10
-20 -10 -11 0 -20 -4 -20 -10 0 -5 -9 -10 -20 -10 -11 0 -20 -4 -20 -8 0 -5
-16 -14 -35 -22 -19 -8 -35 -17 -35 -22 0 -4 -7 -8 -15 -8 -29 0 -65 -47 -65
-85 0 -19 -4 -35 -10 -35 -5 0 -10 -20 -10 -45 l0 -45 105 0 c63 0 105 -4 105
-10 0 -6 109 -10 306 -10 341 0 334 -1 334 69 0 22 5 43 10 46 6 3 10 35 10
71 0 36 4 64 10 64 6 0 10 18 10 40 0 22 5 40 10 40 6 0 10 14 10 30 0 17 5
30 10 30 6 0 10 18 10 40 0 22 5 40 10 40 6 0 10 25 10 55 0 30 5 55 10 55 6
0 10 18 10 40 0 22 5 40 10 40 6 0 10 27 10 60 0 33 4 60 10 60 6 0 10 16 10
35 0 19 5 35 10 35 6 0 10 18 10 40 0 22 5 40 10 40 6 0 10 9 10 20 0 23 -10
25 -27 5z"/>
<path d="M14078 5373 c34 -2 62 -8 62 -13 0 -6 18 -10 40 -10 22 0 40 -4 40
-10 0 -5 14 -10 30 -10 17 0 30 -4 30 -10 0 -5 11 -10 24 -10 13 0 29 -7 36
-15 7 -8 21 -15 31 -15 11 0 19 -4 19 -10 0 -5 9 -10 20 -10 11 0 20 -4 20
-10 0 -5 8 -10 18 -10 10 0 24 -9 32 -20 8 -11 20 -20 28 -20 18 0 62 -46 62
-65 0 -8 7 -15 15 -15 20 0 65 -45 65 -65 0 -8 9 -15 20 -15 13 0 20 -7 20
-20 0 -11 5 -20 11 -20 6 0 9 -7 5 -15 -3 -9 3 -20 14 -27 11 -7 20 -21 20
-30 0 -10 5 -18 10 -18 6 0 10 -9 10 -20 0 -11 5 -20 10 -20 6 0 10 -13 10
-30 0 -16 5 -30 10 -30 6 0 10 -9 10 -20 0 -11 5 -20 10 -20 6 0 10 -22 10
-50 0 -27 5 -50 10 -50 6 0 10 -20 10 -45 0 -43 1 -45 30 -45 17 0 30 5 30 10
0 6 8 10 19 10 10 0 23 6 29 13 6 7 27 19 47 27 19 7 35 17 35 22 0 4 18 8 40
8 22 0 40 5 40 10 0 6 48 10 124 10 73 0 127 -4 131 -10 3 -5 31 -10 61 -10
30 0 54 -4 54 -10 0 -5 7 -10 15 -10 9 0 21 -5 28 -11 7 -6 32 -20 56 -32 24
-12 49 -31 55 -42 6 -11 20 -28 30 -37 10 -10 16 -18 12 -18 -4 0 -1 -7 8 -15
8 -8 19 -15 25 -15 6 0 11 -9 11 -20 0 -11 5 -20 11 -20 6 0 9 -9 6 -19 -3
-12 1 -22 10 -25 8 -3 11 -11 8 -17 -4 -5 1 -16 10 -23 12 -9 16 -21 13 -40
-3 -14 -1 -29 3 -32 13 -8 11 -274 -2 -274 -6 0 -8 -8 -4 -19 3 -11 0 -25 -8
-32 -8 -8 -12 -22 -9 -33 3 -10 -1 -24 -9 -30 -40 -31 -21 -36 146 -36 103 0
165 -4 165 -10 0 -5 18 -10 40 -10 22 0 40 -4 40 -10 0 -5 9 -10 20 -10 11 0
20 -4 20 -10 0 -5 9 -10 20 -10 11 0 20 -4 20 -10 0 -18 55 -11 70 10 8 11 26
20 40 20 14 0 32 9 40 20 8 11 25 20 37 20 13 0 23 5 23 10 0 6 30 10 70 10
40 0 70 4 70 10 0 6 68 10 185 10 117 0 185 -4 185 -10 0 -5 18 -10 40 -10 22
0 40 -4 40 -10 0 -5 11 -10 25 -10 14 0 25 -4 25 -10 0 -5 9 -10 20 -10 11 0
20 -4 20 -10 0 -5 9 -10 20 -10 11 0 20 -4 20 -10 0 -5 9 -10 20 -10 11 0 20
-4 20 -10 0 -5 8 -10 18 -10 10 0 24 -9 32 -20 8 -11 20 -20 28 -20 18 0 42
-25 42 -44 0 -9 7 -16 16 -16 18 0 44 -23 44 -39 0 -11 36 -51 45 -51 3 0 5
16 5 35 0 19 5 35 10 35 6 0 10 23 10 50 0 28 5 50 10 50 6 0 10 23 10 50 0
28 5 50 10 50 6 0 10 11 10 24 0 14 5 28 10 31 6 3 10 26 10 51 0 24 5 44 10
44 6 0 10 23 10 50 0 28 5 50 10 50 6 0 10 23 10 50 0 28 5 50 10 50 6 0 10
15 10 34 0 19 5 38 10 41 6 3 10 31 10 61 0 30 5 54 10 54 6 0 10 23 10 50 0
28 5 50 10 50 6 0 10 18 10 40 0 22 5 40 10 40 6 0 10 16 10 35 0 28 4 35 20
35 11 0 20 5 20 10 0 6 9 10 20 10 11 0 20 -4 20 -10 0 -6 38 -10 95 -10 57 0
95 4 95 10 0 6 9 10 20 10 11 0 20 -4 20 -10 0 -5 18 -10 40 -10 22 0 40 5 40
10 0 6 11 10 24 10 14 0 28 -4 31 -10 3 -5 35 -10 71 -10 36 0 64 4 64 10 0 6
37 10 90 10 53 0 90 -4 90 -10 0 -6 28 -10 65 -10 37 0 65 4 65 10 0 15 77 12
84 -2 5 -10 7 -10 12 0 8 16 32 15 50 -2 18 -18 19 -106 2 -106 -9 0 -12 -16
-10 -55 3 -35 0 -55 -7 -55 -7 0 -11 -21 -11 -50 0 -27 -4 -50 -10 -50 -6 0
-10 -30 -10 -70 0 -40 -4 -70 -10 -70 -5 0 -10 -13 -10 -30 0 -16 -4 -30 -10
-30 -5 0 -10 -20 -10 -45 0 -25 -4 -45 -10 -45 -5 0 -10 -18 -10 -40 0 -22 -4
-40 -10 -40 -6 0 -10 -27 -10 -60 0 -33 -4 -60 -8 -60 -4 0 -6 -17 -4 -37 3
-24 0 -40 -10 -47 -10 -8 -13 -23 -10 -49 4 -37 5 -37 22 -17 9 11 25 20 34
20 9 0 16 7 16 16 0 18 24 44 40 44 7 0 25 13 40 30 21 23 37 30 64 30 20 0
36 5 36 10 0 6 11 10 25 10 14 0 25 -4 25 -10 0 -6 78 -10 215 -10 137 0 215
4 215 10 0 6 27 10 60 10 33 0 60 -4 60 -10 0 -5 9 -10 20 -10 11 0 20 5 20
10 0 6 45 10 115 10 70 0 115 -4 115 -10 0 -6 42 -10 105 -10 63 0 105 4 105
10 0 6 9 10 20 10 11 0 20 -4 20 -10 0 -5 14 -10 30 -10 17 0 30 5 30 10 0 14
37 12 43 -2 3 -7 6 335 6 760 l1 772 -2992 -2 c-1646 -1 -2965 -3 -2930 -5z"/>
</g>
</svg>
